G04*
G04 #@! TF.GenerationSoftware,Altium Limited,Altium Designer,19.0.15 (446)*
G04*
G04 Layer_Color=65535*
%FSLAX44Y44*%
%MOMM*%
G71*
G01*
G75*
%ADD10C,0.0000*%
%ADD11C,0.2000*%
%ADD12C,0.2500*%
%ADD13C,0.1270*%
%ADD14C,0.5000*%
%ADD15C,0.1524*%
%ADD16C,0.2540*%
%ADD17C,0.1778*%
%ADD18C,0.2032*%
G36*
X307143Y381795D02*
X307078Y381729D01*
X306946Y381532D01*
X306683Y381137D01*
X306419Y380676D01*
X306156Y380149D01*
X305893Y379557D01*
X305761Y378898D01*
X305695Y378174D01*
Y377845D01*
X305761Y377516D01*
X305827Y377055D01*
X305958Y376528D01*
X306156Y376002D01*
X306419Y375343D01*
X306749Y374751D01*
X306814Y374685D01*
X306946Y374487D01*
X307209Y374158D01*
X307604Y373763D01*
X308065Y373302D01*
X308724Y372710D01*
X309514Y372117D01*
X310435Y371525D01*
X310567Y371459D01*
X310765Y371393D01*
X310962Y371261D01*
X311291Y371064D01*
X311686Y370866D01*
X312213Y370669D01*
X312806Y370405D01*
X313464Y370076D01*
X314320Y369747D01*
X315176Y369352D01*
X316229Y368957D01*
X317348Y368562D01*
X318599Y368101D01*
X319982Y367574D01*
X321496Y367048D01*
X331635Y363624D01*
Y354868D01*
X298585Y366060D01*
Y374158D01*
X303325Y372578D01*
X303259Y372644D01*
X303193Y372710D01*
X302798Y373105D01*
X302206Y373697D01*
X301482Y374422D01*
X300757Y375277D01*
X300033Y376133D01*
X299375Y376989D01*
X298914Y377779D01*
X298848Y377845D01*
X298716Y378108D01*
X298585Y378569D01*
X298387Y379096D01*
X298190Y379688D01*
X297992Y380413D01*
X297926Y381137D01*
X297861Y381927D01*
Y382453D01*
X297926Y382980D01*
X298058Y383704D01*
X298256Y384495D01*
X298585Y385350D01*
X298980Y386206D01*
X299572Y387062D01*
X307143Y381795D01*
D02*
G37*
G36*
X304115Y355263D02*
X304576D01*
X305037Y355197D01*
X305629Y355065D01*
X306288Y355000D01*
X307012Y354802D01*
X307802Y354605D01*
X308658Y354407D01*
X309580Y354078D01*
X310633Y353749D01*
X320838Y350193D01*
X320903D01*
X321035Y350128D01*
X321233Y350062D01*
X321562Y349930D01*
X322352Y349667D01*
X323274Y349403D01*
X324327Y349074D01*
X325380Y348811D01*
X326434Y348548D01*
X327290Y348350D01*
X327355D01*
X327619D01*
X328080Y348284D01*
X328606D01*
X329265D01*
X329989D01*
X330779Y348350D01*
X331635Y348482D01*
Y339857D01*
X331569D01*
X331503D01*
X331240D01*
X330976D01*
X330647D01*
X330186D01*
X329660D01*
X329067D01*
X329001D01*
X328936D01*
X328672Y339923D01*
X328343D01*
X328080D01*
X328145Y339791D01*
X328409Y339396D01*
X328804Y338804D01*
X329265Y338079D01*
X329791Y337158D01*
X330384Y336170D01*
X330845Y335117D01*
X331306Y333998D01*
X331371Y333866D01*
X331437Y333471D01*
X331635Y332944D01*
X331832Y332220D01*
X332030Y331298D01*
X332161Y330311D01*
X332293Y329257D01*
X332359Y328204D01*
Y327743D01*
X332293Y327348D01*
Y326953D01*
X332227Y326492D01*
X332030Y325373D01*
X331701Y324188D01*
X331240Y323003D01*
X330582Y321950D01*
X330121Y321423D01*
X329660Y321028D01*
X329528Y320962D01*
X329133Y320765D01*
X328540Y320501D01*
X327751Y320238D01*
X326763Y320040D01*
X325578Y319974D01*
X324195Y320106D01*
X323471Y320238D01*
X322681Y320501D01*
X322549Y320567D01*
X322220Y320699D01*
X321693Y320896D01*
X321035Y321225D01*
X320245Y321620D01*
X319455Y322147D01*
X318599Y322740D01*
X317743Y323464D01*
X317612Y323530D01*
X317348Y323859D01*
X316953Y324254D01*
X316492Y324846D01*
X315966Y325570D01*
X315373Y326426D01*
X314846Y327348D01*
X314386Y328401D01*
Y328467D01*
X314320Y328533D01*
X314188Y328928D01*
X313991Y329521D01*
X313661Y330443D01*
X313332Y331496D01*
X313003Y332813D01*
X312674Y334327D01*
X312345Y336039D01*
Y336104D01*
X312279Y336302D01*
X312213Y336631D01*
X312147Y337092D01*
X312081Y337619D01*
X311950Y338277D01*
X311621Y339660D01*
X311291Y341174D01*
X310962Y342688D01*
X310567Y344071D01*
X310370Y344729D01*
X310172Y345256D01*
X309316Y345585D01*
X309184Y345651D01*
X308921Y345717D01*
X308460Y345782D01*
X307868Y345914D01*
X307275Y345980D01*
X306683Y345914D01*
X306156Y345782D01*
X305695Y345519D01*
X305629Y345453D01*
X305498Y345322D01*
X305366Y345058D01*
X305103Y344663D01*
X304905Y344071D01*
X304773Y343346D01*
X304642Y342359D01*
X304576Y341174D01*
Y340779D01*
X304642Y340384D01*
X304708Y339791D01*
X304839Y339199D01*
X304971Y338540D01*
X305234Y337882D01*
X305564Y337224D01*
X305629Y337158D01*
X305761Y336960D01*
X305958Y336631D01*
X306288Y336170D01*
X306749Y335709D01*
X307341Y335117D01*
X307999Y334524D01*
X308790Y333932D01*
X307341Y326624D01*
X307275Y326690D01*
X307144Y326756D01*
X306880Y326953D01*
X306551Y327151D01*
X306156Y327414D01*
X305695Y327809D01*
X304642Y328599D01*
X303522Y329652D01*
X302337Y330838D01*
X301218Y332220D01*
X300231Y333669D01*
Y333734D01*
X300099Y333866D01*
X300033Y334063D01*
X299836Y334393D01*
X299704Y334788D01*
X299506Y335314D01*
X299243Y335841D01*
X299046Y336499D01*
X298848Y337224D01*
X298585Y338014D01*
X298387Y338870D01*
X298256Y339791D01*
X297992Y341832D01*
X297861Y344137D01*
Y345124D01*
X297926Y345585D01*
Y346112D01*
X298058Y347363D01*
X298190Y348745D01*
X298453Y350062D01*
X298848Y351313D01*
X299046Y351905D01*
X299309Y352366D01*
X299375Y352498D01*
X299572Y352761D01*
X299836Y353156D01*
X300231Y353617D01*
X300757Y354144D01*
X301350Y354605D01*
X302074Y355000D01*
X302798Y355263D01*
X302930D01*
X303193Y355329D01*
X303786D01*
X304115Y355263D01*
D02*
G37*
G36*
X305564Y322608D02*
Y316617D01*
X318928Y312074D01*
X318994D01*
X319126Y312008D01*
X319323Y311942D01*
X319587Y311877D01*
X320245Y311679D01*
X321035Y311416D01*
X321825Y311152D01*
X322615Y310955D01*
X323208Y310757D01*
X323471Y310691D01*
X323603D01*
X323734D01*
X323998D01*
X324327Y310823D01*
X324722Y311086D01*
X324788Y311152D01*
X324920Y311416D01*
X325051Y311811D01*
X325117Y312403D01*
Y312666D01*
X325051Y312930D01*
X324985Y313325D01*
X324920Y313917D01*
X324788Y314576D01*
X324590Y315300D01*
X324327Y316222D01*
X331108Y314708D01*
Y314642D01*
X331174Y314576D01*
X331240Y314378D01*
X331306Y314115D01*
X331503Y313391D01*
X331701Y312469D01*
X331964Y311350D01*
X332161Y310099D01*
X332293Y308716D01*
X332359Y307334D01*
Y306939D01*
X332293Y306478D01*
X332227Y305951D01*
X332161Y305293D01*
X332030Y304634D01*
X331832Y303976D01*
X331569Y303318D01*
X331503Y303252D01*
X331437Y303054D01*
X331240Y302791D01*
X331042Y302462D01*
X330384Y301738D01*
X329989Y301408D01*
X329528Y301211D01*
X329462D01*
X329265Y301145D01*
X329001Y301079D01*
X328606Y301013D01*
X328145D01*
X327553D01*
X326895D01*
X326170Y301145D01*
X326105D01*
X325841Y301211D01*
X325446Y301343D01*
X324788Y301474D01*
X323932Y301738D01*
X322879Y302067D01*
X322286Y302264D01*
X321562Y302462D01*
X320838Y302725D01*
X319982Y302988D01*
X305564Y307860D01*
Y303844D01*
X298585Y306215D01*
Y310231D01*
X292001Y312469D01*
X286866Y323003D01*
X298585Y318987D01*
Y324978D01*
X305564Y322608D01*
D02*
G37*
G36*
X304115Y298643D02*
X304576D01*
X305037Y298577D01*
X305629Y298446D01*
X306288Y298380D01*
X307012Y298182D01*
X307802Y297985D01*
X308658Y297787D01*
X309580Y297458D01*
X310633Y297129D01*
X320838Y293574D01*
X320903D01*
X321035Y293508D01*
X321233Y293442D01*
X321562Y293311D01*
X322352Y293047D01*
X323274Y292784D01*
X324327Y292455D01*
X325380Y292191D01*
X326434Y291928D01*
X327290Y291730D01*
X327355D01*
X327619D01*
X328080Y291665D01*
X328606D01*
X329265D01*
X329989D01*
X330779Y291730D01*
X331635Y291862D01*
Y283237D01*
X331569D01*
X331503D01*
X331240D01*
X330976D01*
X330647D01*
X330186D01*
X329660D01*
X329067D01*
X329001D01*
X328936D01*
X328672Y283303D01*
X328343D01*
X328080D01*
X328145Y283172D01*
X328409Y282777D01*
X328804Y282184D01*
X329265Y281460D01*
X329791Y280538D01*
X330384Y279551D01*
X330845Y278497D01*
X331306Y277378D01*
X331371Y277246D01*
X331437Y276851D01*
X331635Y276325D01*
X331832Y275600D01*
X332030Y274679D01*
X332161Y273691D01*
X332293Y272638D01*
X332359Y271584D01*
Y271124D01*
X332293Y270728D01*
Y270333D01*
X332227Y269873D01*
X332030Y268753D01*
X331701Y267568D01*
X331240Y266383D01*
X330582Y265330D01*
X330121Y264803D01*
X329660Y264408D01*
X329528Y264342D01*
X329133Y264145D01*
X328540Y263881D01*
X327751Y263618D01*
X326763Y263421D01*
X325578Y263355D01*
X324195Y263486D01*
X323471Y263618D01*
X322681Y263881D01*
X322549Y263947D01*
X322220Y264079D01*
X321693Y264277D01*
X321035Y264606D01*
X320245Y265001D01*
X319455Y265527D01*
X318599Y266120D01*
X317743Y266844D01*
X317612Y266910D01*
X317348Y267239D01*
X316953Y267634D01*
X316492Y268227D01*
X315966Y268951D01*
X315373Y269807D01*
X314846Y270728D01*
X314386Y271782D01*
Y271848D01*
X314320Y271914D01*
X314188Y272309D01*
X313991Y272901D01*
X313661Y273823D01*
X313332Y274876D01*
X313003Y276193D01*
X312674Y277707D01*
X312345Y279419D01*
Y279485D01*
X312279Y279682D01*
X312213Y280012D01*
X312147Y280472D01*
X312081Y280999D01*
X311950Y281657D01*
X311621Y283040D01*
X311291Y284554D01*
X310962Y286068D01*
X310567Y287451D01*
X310370Y288109D01*
X310172Y288636D01*
X309316Y288965D01*
X309184Y289031D01*
X308921Y289097D01*
X308460Y289163D01*
X307868Y289294D01*
X307275Y289360D01*
X306683Y289294D01*
X306156Y289163D01*
X305695Y288899D01*
X305629Y288834D01*
X305498Y288702D01*
X305366Y288439D01*
X305103Y288044D01*
X304905Y287451D01*
X304773Y286727D01*
X304642Y285739D01*
X304576Y284554D01*
Y284159D01*
X304642Y283764D01*
X304708Y283172D01*
X304839Y282579D01*
X304971Y281921D01*
X305234Y281262D01*
X305564Y280604D01*
X305629Y280538D01*
X305761Y280341D01*
X305958Y280012D01*
X306288Y279551D01*
X306749Y279090D01*
X307341Y278497D01*
X307999Y277905D01*
X308790Y277312D01*
X307341Y270004D01*
X307275Y270070D01*
X307144Y270136D01*
X306880Y270333D01*
X306551Y270531D01*
X306156Y270794D01*
X305695Y271189D01*
X304642Y271979D01*
X303522Y273033D01*
X302337Y274218D01*
X301218Y275600D01*
X300231Y277049D01*
Y277115D01*
X300099Y277246D01*
X300033Y277444D01*
X299836Y277773D01*
X299704Y278168D01*
X299506Y278695D01*
X299243Y279221D01*
X299046Y279880D01*
X298848Y280604D01*
X298585Y281394D01*
X298387Y282250D01*
X298256Y283172D01*
X297992Y285213D01*
X297861Y287517D01*
Y288504D01*
X297926Y288965D01*
Y289492D01*
X298058Y290743D01*
X298190Y292125D01*
X298453Y293442D01*
X298848Y294693D01*
X299046Y295286D01*
X299309Y295746D01*
X299375Y295878D01*
X299572Y296141D01*
X299836Y296537D01*
X300231Y296997D01*
X300757Y297524D01*
X301350Y297985D01*
X302074Y298380D01*
X302798Y298643D01*
X302930D01*
X303193Y298709D01*
X303786D01*
X304115Y298643D01*
D02*
G37*
G36*
X331635Y244657D02*
Y236757D01*
X298585Y234716D01*
Y243867D01*
X315505Y244328D01*
X321101Y244196D01*
X321035Y244262D01*
X320772Y244460D01*
X320377Y244657D01*
X319982Y244986D01*
X318994Y245645D01*
X318599Y245908D01*
X318270Y246105D01*
X318204Y246171D01*
X318007Y246237D01*
X317743Y246435D01*
X317414Y246698D01*
X316492Y247291D01*
X315505Y248015D01*
X298585Y260063D01*
Y269017D01*
X331635Y244657D01*
D02*
G37*
G36*
Y212990D02*
X321298Y212595D01*
Y194226D01*
X331635Y186984D01*
Y177240D01*
X286076Y210422D01*
Y220100D01*
X331635Y222931D01*
Y212990D01*
D02*
G37*
G36*
X311160Y163810D02*
X312345Y163612D01*
X313661Y163283D01*
X315044Y162888D01*
X315110D01*
X315373Y162756D01*
X315768Y162624D01*
X316295Y162427D01*
X316953Y162098D01*
X317677Y161769D01*
X318533Y161308D01*
X319389Y160847D01*
X320377Y160254D01*
X321364Y159596D01*
X322418Y158872D01*
X323471Y158016D01*
X324524Y157094D01*
X325512Y156107D01*
X326500Y155053D01*
X327487Y153868D01*
X327553Y153802D01*
X327685Y153605D01*
X327948Y153210D01*
X328277Y152749D01*
X328606Y152156D01*
X329001Y151432D01*
X329462Y150576D01*
X329923Y149720D01*
X330384Y148667D01*
X330845Y147614D01*
X331240Y146494D01*
X331569Y145244D01*
X331898Y143993D01*
X332161Y142676D01*
X332293Y141359D01*
X332359Y139977D01*
Y139516D01*
X332293Y139187D01*
Y138792D01*
X332227Y138331D01*
X332096Y137277D01*
X331832Y136026D01*
X331503Y134710D01*
X330976Y133327D01*
X330318Y132010D01*
Y131945D01*
X330252Y131879D01*
X329923Y131484D01*
X329462Y130891D01*
X328804Y130233D01*
X327948Y129509D01*
X326895Y128784D01*
X325709Y128192D01*
X324327Y127797D01*
X324261D01*
X324129D01*
X323932Y127731D01*
X323603D01*
X323208Y127665D01*
X322747D01*
X322220D01*
X321628D01*
X320969D01*
X320245Y127731D01*
X318599Y127928D01*
X316690Y128323D01*
X314649Y128916D01*
X314583D01*
X314451Y128982D01*
X314188Y129114D01*
X313925Y129179D01*
X313530Y129377D01*
X313069Y129574D01*
X311950Y130101D01*
X310699Y130825D01*
X309316Y131681D01*
X307802Y132735D01*
X306288Y133920D01*
X306222Y133986D01*
X306090Y134051D01*
X305893Y134249D01*
X305629Y134578D01*
X305300Y134907D01*
X304905Y135302D01*
X303983Y136290D01*
X302996Y137475D01*
X301942Y138923D01*
X300955Y140437D01*
X300033Y142149D01*
Y142215D01*
X299967Y142347D01*
X299836Y142610D01*
X299704Y142939D01*
X299506Y143400D01*
X299375Y143861D01*
X299177Y144453D01*
X298914Y145112D01*
X298519Y146494D01*
X298190Y148140D01*
X297926Y149852D01*
X297861Y151630D01*
Y152354D01*
X297926Y152881D01*
X297992Y153473D01*
X298124Y154197D01*
X298256Y154922D01*
X298453Y155777D01*
X298716Y156633D01*
X299046Y157555D01*
X299441Y158411D01*
X299902Y159267D01*
X300494Y160123D01*
X301152Y160913D01*
X301877Y161637D01*
X302733Y162295D01*
X302798Y162361D01*
X302930Y162427D01*
X303259Y162559D01*
X303588Y162756D01*
X304115Y162954D01*
X304642Y163151D01*
X305366Y163349D01*
X306090Y163546D01*
X306946Y163744D01*
X307868Y163810D01*
X308921Y163875D01*
X309974D01*
X311160Y163810D01*
D02*
G37*
G36*
X294174Y128916D02*
Y120160D01*
X286076Y122925D01*
Y131681D01*
X294174Y128916D01*
D02*
G37*
G36*
X331635Y116209D02*
Y107453D01*
X298585Y118645D01*
Y127402D01*
X331635Y116209D01*
D02*
G37*
G36*
X295490Y109560D02*
X296544Y109428D01*
X297597Y109099D01*
X297663D01*
X297729Y109033D01*
X298124Y108902D01*
X298716Y108638D01*
X299506Y108243D01*
X300428Y107717D01*
X301416Y107058D01*
X302403Y106268D01*
X303457Y105346D01*
X303588Y105215D01*
X303918Y104886D01*
X304378Y104359D01*
X304971Y103635D01*
X305564Y102713D01*
X306288Y101725D01*
X306880Y100606D01*
X307473Y99355D01*
Y99421D01*
X307539Y99553D01*
X307604Y99684D01*
X307670Y99948D01*
X307999Y100606D01*
X308460Y101396D01*
X308987Y102186D01*
X309711Y103042D01*
X310567Y103766D01*
X311621Y104293D01*
X311752Y104359D01*
X312147Y104491D01*
X312740Y104622D01*
X313530Y104754D01*
X314583Y104820D01*
X315702D01*
X317019Y104622D01*
X318468Y104227D01*
X318533D01*
X318599Y104161D01*
X318994Y104030D01*
X319587Y103766D01*
X320377Y103371D01*
X321298Y102910D01*
X322352Y102318D01*
X323405Y101528D01*
X324524Y100672D01*
X324656Y100540D01*
X324985Y100277D01*
X325512Y99750D01*
X326170Y99092D01*
X326960Y98236D01*
X327685Y97314D01*
X328475Y96261D01*
X329199Y95142D01*
Y95076D01*
X329265Y95010D01*
X329462Y94615D01*
X329791Y93957D01*
X330121Y93101D01*
X330516Y92113D01*
X330845Y90928D01*
X331174Y89677D01*
X331371Y88295D01*
Y88031D01*
X331437Y87768D01*
Y87110D01*
X331503Y86583D01*
Y85332D01*
X331569Y84542D01*
Y82567D01*
X331635Y81382D01*
Y61631D01*
X286076Y77102D01*
Y97117D01*
X286142Y98302D01*
X286208Y99553D01*
X286273Y100870D01*
X286405Y102120D01*
X286471Y102647D01*
X286537Y103174D01*
Y103306D01*
X286602Y103569D01*
X286734Y104030D01*
X286932Y104622D01*
X287195Y105281D01*
X287524Y105939D01*
X287919Y106597D01*
X288446Y107256D01*
X288512Y107322D01*
X288709Y107519D01*
X289038Y107782D01*
X289433Y108177D01*
X290026Y108507D01*
X290684Y108902D01*
X291409Y109231D01*
X292264Y109494D01*
X292396D01*
X292659Y109560D01*
X293186Y109626D01*
X293845Y109692D01*
X294635D01*
X295490Y109560D01*
D02*
G37*
G36*
X271297Y250293D02*
X272667D01*
Y249717D01*
X271297D01*
Y248332D01*
X270713D01*
Y249717D01*
X269343D01*
Y250293D01*
X270713D01*
Y251664D01*
X271297D01*
Y250293D01*
D02*
G37*
G36*
X270743Y276591D02*
X272114D01*
Y276015D01*
X270743D01*
Y274630D01*
X270160D01*
Y276015D01*
X268790D01*
Y276591D01*
X270160D01*
Y277962D01*
X270743D01*
Y276591D01*
D02*
G37*
G36*
X-18540Y77990D02*
X-17169D01*
Y77414D01*
X-18540D01*
Y76043D01*
X-19123D01*
Y77414D01*
X-20494D01*
Y77990D01*
X-19123D01*
Y79374D01*
X-18540D01*
Y77990D01*
D02*
G37*
%LPC*%
G36*
X315834Y343346D02*
Y343281D01*
X315966Y343017D01*
X316031Y342556D01*
X316229Y341964D01*
X316427Y341108D01*
X316690Y340121D01*
X316953Y338935D01*
X317217Y337553D01*
Y337355D01*
X317282Y337158D01*
X317348Y336894D01*
X317480Y336236D01*
X317677Y335446D01*
X317875Y334590D01*
X318138Y333669D01*
X318468Y332878D01*
X318731Y332286D01*
X318797Y332220D01*
X318928Y331957D01*
X319192Y331562D01*
X319521Y331167D01*
X319982Y330706D01*
X320508Y330245D01*
X321101Y329850D01*
X321759Y329587D01*
X321825D01*
X322089Y329521D01*
X322418Y329455D01*
X322813Y329389D01*
X323339D01*
X323866Y329455D01*
X324393Y329587D01*
X324920Y329850D01*
X324985Y329916D01*
X325117Y330047D01*
X325314Y330245D01*
X325578Y330574D01*
X325841Y330969D01*
X326039Y331496D01*
X326170Y332154D01*
X326236Y332878D01*
Y333274D01*
X326170Y333800D01*
X326039Y334393D01*
X325841Y335183D01*
X325578Y336039D01*
X325249Y336960D01*
X324722Y337948D01*
X324656Y338014D01*
X324524Y338277D01*
X324261Y338606D01*
X323932Y339067D01*
X323471Y339528D01*
X323010Y340055D01*
X322418Y340516D01*
X321825Y340976D01*
X321759Y341042D01*
X321628Y341108D01*
X321298Y341240D01*
X320903Y341503D01*
X320311Y341701D01*
X319587Y342030D01*
X318665Y342359D01*
X317612Y342754D01*
X315834Y343346D01*
D02*
G37*
G36*
Y286727D02*
Y286661D01*
X315966Y286398D01*
X316031Y285937D01*
X316229Y285344D01*
X316427Y284488D01*
X316690Y283501D01*
X316953Y282316D01*
X317217Y280933D01*
Y280736D01*
X317282Y280538D01*
X317348Y280275D01*
X317480Y279617D01*
X317677Y278826D01*
X317875Y277971D01*
X318138Y277049D01*
X318468Y276259D01*
X318731Y275666D01*
X318797Y275600D01*
X318928Y275337D01*
X319192Y274942D01*
X319521Y274547D01*
X319982Y274086D01*
X320508Y273625D01*
X321101Y273230D01*
X321759Y272967D01*
X321825D01*
X322089Y272901D01*
X322418Y272835D01*
X322813Y272769D01*
X323339D01*
X323866Y272835D01*
X324393Y272967D01*
X324920Y273230D01*
X324985Y273296D01*
X325117Y273428D01*
X325314Y273625D01*
X325578Y273955D01*
X325841Y274349D01*
X326039Y274876D01*
X326170Y275535D01*
X326236Y276259D01*
Y276654D01*
X326170Y277181D01*
X326039Y277773D01*
X325841Y278563D01*
X325578Y279419D01*
X325249Y280341D01*
X324722Y281328D01*
X324656Y281394D01*
X324524Y281657D01*
X324261Y281987D01*
X323932Y282447D01*
X323471Y282908D01*
X323010Y283435D01*
X322418Y283896D01*
X321825Y284357D01*
X321759Y284422D01*
X321628Y284488D01*
X321298Y284620D01*
X320903Y284883D01*
X320311Y285081D01*
X319587Y285410D01*
X318665Y285739D01*
X317612Y286134D01*
X315834Y286727D01*
D02*
G37*
G36*
X313596Y212200D02*
X296675Y211541D01*
X313596Y199691D01*
Y212200D01*
D02*
G37*
G36*
X311160Y154724D02*
X309909D01*
X308658Y154527D01*
X308131Y154395D01*
X307604Y154131D01*
X307473Y154066D01*
X307209Y153868D01*
X306749Y153539D01*
X306288Y153012D01*
X305827Y152354D01*
X305366Y151498D01*
X305103Y150445D01*
X304971Y149260D01*
Y148930D01*
X305037Y148667D01*
X305103Y148009D01*
X305300Y147153D01*
X305629Y146165D01*
X306090Y144980D01*
X306749Y143795D01*
X307604Y142610D01*
Y142544D01*
X307736Y142478D01*
X308065Y142083D01*
X308724Y141491D01*
X309514Y140767D01*
X310567Y139977D01*
X311884Y139187D01*
X313398Y138397D01*
X315110Y137738D01*
X315176D01*
X315307Y137672D01*
X315571Y137606D01*
X315900Y137475D01*
X316361Y137409D01*
X316822Y137277D01*
X317875Y137080D01*
X319126Y136948D01*
X320377Y136882D01*
X321628Y137080D01*
X322154Y137212D01*
X322681Y137475D01*
X322813Y137541D01*
X323076Y137738D01*
X323471Y138133D01*
X323932Y138660D01*
X324459Y139318D01*
X324854Y140174D01*
X325117Y141228D01*
X325249Y142413D01*
Y142742D01*
X325183Y143005D01*
X325117Y143664D01*
X324920Y144519D01*
X324590Y145507D01*
X324195Y146626D01*
X323537Y147811D01*
X322681Y148996D01*
Y149062D01*
X322549Y149128D01*
X322220Y149523D01*
X321562Y150115D01*
X320772Y150840D01*
X319653Y151630D01*
X318402Y152420D01*
X316822Y153210D01*
X315110Y153934D01*
X315044D01*
X314912Y154000D01*
X314649Y154066D01*
X314320Y154197D01*
X313925Y154263D01*
X313398Y154395D01*
X312345Y154592D01*
X311160Y154724D01*
D02*
G37*
G36*
X297071Y100014D02*
X296544D01*
X295951Y99882D01*
X295425Y99684D01*
X295359Y99619D01*
X295227Y99553D01*
X294964Y99355D01*
X294700Y99026D01*
X294437Y98631D01*
X294174Y98170D01*
X293976Y97512D01*
X293845Y96788D01*
Y96722D01*
X293779Y96459D01*
Y95734D01*
X293713Y95339D01*
Y93693D01*
X293647Y92969D01*
Y83752D01*
X304181Y80131D01*
Y89019D01*
X304115Y90138D01*
Y92179D01*
X304049Y92574D01*
Y92969D01*
X303983Y93232D01*
X303918Y93693D01*
X303720Y94286D01*
X303522Y95010D01*
X303259Y95668D01*
X302930Y96393D01*
X302469Y97117D01*
X302403Y97183D01*
X302206Y97380D01*
X301942Y97709D01*
X301482Y98104D01*
X300955Y98499D01*
X300362Y98960D01*
X299638Y99355D01*
X298848Y99684D01*
X298782D01*
X298519Y99816D01*
X298124Y99882D01*
X297597Y99948D01*
X297071Y100014D01*
D02*
G37*
G36*
X316229Y95273D02*
X315702D01*
X315110Y95208D01*
X314517Y95076D01*
X314451D01*
X314254Y94944D01*
X313991Y94813D01*
X313727Y94615D01*
X313332Y94286D01*
X313003Y93957D01*
X312674Y93496D01*
X312411Y92903D01*
Y92837D01*
X312279Y92574D01*
X312213Y92047D01*
X312147Y91718D01*
X312081Y91323D01*
X312015Y90796D01*
X311950Y90270D01*
X311884Y89612D01*
Y88887D01*
X311818Y88031D01*
X311752Y87110D01*
Y77563D01*
X323932Y73416D01*
Y83554D01*
X323866Y84608D01*
Y85661D01*
X323800Y86715D01*
X323734Y87636D01*
Y87965D01*
X323669Y88295D01*
Y88426D01*
X323603Y88690D01*
X323471Y89085D01*
X323339Y89612D01*
X323076Y90270D01*
X322747Y90928D01*
X322352Y91652D01*
X321891Y92311D01*
X321825Y92377D01*
X321628Y92574D01*
X321298Y92903D01*
X320838Y93298D01*
X320311Y93693D01*
X319653Y94154D01*
X318862Y94549D01*
X318007Y94878D01*
X317941D01*
X317677Y95010D01*
X317282Y95076D01*
X316822Y95208D01*
X316229Y95273D01*
D02*
G37*
%LPD*%
D10*
X119600Y546991D02*
G03*
X119600Y546991I-2236J0D01*
G01*
D11*
X25459Y469441D02*
G03*
X25459Y469441I-1000J0D01*
G01*
X257816Y456047D02*
G03*
X257816Y456047I-1000J0D01*
G01*
X-11071Y426811D02*
G03*
X-11071Y426811I-1000J0D01*
G01*
X43534Y473683D02*
X76595D01*
X43534Y497245D02*
X76595D01*
X47538Y418164D02*
X76038D01*
Y353165D02*
Y418164D01*
X47538Y353165D02*
X76038D01*
X47538D02*
Y418164D01*
X289891Y447304D02*
Y511804D01*
X324641Y447304D02*
X331590D01*
X289891D02*
X296841D01*
X331590D02*
Y511804D01*
X324641D02*
X331590D01*
X289891D02*
X296841D01*
X183661Y563167D02*
X188361D01*
X107461D02*
X112161D01*
X107461D02*
Y589916D01*
X188361Y563167D02*
Y589916D01*
X144135Y383151D02*
Y404151D01*
X165135Y383151D02*
Y404151D01*
X239149Y179165D02*
X255148D01*
X239149Y163165D02*
X255148D01*
X230992Y155167D02*
X234492D01*
X230992Y141668D02*
X234492D01*
X230904Y122446D02*
X234405D01*
X230904Y135945D02*
X234405D01*
X239343Y260016D02*
X245343D01*
X239343Y242015D02*
X245343D01*
X238789Y286314D02*
X244789D01*
X238789Y268313D02*
X244789D01*
X-6766Y201558D02*
X26296D01*
X-6766Y177996D02*
X26296D01*
X-7115Y173114D02*
X25947D01*
X-7115Y149552D02*
X25947D01*
X226238Y210977D02*
X259300D01*
X226238Y234538D02*
X259300D01*
X231285Y317708D02*
X264347D01*
X231285Y294146D02*
X264347D01*
X-6565Y141957D02*
X26497D01*
X-6565Y118395D02*
X26497D01*
X-6384Y114449D02*
X26678D01*
X-6384Y90887D02*
X26678D01*
X180810Y90850D02*
Y129310D01*
X78810Y90850D02*
X180810D01*
X78810D02*
Y129310D01*
X180810D01*
X226425Y40996D02*
X227225D01*
X226425Y14096D02*
Y40996D01*
Y14096D02*
X227225D01*
X241625Y40996D02*
X242425D01*
Y14096D02*
Y40996D01*
X241625Y14096D02*
X242425D01*
X6830Y85691D02*
X12830D01*
X6830Y67691D02*
X12830D01*
X-7238Y62421D02*
X25824D01*
X-7238Y38859D02*
X25824D01*
X182052Y371561D02*
X183302D01*
X207802D02*
X209052D01*
Y403561D01*
X182052D02*
X183302D01*
X207802D02*
X209052D01*
X182052Y371561D02*
Y403561D01*
X100920Y202860D02*
Y257860D01*
Y202860D02*
X155920D01*
Y257860D01*
X100920D02*
X155920D01*
X88553Y501411D02*
Y494156D01*
X89036Y492704D01*
X90004Y491737D01*
X91455Y491253D01*
X92422D01*
X93873Y491737D01*
X94841Y492704D01*
X95324Y494156D01*
Y501411D01*
X104902D02*
X100065Y491253D01*
X98130Y501411D02*
X104902D01*
X116893Y462912D02*
Y456563D01*
X117316Y455293D01*
X118163Y454447D01*
X119433Y454024D01*
X120279D01*
X121549Y454447D01*
X122395Y455293D01*
X122818Y456563D01*
Y462912D01*
X127389D02*
X126120Y462488D01*
X125696Y461642D01*
Y460795D01*
X126120Y459949D01*
X126966Y459526D01*
X128659Y459102D01*
X129929Y458679D01*
X130775Y457833D01*
X131199Y456986D01*
Y455716D01*
X130775Y454870D01*
X130352Y454447D01*
X129082Y454024D01*
X127389D01*
X126120Y454447D01*
X125696Y454870D01*
X125273Y455716D01*
Y456986D01*
X125696Y457833D01*
X126543Y458679D01*
X127813Y459102D01*
X129506Y459526D01*
X130352Y459949D01*
X130775Y460795D01*
Y461642D01*
X130352Y462488D01*
X129082Y462912D01*
X127389D01*
X29752Y436526D02*
X28905Y436103D01*
X28059Y435256D01*
X27635Y434410D01*
X27212Y433140D01*
Y431024D01*
X27635Y429754D01*
X28059Y428907D01*
X28905Y428061D01*
X29752Y427638D01*
X31444D01*
X32291Y428061D01*
X33137Y428907D01*
X33561Y429754D01*
X33984Y431024D01*
Y433140D01*
X33561Y434410D01*
X33137Y435256D01*
X32291Y436103D01*
X31444Y436526D01*
X29752D01*
X31021Y429331D02*
X33561Y426791D01*
X36058Y434833D02*
X36904Y435256D01*
X38174Y436526D01*
Y427638D01*
X24717Y529271D02*
X33605D01*
X24717D02*
Y533080D01*
X25140Y534350D01*
X25564Y534773D01*
X26410Y535197D01*
X27257D01*
X28103Y534773D01*
X28526Y534350D01*
X28949Y533080D01*
Y529271D01*
Y532234D02*
X33605Y535197D01*
X26410Y537186D02*
X25987Y538032D01*
X24717Y539302D01*
X33605D01*
X26410Y543704D02*
X25987Y544550D01*
X24717Y545820D01*
X33605D01*
X85392Y422192D02*
Y414936D01*
X85876Y413485D01*
X86843Y412518D01*
X88294Y412034D01*
X89262D01*
X90713Y412518D01*
X91680Y413485D01*
X92164Y414936D01*
Y422192D01*
X95937D02*
X101257D01*
X98355Y418322D01*
X99806D01*
X100774Y417839D01*
X101257Y417355D01*
X101741Y415904D01*
Y414936D01*
X101257Y413485D01*
X100290Y412518D01*
X98839Y412034D01*
X97388D01*
X95937Y412518D01*
X95453Y413001D01*
X94969Y413969D01*
X-24368Y418457D02*
X-25336Y419425D01*
X-26787Y419908D01*
X-28722D01*
X-30173Y419425D01*
X-31140Y418457D01*
Y417490D01*
X-30656Y416522D01*
X-30173Y416039D01*
X-29205Y415555D01*
X-26303Y414588D01*
X-25336Y414104D01*
X-24852Y413620D01*
X-24368Y412653D01*
Y411202D01*
X-25336Y410234D01*
X-26787Y409751D01*
X-28722D01*
X-30173Y410234D01*
X-31140Y411202D01*
X-22095Y419908D02*
X-19676Y409751D01*
X-17258Y419908D02*
X-19676Y409751D01*
X-17258Y419908D02*
X-14839Y409751D01*
X-12421Y419908D02*
X-14839Y409751D01*
X-9905Y417490D02*
Y417974D01*
X-9422Y418941D01*
X-8938Y419425D01*
X-7971Y419908D01*
X-6036D01*
X-5068Y419425D01*
X-4585Y418941D01*
X-4101Y417974D01*
Y417006D01*
X-4585Y416039D01*
X-5552Y414588D01*
X-10389Y409751D01*
X-3617D01*
X191522Y536955D02*
Y526797D01*
Y536955D02*
X195875D01*
X197327Y536471D01*
X197810Y535988D01*
X198294Y535020D01*
Y534053D01*
X197810Y533085D01*
X197327Y532602D01*
X195875Y532118D01*
X191522D01*
X194908D02*
X198294Y526797D01*
X200567Y535020D02*
X201535Y535504D01*
X202986Y536955D01*
Y526797D01*
X213821Y536955D02*
X208984D01*
X208500Y532602D01*
X208984Y533085D01*
X210435Y533569D01*
X211886D01*
X213337Y533085D01*
X214305Y532118D01*
X214788Y530667D01*
Y529700D01*
X214305Y528248D01*
X213337Y527281D01*
X211886Y526797D01*
X210435D01*
X208984Y527281D01*
X208500Y527765D01*
X208016Y528732D01*
X220348Y535946D02*
Y525788D01*
Y535946D02*
X224701D01*
X226152Y535462D01*
X226636Y534978D01*
X227120Y534011D01*
Y533044D01*
X226636Y532076D01*
X226152Y531592D01*
X224701Y531109D01*
X220348D01*
X223734D02*
X227120Y525788D01*
X229393Y534011D02*
X230361Y534495D01*
X231812Y535946D01*
Y525788D01*
X237810Y535946D02*
X243130D01*
X240228Y532076D01*
X241679D01*
X242647Y531592D01*
X243130Y531109D01*
X243614Y529658D01*
Y528690D01*
X243130Y527239D01*
X242163Y526272D01*
X240712Y525788D01*
X239261D01*
X237810Y526272D01*
X237326Y526755D01*
X236842Y527723D01*
X164333Y491750D02*
X155444D01*
X164333D02*
Y487941D01*
X163909Y486671D01*
X163486Y486248D01*
X162640Y485825D01*
X161793D01*
X160947Y486248D01*
X160523Y486671D01*
X160100Y487941D01*
Y491750D01*
Y488788D02*
X155444Y485825D01*
X162640Y483836D02*
X163063Y482989D01*
X164333Y481720D01*
X155444D01*
X162216Y476894D02*
X162640D01*
X163486Y476471D01*
X163909Y476048D01*
X164333Y475202D01*
Y473509D01*
X163909Y472662D01*
X163486Y472239D01*
X162640Y471816D01*
X161793D01*
X160947Y472239D01*
X159677Y473085D01*
X155444Y477318D01*
Y471392D01*
X24305Y503708D02*
X33193D01*
X24305D02*
Y507517D01*
X24728Y508787D01*
X25151Y509210D01*
X25998Y509633D01*
X26844D01*
X27691Y509210D01*
X28114Y508787D01*
X28537Y507517D01*
Y503708D01*
Y506670D02*
X33193Y509633D01*
X25998Y511622D02*
X25575Y512469D01*
X24305Y513739D01*
X33193D01*
X24305Y520680D02*
X24728Y519410D01*
X25998Y518563D01*
X28114Y518140D01*
X29384D01*
X31500Y518563D01*
X32770Y519410D01*
X33193Y520680D01*
Y521526D01*
X32770Y522796D01*
X31500Y523642D01*
X29384Y524066D01*
X28114D01*
X25998Y523642D01*
X24728Y522796D01*
X24305Y521526D01*
Y520680D01*
X270103Y444709D02*
X261215D01*
Y439630D01*
X270103Y438657D02*
X261215D01*
X270103D02*
Y435694D01*
X269680Y434424D01*
X268833Y433578D01*
X267987Y433154D01*
X266717Y432731D01*
X264601D01*
X263331Y433154D01*
X262485Y433578D01*
X261638Y434424D01*
X261215Y435694D01*
Y438657D01*
X268833Y425663D02*
X269680Y426086D01*
X270103Y427356D01*
Y428203D01*
X269680Y429472D01*
X268410Y430319D01*
X266294Y430742D01*
X264178D01*
X262485Y430319D01*
X261638Y429472D01*
X261215Y428203D01*
Y427779D01*
X261638Y426510D01*
X262485Y425663D01*
X263754Y425240D01*
X264178D01*
X265447Y425663D01*
X266294Y426510D01*
X266717Y427779D01*
Y428203D01*
X266294Y429472D01*
X265447Y430319D01*
X264178Y430742D01*
X225692Y478553D02*
Y469664D01*
X230771D01*
X231744Y478553D02*
Y469664D01*
Y478553D02*
X234707D01*
X235977Y478129D01*
X236823Y477283D01*
X237246Y476436D01*
X237670Y475167D01*
Y473050D01*
X237246Y471781D01*
X236823Y470934D01*
X235977Y470088D01*
X234707Y469664D01*
X231744D01*
X244738Y478553D02*
X240505D01*
X240082Y474743D01*
X240505Y475167D01*
X241775Y475590D01*
X243045D01*
X244314Y475167D01*
X245161Y474320D01*
X245584Y473050D01*
Y472204D01*
X245161Y470934D01*
X244314Y470088D01*
X243045Y469664D01*
X241775D01*
X240505Y470088D01*
X240082Y470511D01*
X239659Y471357D01*
X88942Y569412D02*
Y561672D01*
X88459Y560221D01*
X87975Y559738D01*
X87008Y559254D01*
X86040D01*
X85073Y559738D01*
X84589Y560221D01*
X84105Y561672D01*
Y562640D01*
X97359Y569412D02*
X92522D01*
X92038Y565058D01*
X92522Y565542D01*
X93973Y566026D01*
X95424D01*
X96875Y565542D01*
X97843Y564575D01*
X98326Y563124D01*
Y562156D01*
X97843Y560705D01*
X96875Y559738D01*
X95424Y559254D01*
X93973D01*
X92522Y559738D01*
X92038Y560221D01*
X91554Y561189D01*
X189544Y479891D02*
X189121Y480738D01*
X188275Y481584D01*
X187428Y482007D01*
X185735D01*
X184889Y481584D01*
X184042Y480738D01*
X183619Y479891D01*
X183196Y478622D01*
Y476505D01*
X183619Y475236D01*
X184042Y474389D01*
X184889Y473543D01*
X185735Y473119D01*
X187428D01*
X188275Y473543D01*
X189121Y474389D01*
X189544Y475236D01*
X192465Y479891D02*
Y480315D01*
X192888Y481161D01*
X193311Y481584D01*
X194158Y482007D01*
X195851D01*
X196697Y481584D01*
X197120Y481161D01*
X197544Y480315D01*
Y479468D01*
X197120Y478622D01*
X196274Y477352D01*
X192041Y473119D01*
X197967D01*
X205035Y482007D02*
X200803D01*
X200379Y478198D01*
X200803Y478622D01*
X202072Y479045D01*
X203342D01*
X204612Y478622D01*
X205458Y477775D01*
X205882Y476505D01*
Y475659D01*
X205458Y474389D01*
X204612Y473543D01*
X203342Y473119D01*
X202072D01*
X200803Y473543D01*
X200379Y473966D01*
X199956Y474812D01*
X24978Y481400D02*
X24131Y480977D01*
X23285Y480131D01*
X22862Y479284D01*
Y477591D01*
X23285Y476745D01*
X24131Y475898D01*
X24978Y475475D01*
X26248Y475052D01*
X28364D01*
X29634Y475475D01*
X30480Y475898D01*
X31326Y476745D01*
X31750Y477591D01*
Y479284D01*
X31326Y480131D01*
X30480Y480977D01*
X29634Y481400D01*
X24978Y484321D02*
X24555D01*
X23708Y484744D01*
X23285Y485167D01*
X22862Y486014D01*
Y487707D01*
X23285Y488553D01*
X23708Y488976D01*
X24555Y489400D01*
X25401D01*
X26248Y488976D01*
X27517Y488130D01*
X31750Y483897D01*
Y489823D01*
X22862Y496045D02*
X28787Y491812D01*
Y498161D01*
X22862Y496045D02*
X31750D01*
X66248Y167975D02*
Y160719D01*
X66732Y159268D01*
X67699Y158301D01*
X69150Y157817D01*
X70117D01*
X71568Y158301D01*
X72536Y159268D01*
X73020Y160719D01*
Y167975D01*
X76309Y165556D02*
Y166040D01*
X76793Y167007D01*
X77276Y167491D01*
X78244Y167975D01*
X80178D01*
X81146Y167491D01*
X81630Y167007D01*
X82113Y166040D01*
Y165072D01*
X81630Y164105D01*
X80662Y162654D01*
X75825Y157817D01*
X82597D01*
X214225Y63882D02*
Y53724D01*
Y63882D02*
X217611D01*
X219062Y63398D01*
X220030Y62431D01*
X220514Y61464D01*
X220997Y60012D01*
Y57594D01*
X220514Y56143D01*
X220030Y55175D01*
X219062Y54208D01*
X217611Y53724D01*
X214225D01*
X223271Y61947D02*
X224238Y62431D01*
X225689Y63882D01*
Y53724D01*
X-20166Y219226D02*
X-16296Y214389D01*
Y209068D01*
X-12427Y219226D02*
X-16296Y214389D01*
X-11121Y217291D02*
X-10153Y217775D01*
X-8702Y219226D01*
Y209068D01*
X81257Y191779D02*
Y184524D01*
X81741Y183073D01*
X82708Y182105D01*
X84159Y181622D01*
X85126D01*
X86578Y182105D01*
X87545Y183073D01*
X88029Y184524D01*
Y191779D01*
X90834Y189845D02*
X91802Y190328D01*
X93253Y191779D01*
Y181622D01*
X225121Y395322D02*
X226088Y396289D01*
X226572Y397740D01*
Y399675D01*
X226088Y401126D01*
X225121Y402094D01*
X224153D01*
X223186Y401610D01*
X222702Y401126D01*
X222218Y400159D01*
X221251Y397257D01*
X220767Y396289D01*
X220284Y395806D01*
X219316Y395322D01*
X217865D01*
X216898Y396289D01*
X216414Y397740D01*
Y399675D01*
X216898Y401126D01*
X217865Y402094D01*
X226572Y393048D02*
X216414Y390630D01*
X226572Y388211D02*
X216414Y390630D01*
X226572Y388211D02*
X216414Y385793D01*
X226572Y383374D02*
X216414Y385793D01*
X224637Y381343D02*
X225121Y380375D01*
X226572Y378924D01*
X216414D01*
X203185Y78021D02*
X213342D01*
X203185D02*
Y82374D01*
X203668Y83826D01*
X204152Y84309D01*
X205119Y84793D01*
X206087D01*
X207054Y84309D01*
X207538Y83826D01*
X208022Y82374D01*
Y78021D01*
Y81407D02*
X213342Y84793D01*
X203185Y91903D02*
X209956Y87066D01*
Y94322D01*
X203185Y91903D02*
X213342D01*
X259067Y97523D02*
X269224D01*
X259067D02*
Y101876D01*
X259550Y103328D01*
X260034Y103811D01*
X261001Y104295D01*
X261969D01*
X262936Y103811D01*
X263420Y103328D01*
X263904Y101876D01*
Y97523D01*
Y100909D02*
X269224Y104295D01*
X259067Y107536D02*
Y112857D01*
X262936Y109954D01*
Y111405D01*
X263420Y112373D01*
X263904Y112857D01*
X265355Y113340D01*
X266322D01*
X267773Y112857D01*
X268741Y111889D01*
X269224Y110438D01*
Y108987D01*
X268741Y107536D01*
X268257Y107052D01*
X267290Y106568D01*
X211028Y182993D02*
X221185D01*
X211028D02*
Y187347D01*
X211511Y188798D01*
X211995Y189282D01*
X212962Y189765D01*
X213930D01*
X214897Y189282D01*
X215381Y188798D01*
X215865Y187347D01*
Y182993D01*
Y186379D02*
X221185Y189765D01*
X213446Y192522D02*
X212962D01*
X211995Y193006D01*
X211511Y193490D01*
X211028Y194457D01*
Y196392D01*
X211511Y197359D01*
X211995Y197843D01*
X212962Y198327D01*
X213930D01*
X214897Y197843D01*
X216348Y196876D01*
X221185Y192039D01*
Y198811D01*
X116989Y423587D02*
Y413429D01*
Y423587D02*
X121342D01*
X122793Y423103D01*
X123277Y422619D01*
X123761Y421652D01*
Y420684D01*
X123277Y419717D01*
X122793Y419233D01*
X121342Y418750D01*
X116989D01*
X120375D02*
X123761Y413429D01*
X126034Y421652D02*
X127001Y422135D01*
X128453Y423587D01*
Y413429D01*
X128495Y362088D02*
Y351930D01*
Y362088D02*
X132848D01*
X134299Y361604D01*
X134783Y361120D01*
X135267Y360153D01*
Y359185D01*
X134783Y358218D01*
X134299Y357734D01*
X132848Y357251D01*
X128495D01*
X131881D02*
X135267Y351930D01*
X144312Y362088D02*
X139475Y351930D01*
X137540Y362088D02*
X144312D01*
X40381Y326007D02*
X50539D01*
X40381D02*
Y330361D01*
X40865Y331812D01*
X41349Y332296D01*
X42316Y332779D01*
X43283D01*
X44251Y332296D01*
X44734Y331812D01*
X45218Y330361D01*
Y326007D01*
Y329393D02*
X50539Y332779D01*
X41832Y340857D02*
X40865Y340373D01*
X40381Y338922D01*
Y337955D01*
X40865Y336504D01*
X42316Y335536D01*
X44734Y335053D01*
X47153D01*
X49088Y335536D01*
X50055Y336504D01*
X50539Y337955D01*
Y338439D01*
X50055Y339890D01*
X49088Y340857D01*
X47637Y341341D01*
X47153D01*
X45702Y340857D01*
X44734Y339890D01*
X44251Y338439D01*
Y337955D01*
X44734Y336504D01*
X45702Y335536D01*
X47153Y335053D01*
X105554Y362545D02*
Y352387D01*
Y362545D02*
X109908D01*
X111359Y362062D01*
X111842Y361578D01*
X112326Y360610D01*
Y359643D01*
X111842Y358676D01*
X111359Y358192D01*
X109908Y357708D01*
X105554D01*
X108940D02*
X112326Y352387D01*
X120404Y362545D02*
X115567D01*
X115083Y358192D01*
X115567Y358676D01*
X117018Y359159D01*
X118469D01*
X119920Y358676D01*
X120888Y357708D01*
X121371Y356257D01*
Y355290D01*
X120888Y353839D01*
X119920Y352871D01*
X118469Y352387D01*
X117018D01*
X115567Y352871D01*
X115083Y353355D01*
X114600Y354322D01*
X165713Y421472D02*
Y412584D01*
X170792D01*
X171765Y421472D02*
Y412584D01*
Y421472D02*
X174728D01*
X175997Y421049D01*
X176844Y420202D01*
X177267Y419356D01*
X177690Y418086D01*
Y415970D01*
X177267Y414700D01*
X176844Y413853D01*
X175997Y413007D01*
X174728Y412584D01*
X171765D01*
X183912Y421472D02*
X179680Y415546D01*
X186028D01*
X183912Y421472D02*
Y412584D01*
X257135Y140015D02*
X266023D01*
Y145094D01*
X257135Y146067D02*
X266023D01*
X257135D02*
Y149030D01*
X257558Y150300D01*
X258405Y151146D01*
X259251Y151569D01*
X260521Y151993D01*
X262637D01*
X263907Y151569D01*
X264753Y151146D01*
X265600Y150300D01*
X266023Y149030D01*
Y146067D01*
X259251Y154405D02*
X258828D01*
X257981Y154828D01*
X257558Y155252D01*
X257135Y156098D01*
Y157791D01*
X257558Y158638D01*
X257981Y159061D01*
X258828Y159484D01*
X259674D01*
X260521Y159061D01*
X261791Y158214D01*
X266023Y153982D01*
Y159907D01*
X69996Y47489D02*
Y39749D01*
X69513Y38298D01*
X69029Y37815D01*
X68061Y37331D01*
X67094D01*
X66126Y37815D01*
X65643Y38298D01*
X65159Y39749D01*
Y40717D01*
X77445Y47489D02*
X72608Y40717D01*
X79864D01*
X77445Y47489D02*
Y37331D01*
X-30009Y48282D02*
X-30977Y47799D01*
X-31944Y46831D01*
X-32428Y45864D01*
Y43929D01*
X-31944Y42961D01*
X-30977Y41994D01*
X-30009Y41510D01*
X-28558Y41027D01*
X-26140D01*
X-24688Y41510D01*
X-23721Y41994D01*
X-22754Y42961D01*
X-22270Y43929D01*
Y45864D01*
X-22754Y46831D01*
X-23721Y47799D01*
X-24688Y48282D01*
X-29042Y57424D02*
X-27591Y56940D01*
X-26623Y55973D01*
X-26140Y54522D01*
Y54038D01*
X-26623Y52587D01*
X-27591Y51620D01*
X-29042Y51136D01*
X-29525D01*
X-30977Y51620D01*
X-31944Y52587D01*
X-32428Y54038D01*
Y54522D01*
X-31944Y55973D01*
X-30977Y56940D01*
X-29042Y57424D01*
X-26623D01*
X-24205Y56940D01*
X-22754Y55973D01*
X-22270Y54522D01*
Y53555D01*
X-22754Y52104D01*
X-23721Y51620D01*
X204983Y249489D02*
X204016Y249005D01*
X203049Y248038D01*
X202565Y247070D01*
Y245135D01*
X203049Y244168D01*
X204016Y243201D01*
X204983Y242717D01*
X206434Y242233D01*
X208853D01*
X210304Y242717D01*
X211272Y243201D01*
X212239Y244168D01*
X212723Y245135D01*
Y247070D01*
X212239Y248038D01*
X211272Y249005D01*
X210304Y249489D01*
X202565Y254761D02*
X203049Y253310D01*
X204016Y252826D01*
X204983D01*
X205951Y253310D01*
X206434Y254277D01*
X206918Y256212D01*
X207402Y257663D01*
X208369Y258631D01*
X209337Y259114D01*
X210788D01*
X211755Y258631D01*
X212239Y258147D01*
X212723Y256696D01*
Y254761D01*
X212239Y253310D01*
X211755Y252826D01*
X210788Y252343D01*
X209337D01*
X208369Y252826D01*
X207402Y253794D01*
X206918Y255245D01*
X206434Y257180D01*
X205951Y258147D01*
X204983Y258631D01*
X204016D01*
X203049Y258147D01*
X202565Y256696D01*
Y254761D01*
X-30207Y128409D02*
X-31175Y127925D01*
X-32142Y126958D01*
X-32626Y125990D01*
Y124056D01*
X-32142Y123088D01*
X-31175Y122121D01*
X-30207Y121637D01*
X-28756Y121153D01*
X-26338D01*
X-24887Y121637D01*
X-23919Y122121D01*
X-22952Y123088D01*
X-22468Y124056D01*
Y125990D01*
X-22952Y126958D01*
X-23919Y127925D01*
X-24887Y128409D01*
X-32626Y138035D02*
X-22468Y133198D01*
X-32626Y131263D02*
Y138035D01*
X-23451Y190358D02*
X-24419Y189874D01*
X-25386Y188906D01*
X-25870Y187939D01*
Y186004D01*
X-25386Y185037D01*
X-24419Y184069D01*
X-23451Y183586D01*
X-22000Y183102D01*
X-19582D01*
X-18131Y183586D01*
X-17163Y184069D01*
X-16196Y185037D01*
X-15712Y186004D01*
Y187939D01*
X-16196Y188906D01*
X-17163Y189874D01*
X-18131Y190358D01*
X-24419Y199016D02*
X-25386Y198532D01*
X-25870Y197081D01*
Y196114D01*
X-25386Y194663D01*
X-23935Y193695D01*
X-21517Y193211D01*
X-19098D01*
X-17163Y193695D01*
X-16196Y194663D01*
X-15712Y196114D01*
Y196597D01*
X-16196Y198048D01*
X-17163Y199016D01*
X-18614Y199500D01*
X-19098D01*
X-20549Y199016D01*
X-21517Y198048D01*
X-22000Y196597D01*
Y196114D01*
X-21517Y194663D01*
X-20549Y193695D01*
X-19098Y193211D01*
X-23173Y163318D02*
X-24141Y162834D01*
X-25108Y161867D01*
X-25592Y160900D01*
Y158965D01*
X-25108Y157997D01*
X-24141Y157030D01*
X-23173Y156546D01*
X-21722Y156062D01*
X-19303D01*
X-17852Y156546D01*
X-16885Y157030D01*
X-15918Y157997D01*
X-15434Y158965D01*
Y160900D01*
X-15918Y161867D01*
X-16885Y162834D01*
X-17852Y163318D01*
X-25592Y171976D02*
Y167139D01*
X-21238Y166656D01*
X-21722Y167139D01*
X-22206Y168590D01*
Y170042D01*
X-21722Y171493D01*
X-20755Y172460D01*
X-19303Y172944D01*
X-18336D01*
X-16885Y172460D01*
X-15918Y171493D01*
X-15434Y170042D01*
Y168590D01*
X-15918Y167139D01*
X-16401Y166656D01*
X-17369Y166172D01*
X-30485Y102888D02*
X-31453Y102404D01*
X-32420Y101437D01*
X-32904Y100469D01*
Y98534D01*
X-32420Y97567D01*
X-31453Y96599D01*
X-30485Y96116D01*
X-29034Y95632D01*
X-26616D01*
X-25165Y96116D01*
X-24197Y96599D01*
X-23230Y97567D01*
X-22746Y98534D01*
Y100469D01*
X-23230Y101437D01*
X-24197Y102404D01*
X-25165Y102888D01*
X-32904Y110578D02*
X-26132Y105742D01*
Y112997D01*
X-32904Y110578D02*
X-22746D01*
X214216Y304112D02*
X213248Y303629D01*
X212281Y302661D01*
X211797Y301694D01*
Y299759D01*
X212281Y298792D01*
X213248Y297824D01*
X214216Y297341D01*
X215667Y296857D01*
X218085D01*
X219536Y297341D01*
X220504Y297824D01*
X221471Y298792D01*
X221955Y299759D01*
Y301694D01*
X221471Y302661D01*
X220504Y303629D01*
X219536Y304112D01*
X211797Y307934D02*
Y313255D01*
X215667Y310352D01*
Y311803D01*
X216150Y312771D01*
X216634Y313255D01*
X218085Y313738D01*
X219053D01*
X220504Y313255D01*
X221471Y312287D01*
X221955Y310836D01*
Y309385D01*
X221471Y307934D01*
X220987Y307450D01*
X220020Y306966D01*
X203060Y275647D02*
X202093Y275163D01*
X201125Y274196D01*
X200642Y273228D01*
Y271293D01*
X201125Y270326D01*
X202093Y269359D01*
X203060Y268875D01*
X204511Y268391D01*
X206930D01*
X208381Y268875D01*
X209348Y269359D01*
X210316Y270326D01*
X210799Y271293D01*
Y273228D01*
X210316Y274196D01*
X209348Y275163D01*
X208381Y275647D01*
X203060Y278984D02*
X202576D01*
X201609Y279468D01*
X201125Y279952D01*
X200642Y280919D01*
Y282854D01*
X201125Y283821D01*
X201609Y284305D01*
X202576Y284789D01*
X203544D01*
X204511Y284305D01*
X205962Y283338D01*
X210799Y278501D01*
Y285273D01*
X211521Y221795D02*
X210553Y221311D01*
X209586Y220343D01*
X209102Y219376D01*
Y217441D01*
X209586Y216474D01*
X210553Y215506D01*
X211521Y215023D01*
X212972Y214539D01*
X215390D01*
X216841Y215023D01*
X217809Y215506D01*
X218776Y216474D01*
X219260Y217441D01*
Y219376D01*
X218776Y220343D01*
X217809Y221311D01*
X216841Y221795D01*
X211037Y224648D02*
X210553Y225616D01*
X209102Y227067D01*
X219260D01*
D12*
X15538Y408664D02*
G03*
X15538Y408664I-1250J0D01*
G01*
X305641Y427604D02*
G03*
X305641Y427604I-1250J0D01*
G01*
X162411Y558167D02*
G03*
X162411Y558167I-1250J0D01*
G01*
X155885Y415901D02*
G03*
X155885Y415901I-1250J0D01*
G01*
X230399Y171164D02*
G03*
X230399Y171164I-1250J0D01*
G01*
X209742Y148418D02*
G03*
X209742Y148418I-1250J0D01*
G01*
X209904Y129195D02*
G03*
X209904Y129195I-1250J0D01*
G01*
X173310Y160129D02*
G03*
X173310Y160129I-1250J0D01*
G01*
X244786Y50040D02*
G03*
X244786Y50040I-1250J0D01*
G01*
X87917Y266360D02*
G03*
X87917Y266360I-1250J0D01*
G01*
D13*
X-4727Y237605D02*
G03*
X42273Y237605I23500J0D01*
G01*
Y301206D02*
G03*
X-4727Y301206I-23500J0D01*
G01*
X114062Y551991D02*
X152162D01*
X114062Y507991D02*
Y551991D01*
Y507991D02*
X152162D01*
Y551991D01*
X46359Y440541D02*
X91359D01*
X46359Y470841D02*
X91359D01*
X54898Y542340D02*
X68298D01*
X54898Y525340D02*
X68298D01*
X235966Y451547D02*
X237666D01*
X235966Y460547D02*
X237666D01*
X215426Y494862D02*
Y514862D01*
X197626Y494862D02*
Y514862D01*
X236168Y494942D02*
Y514942D01*
X218368Y494942D02*
Y514942D01*
X123504Y489830D02*
X136904D01*
X123504Y472830D02*
X136904D01*
X51118Y519779D02*
X71118D01*
X51118Y501979D02*
X71118D01*
X126710Y323094D02*
Y343094D01*
X144510Y323094D02*
Y343094D01*
X77447Y321951D02*
Y341951D01*
X59647Y321951D02*
Y341951D01*
X108381Y321956D02*
Y341956D01*
X90581Y321956D02*
Y341956D01*
X232644Y79865D02*
X236044D01*
X232644Y93465D02*
X236044D01*
X233517Y100933D02*
X236917D01*
X233517Y114533D02*
X236917D01*
X244466Y197623D02*
X247866D01*
X244466Y184023D02*
X247866D01*
X118406Y391142D02*
Y394542D01*
X132007Y391142D02*
Y394542D01*
X1429Y442312D02*
X9929D01*
Y528312D01*
X2429D02*
X9929D01*
X-33071D02*
X-25571D01*
X-33071Y442312D02*
Y528312D01*
Y442312D02*
X-25571D01*
X202843Y440344D02*
Y450744D01*
X184843Y440344D02*
Y450744D01*
X-4727Y237606D02*
Y301206D01*
X42273Y237606D02*
Y301206D01*
D14*
X175810Y121810D02*
G03*
X175810Y121810I-2500J0D01*
G01*
X111920Y249360D02*
G03*
X111920Y249360I-2500J0D01*
G01*
X115863Y-51811D02*
X180863D01*
X115863D02*
Y50690D01*
X180863D01*
Y-51811D02*
Y50690D01*
D15*
X140289Y462944D02*
X167264D01*
X140289Y431448D02*
X167264Y431296D01*
X258789Y610856D02*
X255041D01*
X254666Y607482D01*
X255041Y607857D01*
X256165Y608232D01*
X257290D01*
X258414Y607857D01*
X259164Y607108D01*
X259539Y605983D01*
Y605233D01*
X259164Y604109D01*
X258414Y603359D01*
X257290Y602984D01*
X256165D01*
X255041Y603359D01*
X254666Y603734D01*
X254291Y604484D01*
X261301Y610856D02*
X264300Y602984D01*
X267299Y610856D02*
X264300Y602984D01*
X228959Y608754D02*
X228584Y609504D01*
X227835Y610254D01*
X227085Y610629D01*
X225585D01*
X224836Y610254D01*
X224086Y609504D01*
X223711Y608754D01*
X223336Y607630D01*
Y605756D01*
X223711Y604631D01*
X224086Y603881D01*
X224836Y603131D01*
X225585Y602757D01*
X227085D01*
X227835Y603131D01*
X228584Y603881D01*
X228959Y604631D01*
Y605756D01*
X227085D02*
X228959D01*
X230759Y610629D02*
Y602757D01*
Y610629D02*
X236007Y602757D01*
Y610629D02*
Y602757D01*
X238181Y610629D02*
Y602757D01*
Y610629D02*
X240805D01*
X241930Y610254D01*
X242680Y609504D01*
X243054Y608754D01*
X243429Y607630D01*
Y605756D01*
X243054Y604631D01*
X242680Y603881D01*
X241930Y603131D01*
X240805Y602757D01*
X238181D01*
X198147Y610911D02*
X202271D01*
X200021Y607912D01*
X201146D01*
X201896Y607537D01*
X202271Y607162D01*
X202646Y606037D01*
Y605288D01*
X202271Y604163D01*
X201521Y603413D01*
X200396Y603038D01*
X199272D01*
X198147Y603413D01*
X197772Y603788D01*
X197397Y604538D01*
X204408Y610911D02*
X207406Y603038D01*
X210405Y610911D02*
X207406Y603038D01*
X212167Y610911D02*
X216291D01*
X214042Y607912D01*
X215166D01*
X215916Y607537D01*
X216291Y607162D01*
X216666Y606037D01*
Y605288D01*
X216291Y604163D01*
X215541Y603413D01*
X214417Y603038D01*
X213292D01*
X212167Y603413D01*
X211792Y603788D01*
X211418Y604538D01*
X38853Y611450D02*
Y604086D01*
Y611450D02*
X42009D01*
X43061Y611100D01*
X43412Y610749D01*
X43762Y610048D01*
Y609346D01*
X43412Y608645D01*
X43061Y608294D01*
X42009Y607943D01*
X38853D02*
X42009D01*
X43061Y607593D01*
X43412Y607242D01*
X43762Y606541D01*
Y605489D01*
X43412Y604787D01*
X43061Y604437D01*
X42009Y604086D01*
X38853D01*
X51022D02*
X48216Y611450D01*
X45411Y604086D01*
X46463Y606541D02*
X49970D01*
X55195Y611450D02*
Y604086D01*
X52740Y611450D02*
X57650D01*
X61683Y610398D02*
Y604086D01*
X58526Y607242D02*
X64839D01*
X70290Y611448D02*
Y604083D01*
Y611448D02*
X73446D01*
X74498Y611097D01*
X74849Y610746D01*
X75200Y610045D01*
Y609344D01*
X74849Y608642D01*
X74498Y608292D01*
X73446Y607941D01*
X70290D02*
X73446D01*
X74498Y607590D01*
X74849Y607240D01*
X75200Y606538D01*
Y605486D01*
X74849Y604785D01*
X74498Y604434D01*
X73446Y604083D01*
X70290D01*
X82459D02*
X79654Y611448D01*
X76848Y604083D01*
X77900Y606538D02*
X81407D01*
X86632Y611448D02*
Y604083D01*
X84177Y611448D02*
X89087D01*
X89964Y607240D02*
X96276D01*
D16*
X312009Y418396D02*
X311041Y419364D01*
X309590Y419848D01*
X307655D01*
X306204Y419364D01*
X305237Y418396D01*
Y417429D01*
X305721Y416462D01*
X306204Y415978D01*
X307172Y415494D01*
X310074Y414527D01*
X311041Y414043D01*
X311525Y413559D01*
X312009Y412592D01*
Y411141D01*
X311041Y410173D01*
X309590Y409690D01*
X307655D01*
X306204Y410173D01*
X305237Y411141D01*
X314282Y419848D02*
X316701Y409690D01*
X319119Y419848D02*
X316701Y409690D01*
X319119Y419848D02*
X321538Y409690D01*
X323956Y419848D02*
X321538Y409690D01*
X326955Y419848D02*
X332276D01*
X329374Y415978D01*
X330825D01*
X331792Y415494D01*
X332276Y415011D01*
X332760Y413559D01*
Y412592D01*
X332276Y411141D01*
X331309Y410173D01*
X329857Y409690D01*
X328406D01*
X326955Y410173D01*
X326472Y410657D01*
X325988Y411625D01*
D17*
X211692Y542610D02*
X217109D01*
X219817Y545318D01*
X217109Y548027D01*
X211692D01*
Y550735D02*
X219817D01*
Y554798D01*
X218463Y556152D01*
X217109D01*
X215755Y554798D01*
Y550735D01*
Y554798D01*
X214401Y556152D01*
X213046D01*
X211692Y554798D01*
Y550735D01*
Y558861D02*
X218463D01*
X219817Y560215D01*
Y562924D01*
X218463Y564278D01*
X211692D01*
X213046Y572403D02*
X211692Y571049D01*
Y568340D01*
X213046Y566986D01*
X214401D01*
X215755Y568340D01*
Y571049D01*
X217109Y572403D01*
X218463D01*
X219817Y571049D01*
Y568340D01*
X218463Y566986D01*
X-7990Y304133D02*
X-18148Y300263D01*
X-7990Y296393D02*
X-18148Y300263D01*
X-10409Y287832D02*
X-9441Y288316D01*
X-8474Y289283D01*
X-7990Y290250D01*
Y292185D01*
X-8474Y293153D01*
X-9441Y294120D01*
X-10409Y294604D01*
X-11860Y295087D01*
X-14278D01*
X-15730Y294604D01*
X-16697Y294120D01*
X-17664Y293153D01*
X-18148Y292185D01*
Y290250D01*
X-17664Y289283D01*
X-16697Y288316D01*
X-15730Y287832D01*
X-10409Y277722D02*
X-9441Y278206D01*
X-8474Y279174D01*
X-7990Y280141D01*
Y282076D01*
X-8474Y283043D01*
X-9441Y284011D01*
X-10409Y284494D01*
X-11860Y284978D01*
X-14278D01*
X-15730Y284494D01*
X-16697Y284011D01*
X-17664Y283043D01*
X-18148Y282076D01*
Y280141D01*
X-17664Y279174D01*
X-16697Y278206D01*
X-15730Y277722D01*
X-11306Y257192D02*
X-10338Y257676D01*
X-9371Y258643D01*
X-8887Y259611D01*
Y261546D01*
X-9371Y262513D01*
X-10338Y263480D01*
X-11306Y263964D01*
X-12757Y264448D01*
X-15175D01*
X-16626Y263964D01*
X-17594Y263480D01*
X-18561Y262513D01*
X-19045Y261546D01*
Y259611D01*
X-18561Y258643D01*
X-17594Y257676D01*
X-16626Y257192D01*
X-15175D01*
Y259611D02*
Y257192D01*
X-8887Y254870D02*
X-19045D01*
X-8887D02*
X-19045Y248099D01*
X-8887D02*
X-19045D01*
X-8887Y245293D02*
X-19045D01*
X-8887D02*
Y241907D01*
X-9371Y240456D01*
X-10338Y239489D01*
X-11306Y239005D01*
X-12757Y238521D01*
X-15175D01*
X-16626Y239005D01*
X-17594Y239489D01*
X-18561Y240456D01*
X-19045Y241907D01*
Y245293D01*
X-30280Y362719D02*
X-35117D01*
X-35601Y358366D01*
X-35117Y358850D01*
X-33666Y359333D01*
X-32215D01*
X-30764Y358850D01*
X-29797Y357882D01*
X-29313Y356431D01*
Y355464D01*
X-29797Y354013D01*
X-30764Y353045D01*
X-32215Y352562D01*
X-33666D01*
X-35117Y353045D01*
X-35601Y353529D01*
X-36085Y354496D01*
X-27039Y362719D02*
X-23170Y352562D01*
X-19300Y362719D02*
X-23170Y352562D01*
X-6869Y338590D02*
Y333269D01*
X-10739Y336172D01*
Y334721D01*
X-11222Y333753D01*
X-11706Y333269D01*
X-13157Y332786D01*
X-14125D01*
X-15576Y333269D01*
X-16543Y334237D01*
X-17027Y335688D01*
Y337139D01*
X-16543Y338590D01*
X-16059Y339074D01*
X-15092Y339558D01*
X-6869Y330512D02*
X-17027Y326643D01*
X-6869Y322773D02*
X-17027Y326643D01*
X-6869Y320500D02*
Y315179D01*
X-10739Y318081D01*
Y316630D01*
X-11222Y315663D01*
X-11706Y315179D01*
X-13157Y314695D01*
X-14125D01*
X-15576Y315179D01*
X-16543Y316146D01*
X-17027Y317597D01*
Y319049D01*
X-16543Y320500D01*
X-16059Y320983D01*
X-15092Y321467D01*
X211151Y159515D02*
X220039D01*
Y164594D01*
X211151Y165567D02*
X220039D01*
X211151D02*
Y168530D01*
X211574Y169800D01*
X212420Y170646D01*
X213267Y171069D01*
X214536Y171493D01*
X216653D01*
X217922Y171069D01*
X218769Y170646D01*
X219615Y169800D01*
X220039Y168530D01*
Y165567D01*
X211151Y174328D02*
Y178984D01*
X214536Y176444D01*
Y177714D01*
X214960Y178561D01*
X215383Y178984D01*
X216653Y179407D01*
X217499D01*
X218769Y178984D01*
X219615Y178137D01*
X220039Y176868D01*
Y175598D01*
X219615Y174328D01*
X219192Y173905D01*
X218346Y173482D01*
X258297Y119058D02*
X267185D01*
Y124137D01*
X258297Y125110D02*
X267185D01*
X258297D02*
Y128073D01*
X258720Y129343D01*
X259566Y130189D01*
X260413Y130612D01*
X261683Y131036D01*
X263799D01*
X265069Y130612D01*
X265915Y130189D01*
X266762Y129343D01*
X267185Y128073D01*
Y125110D01*
X259990Y133025D02*
X259566Y133871D01*
X258297Y135141D01*
X267185D01*
D18*
X-30195Y71349D02*
X-31162Y70865D01*
X-32129Y69897D01*
X-32613Y68930D01*
Y66995D01*
X-32129Y66028D01*
X-31162Y65061D01*
X-30195Y64577D01*
X-28744Y64093D01*
X-26325D01*
X-24874Y64577D01*
X-23907Y65061D01*
X-22939Y66028D01*
X-22455Y66995D01*
Y68930D01*
X-22939Y69897D01*
X-23907Y70865D01*
X-24874Y71349D01*
X-30678Y74202D02*
X-31162Y75170D01*
X-32613Y76621D01*
X-22455D01*
X-32613Y84554D02*
X-32129Y83103D01*
X-30678Y82135D01*
X-28260Y81652D01*
X-26809D01*
X-24390Y82135D01*
X-22939Y83103D01*
X-22455Y84554D01*
Y85521D01*
X-22939Y86972D01*
X-24390Y87940D01*
X-26809Y88424D01*
X-28260D01*
X-30678Y87940D01*
X-32129Y86972D01*
X-32613Y85521D01*
Y84554D01*
M02*
