G04*
G04 #@! TF.GenerationSoftware,Altium Limited,Altium Designer,19.0.15 (446)*
G04*
G04 Layer_Physical_Order=1*
G04 Layer_Color=255*
%FSLAX44Y44*%
%MOMM*%
G71*
G01*
G75*
%ADD15C,0.1524*%
%ADD19R,1.3000X0.7000*%
%ADD20R,0.8001X0.5105*%
G04:AMPARAMS|DCode=21|XSize=1.016mm|YSize=1.016mm|CornerRadius=0.254mm|HoleSize=0mm|Usage=FLASHONLY|Rotation=90.000|XOffset=0mm|YOffset=0mm|HoleType=Round|Shape=RoundedRectangle|*
%AMROUNDEDRECTD21*
21,1,1.0160,0.5080,0,0,90.0*
21,1,0.5080,1.0160,0,0,90.0*
1,1,0.5080,0.2540,0.2540*
1,1,0.5080,0.2540,-0.2540*
1,1,0.5080,-0.2540,-0.2540*
1,1,0.5080,-0.2540,0.2540*
%
%ADD21ROUNDEDRECTD21*%
G04:AMPARAMS|DCode=22|XSize=1.56mm|YSize=0.4mm|CornerRadius=0.05mm|HoleSize=0mm|Usage=FLASHONLY|Rotation=0.000|XOffset=0mm|YOffset=0mm|HoleType=Round|Shape=RoundedRectangle|*
%AMROUNDEDRECTD22*
21,1,1.5600,0.3000,0,0,0.0*
21,1,1.4600,0.4000,0,0,0.0*
1,1,0.1000,0.7300,-0.1500*
1,1,0.1000,-0.7300,-0.1500*
1,1,0.1000,-0.7300,0.1500*
1,1,0.1000,0.7300,0.1500*
%
%ADD22ROUNDEDRECTD22*%
%ADD23R,0.9700X1.7300*%
%ADD24R,1.1000X1.0000*%
%ADD25R,0.8100X0.9300*%
G04:AMPARAMS|DCode=26|XSize=1mm|YSize=1.42mm|CornerRadius=0.125mm|HoleSize=0mm|Usage=FLASHONLY|Rotation=90.000|XOffset=0mm|YOffset=0mm|HoleType=Round|Shape=RoundedRectangle|*
%AMROUNDEDRECTD26*
21,1,1.0000,1.1700,0,0,90.0*
21,1,0.7500,1.4200,0,0,90.0*
1,1,0.2500,0.5850,0.3750*
1,1,0.2500,0.5850,-0.3750*
1,1,0.2500,-0.5850,-0.3750*
1,1,0.2500,-0.5850,0.3750*
%
%ADD26ROUNDEDRECTD26*%
G04:AMPARAMS|DCode=27|XSize=1mm|YSize=1.42mm|CornerRadius=0.125mm|HoleSize=0mm|Usage=FLASHONLY|Rotation=0.000|XOffset=0mm|YOffset=0mm|HoleType=Round|Shape=RoundedRectangle|*
%AMROUNDEDRECTD27*
21,1,1.0000,1.1700,0,0,0.0*
21,1,0.7500,1.4200,0,0,0.0*
1,1,0.2500,0.3750,-0.5850*
1,1,0.2500,-0.3750,-0.5850*
1,1,0.2500,-0.3750,0.5850*
1,1,0.2500,0.3750,0.5850*
%
%ADD27ROUNDEDRECTD27*%
%ADD28R,0.9200X1.3800*%
%ADD29R,1.3800X0.9200*%
%ADD30R,1.5046X1.5562*%
%ADD31R,2.1500X0.9500*%
%ADD32R,2.1500X3.2500*%
%ADD33R,0.7600X1.2700*%
%ADD34R,1.8200X1.2100*%
%ADD35R,1.6500X1.3000*%
%ADD36R,1.8000X1.9000*%
%ADD37R,1.0000X1.9000*%
%ADD38R,1.4250X1.5500*%
%ADD39R,0.4500X1.3800*%
G04:AMPARAMS|DCode=40|XSize=1.016mm|YSize=1.016mm|CornerRadius=0.254mm|HoleSize=0mm|Usage=FLASHONLY|Rotation=0.000|XOffset=0mm|YOffset=0mm|HoleType=Round|Shape=RoundedRectangle|*
%AMROUNDEDRECTD40*
21,1,1.0160,0.5080,0,0,0.0*
21,1,0.5080,1.0160,0,0,0.0*
1,1,0.5080,0.2540,-0.2540*
1,1,0.5080,-0.2540,-0.2540*
1,1,0.5080,-0.2540,0.2540*
1,1,0.5080,0.2540,0.2540*
%
%ADD40ROUNDEDRECTD40*%
%ADD41R,1.2000X1.2000*%
%ADD42R,0.8000X0.8000*%
%ADD43R,1.2500X1.1000*%
%ADD44R,1.7000X1.8000*%
G04:AMPARAMS|DCode=45|XSize=2.0819mm|YSize=0.35mm|CornerRadius=0.0875mm|HoleSize=0mm|Usage=FLASHONLY|Rotation=270.000|XOffset=0mm|YOffset=0mm|HoleType=Round|Shape=RoundedRectangle|*
%AMROUNDEDRECTD45*
21,1,2.0819,0.1750,0,0,270.0*
21,1,1.9069,0.3500,0,0,270.0*
1,1,0.1750,-0.0875,-0.9535*
1,1,0.1750,-0.0875,0.9535*
1,1,0.1750,0.0875,0.9535*
1,1,0.1750,0.0875,-0.9535*
%
%ADD45ROUNDEDRECTD45*%
%ADD46O,0.3500X2.0819*%
%ADD47R,0.8221X1.4082*%
G04:AMPARAMS|DCode=48|XSize=1.4082mm|YSize=0.8221mm|CornerRadius=0.4111mm|HoleSize=0mm|Usage=FLASHONLY|Rotation=270.000|XOffset=0mm|YOffset=0mm|HoleType=Round|Shape=RoundedRectangle|*
%AMROUNDEDRECTD48*
21,1,1.4082,0.0000,0,0,270.0*
21,1,0.5861,0.8221,0,0,270.0*
1,1,0.8221,0.0000,-0.2930*
1,1,0.8221,0.0000,0.2930*
1,1,0.8221,0.0000,0.2930*
1,1,0.8221,0.0000,-0.2930*
%
%ADD48ROUNDEDRECTD48*%
%ADD49R,1.7000X0.8000*%
G04:AMPARAMS|DCode=50|XSize=2.8mm|YSize=0.5mm|CornerRadius=0.125mm|HoleSize=0mm|Usage=FLASHONLY|Rotation=270.000|XOffset=0mm|YOffset=0mm|HoleType=Round|Shape=RoundedRectangle|*
%AMROUNDEDRECTD50*
21,1,2.8000,0.2500,0,0,270.0*
21,1,2.5500,0.5000,0,0,270.0*
1,1,0.2500,-0.1250,-1.2750*
1,1,0.2500,-0.1250,1.2750*
1,1,0.2500,0.1250,1.2750*
1,1,0.2500,0.1250,-1.2750*
%
%ADD50ROUNDEDRECTD50*%
G04:AMPARAMS|DCode=51|XSize=3.5mm|YSize=2.05mm|CornerRadius=0.5125mm|HoleSize=0mm|Usage=FLASHONLY|Rotation=270.000|XOffset=0mm|YOffset=0mm|HoleType=Round|Shape=RoundedRectangle|*
%AMROUNDEDRECTD51*
21,1,3.5000,1.0250,0,0,270.0*
21,1,2.4750,2.0500,0,0,270.0*
1,1,1.0250,-0.5125,-1.2375*
1,1,1.0250,-0.5125,1.2375*
1,1,1.0250,0.5125,1.2375*
1,1,1.0250,0.5125,-1.2375*
%
%ADD51ROUNDEDRECTD51*%
G04:AMPARAMS|DCode=52|XSize=4mm|YSize=2.05mm|CornerRadius=0.5125mm|HoleSize=0mm|Usage=FLASHONLY|Rotation=270.000|XOffset=0mm|YOffset=0mm|HoleType=Round|Shape=RoundedRectangle|*
%AMROUNDEDRECTD52*
21,1,4.0000,1.0250,0,0,270.0*
21,1,2.9750,2.0500,0,0,270.0*
1,1,1.0250,-0.5125,-1.4875*
1,1,1.0250,-0.5125,1.4875*
1,1,1.0250,0.5125,1.4875*
1,1,1.0250,0.5125,-1.4875*
%
%ADD52ROUNDEDRECTD52*%
G04:AMPARAMS|DCode=53|XSize=3.5mm|YSize=2.05mm|CornerRadius=0.5125mm|HoleSize=0mm|Usage=FLASHONLY|Rotation=270.000|XOffset=0mm|YOffset=0mm|HoleType=Round|Shape=RoundedRectangle|*
%AMROUNDEDRECTD53*
21,1,3.5000,1.0250,0,0,270.0*
21,1,2.4750,2.0500,0,0,270.0*
1,1,1.0250,-0.5125,-1.2375*
1,1,1.0250,-0.5125,1.2375*
1,1,1.0250,0.5125,1.2375*
1,1,1.0250,0.5125,-1.2375*
%
%ADD53ROUNDEDRECTD53*%
G04:AMPARAMS|DCode=54|XSize=0.5658mm|YSize=2.0044mm|CornerRadius=0.2829mm|HoleSize=0mm|Usage=FLASHONLY|Rotation=0.000|XOffset=0mm|YOffset=0mm|HoleType=Round|Shape=RoundedRectangle|*
%AMROUNDEDRECTD54*
21,1,0.5658,1.4386,0,0,0.0*
21,1,0.0000,2.0044,0,0,0.0*
1,1,0.5658,0.0000,-0.7193*
1,1,0.5658,0.0000,-0.7193*
1,1,0.5658,0.0000,0.7193*
1,1,0.5658,0.0000,0.7193*
%
%ADD54ROUNDEDRECTD54*%
G04:AMPARAMS|DCode=55|XSize=2.0044mm|YSize=0.5658mm|CornerRadius=0.2829mm|HoleSize=0mm|Usage=FLASHONLY|Rotation=0.000|XOffset=0mm|YOffset=0mm|HoleType=Round|Shape=RoundedRectangle|*
%AMROUNDEDRECTD55*
21,1,2.0044,0.0000,0,0,0.0*
21,1,1.4386,0.5658,0,0,0.0*
1,1,0.5658,0.7193,0.0000*
1,1,0.5658,-0.7193,0.0000*
1,1,0.5658,-0.7193,0.0000*
1,1,0.5658,0.7193,0.0000*
%
%ADD55ROUNDEDRECTD55*%
%ADD56O,2.0044X0.5658*%
%ADD79C,0.7500*%
%ADD83C,0.4064*%
%ADD84C,0.3302*%
%ADD85C,6.0000*%
%ADD86R,1.3080X1.3080*%
%ADD87C,1.3080*%
%ADD88C,1.5000*%
%ADD89C,1.0500*%
%ADD90C,0.9000*%
%ADD91C,0.5080*%
%ADD92C,1.7780*%
G36*
X302Y614143D02*
X312Y614145D01*
X322Y614143D01*
X124578Y613355D01*
X124871Y612206D01*
X124871Y612083D01*
Y609206D01*
X103371D01*
Y591127D01*
X124871D01*
Y588126D01*
X139951D01*
Y611988D01*
X140486Y613255D01*
X147232Y613212D01*
X147871Y612206D01*
X147871Y611938D01*
Y588126D01*
X170951D01*
Y591127D01*
X192451D01*
Y609206D01*
X170951D01*
Y611791D01*
X171869Y613056D01*
X279862Y612371D01*
X279918Y612382D01*
X279974Y612372D01*
X296319Y612833D01*
X297516Y612867D01*
X297623Y612687D01*
X297013Y611234D01*
X295988Y610988D01*
X291256Y609028D01*
X286889Y606352D01*
X282994Y603025D01*
X279667Y599130D01*
X276991Y594763D01*
X275031Y590031D01*
X273836Y585051D01*
X273534Y581215D01*
X338615D01*
X338313Y585051D01*
X337117Y590031D01*
X335157Y594763D01*
X332481Y599130D01*
X329155Y603025D01*
X325260Y606352D01*
X320893Y609028D01*
X316161Y610988D01*
X313472Y611633D01*
X313622Y612903D01*
X318504D01*
X319663Y612630D01*
X319689Y612619D01*
X320959Y612823D01*
X324145Y612510D01*
X328430Y611210D01*
X332380Y609099D01*
X335841Y606258D01*
X338682Y602796D01*
X340793Y598847D01*
X342093Y594562D01*
X342407Y591375D01*
X342202Y590105D01*
X342213Y590079D01*
X342487Y589808D01*
X342487Y588838D01*
X342489Y581451D01*
X342205Y580298D01*
X342205Y580298D01*
X342291Y579951D01*
X342490Y579145D01*
Y579028D01*
X342490Y950D01*
X342221Y-211D01*
X342206Y-248D01*
X342475Y-1406D01*
X342363Y-10246D01*
X342347Y-11477D01*
X342347Y-11510D01*
X342270Y-12748D01*
X341953Y-15966D01*
X340653Y-20252D01*
X338543Y-24201D01*
X335702Y-27662D01*
X332240Y-30503D01*
X328291Y-32614D01*
X324006Y-33914D01*
X319701Y-34338D01*
X319549Y-34308D01*
X307192D01*
X306439Y-34132D01*
X305998Y-34023D01*
X305998Y-34023D01*
X304825Y-34298D01*
X303491Y-34287D01*
X208195Y-33511D01*
X207769Y-32238D01*
X208206Y-31902D01*
X209434Y-30301D01*
X210207Y-28437D01*
X210470Y-26436D01*
Y-12831D01*
X197614D01*
X184758D01*
Y-26436D01*
X185021Y-28437D01*
X185793Y-30301D01*
X187022Y-31902D01*
X187241Y-32070D01*
X186805Y-33337D01*
X110642Y-32717D01*
X110059Y-31442D01*
X110934Y-30301D01*
X111706Y-28437D01*
X111970Y-26436D01*
Y-12831D01*
X99114D01*
X86257D01*
Y-26436D01*
X86521Y-28437D01*
X87293Y-30301D01*
X88031Y-31262D01*
X87400Y-32527D01*
X11318Y-31907D01*
X11071Y-30635D01*
X14819Y-29083D01*
X19186Y-26407D01*
X23080Y-23080D01*
X26407Y-19186D01*
X29083Y-14819D01*
X31043Y-10086D01*
X32239Y-5106D01*
X32541Y-1270D01*
X-32541D01*
X-32239Y-5106D01*
X-31043Y-10086D01*
X-29083Y-14819D01*
X-26407Y-19186D01*
X-23080Y-23080D01*
X-19186Y-26407D01*
X-14819Y-29083D01*
X-11468Y-30471D01*
X-11724Y-31739D01*
X-15323Y-31716D01*
X-16570Y-31707D01*
X-16574Y-31656D01*
X-16572Y-31431D01*
X-16590Y-31423D01*
X-17860Y-31612D01*
X-20882Y-31314D01*
X-25167Y-30015D01*
X-29116Y-27904D01*
X-32577Y-25063D01*
X-35418Y-21602D01*
X-37529Y-17652D01*
X-38829Y-13368D01*
X-39253Y-9063D01*
X-39222Y-8911D01*
Y4658D01*
X-38944Y5814D01*
X-38938Y5829D01*
X-39216Y6984D01*
X-39014Y46117D01*
X-39016Y46124D01*
X-39014Y46130D01*
X-39014Y200651D01*
X-37745Y200777D01*
X-37609Y200098D01*
X-36558Y198524D01*
X-36545Y198492D01*
X-36472Y198241D01*
X-36393Y197873D01*
X-36328Y197447D01*
X-36191Y195452D01*
Y111314D01*
X-35935Y110025D01*
X-35205Y108933D01*
X-26651Y100379D01*
X-25559Y99649D01*
X-24270Y99393D01*
X-8924D01*
Y92347D01*
X29218D01*
Y100121D01*
X45327D01*
X46349Y99100D01*
X46336Y98924D01*
X46285Y98579D01*
X46222Y98272D01*
X46156Y98035D01*
X46100Y97883D01*
X44985Y96214D01*
X44591Y94232D01*
X44985Y92250D01*
X46108Y90569D01*
X47788Y89447D01*
X49770Y89052D01*
X51752Y89447D01*
X53432Y90569D01*
X54555Y92250D01*
X54949Y94232D01*
X54555Y96214D01*
X53440Y97883D01*
X53384Y98035D01*
X53318Y98272D01*
X53255Y98579D01*
X53204Y98924D01*
X53137Y99834D01*
Y100440D01*
X52880Y101728D01*
X52151Y102820D01*
X49102Y105869D01*
X48043Y106576D01*
X48017Y106729D01*
X48082Y107879D01*
X49598Y108181D01*
X50227Y108601D01*
X53508Y108693D01*
X79343D01*
X96287Y91749D01*
Y89483D01*
X95017Y88441D01*
X94935Y88457D01*
X93185D01*
X91853Y88192D01*
X90810Y87496D01*
X89768Y88192D01*
X88435Y88457D01*
X86685D01*
X85353Y88192D01*
X84223Y87437D01*
X83469Y86308D01*
X83203Y84975D01*
Y78807D01*
X73084D01*
X71795Y78551D01*
X70703Y77821D01*
X66920Y74039D01*
X66190Y72946D01*
X65934Y71658D01*
Y69559D01*
X65910Y68569D01*
X65800Y67302D01*
X65732Y66853D01*
X65653Y66485D01*
X65580Y66234D01*
X65567Y66202D01*
X64516Y64628D01*
X64121Y62646D01*
X64516Y60664D01*
X65638Y58984D01*
X66728Y58255D01*
X66343Y56985D01*
X61382D01*
X59747Y56660D01*
X58361Y55734D01*
X54742Y52115D01*
X53815Y50728D01*
X53490Y49093D01*
Y39973D01*
X29491D01*
X28364Y40319D01*
Y49370D01*
X18301D01*
Y50640D01*
X17031D01*
Y60961D01*
X4558D01*
Y65151D01*
X5620D01*
Y88231D01*
X-16460D01*
Y65151D01*
X-3988D01*
Y60961D01*
X-9778D01*
Y40319D01*
X-3988D01*
Y38296D01*
X-3663Y36661D01*
X-2736Y35275D01*
X-1276Y33814D01*
X-1760Y32502D01*
X-5106Y32239D01*
X-10086Y31043D01*
X-14819Y29083D01*
X-19186Y26407D01*
X-23080Y23080D01*
X-26407Y19186D01*
X-29083Y14819D01*
X-31043Y10086D01*
X-32239Y5106D01*
X-32541Y1270D01*
X32541D01*
X32239Y5106D01*
X31043Y10086D01*
X29083Y14819D01*
X26407Y19186D01*
X23080Y23080D01*
X19186Y26407D01*
X14819Y29083D01*
X12226Y30157D01*
X12479Y31427D01*
X55283D01*
X56918Y31752D01*
X58304Y32678D01*
X60785Y35159D01*
X61711Y36545D01*
X62036Y38180D01*
Y47323D01*
X63152Y48439D01*
X86824D01*
X87385Y47300D01*
X87293Y47180D01*
X86521Y45315D01*
X86257Y43314D01*
Y32209D01*
X99114D01*
X111970D01*
Y43314D01*
X111706Y45315D01*
X110934Y47180D01*
X110842Y47300D01*
X111404Y48439D01*
X125973D01*
X128091Y46322D01*
Y45736D01*
X127544Y44918D01*
X127249Y43439D01*
Y17939D01*
X127544Y16460D01*
X128126Y15589D01*
X127488Y14392D01*
X126364Y14540D01*
X124526Y14298D01*
X122813Y13589D01*
X121343Y12460D01*
X120214Y10990D01*
X119505Y9277D01*
X119263Y7439D01*
X119505Y5602D01*
X120214Y3889D01*
X121343Y2418D01*
X122813Y1290D01*
X124526Y581D01*
X126364Y339D01*
X128202Y581D01*
X129914Y1290D01*
X131385Y2418D01*
X132513Y3889D01*
X133223Y5602D01*
X133464Y7439D01*
X133387Y8031D01*
X134590Y8624D01*
X156348Y-13135D01*
X156982Y-14239D01*
X155860Y-15919D01*
X155465Y-17901D01*
X155860Y-19883D01*
X156982Y-21564D01*
X158663Y-22686D01*
X160645Y-23081D01*
X162627Y-22686D01*
X164307Y-21564D01*
X165430Y-19883D01*
X165824Y-17901D01*
X165430Y-15919D01*
X164307Y-14239D01*
X164070Y-14080D01*
X164011Y-13233D01*
Y-12670D01*
X163755Y-11382D01*
X163025Y-10290D01*
X139931Y12805D01*
X140457Y14075D01*
X141614D01*
X143092Y14369D01*
X143314Y14517D01*
X144364Y15195D01*
X145413Y14517D01*
X145635Y14369D01*
X147114Y14075D01*
X149614D01*
X151093Y14369D01*
X151314Y14517D01*
X152364Y15195D01*
X153413Y14517D01*
X153635Y14369D01*
X155114Y14075D01*
X157614D01*
X159093Y14369D01*
X159314Y14517D01*
X160364Y15195D01*
X161413Y14517D01*
X161635Y14369D01*
X163094Y14079D01*
Y30689D01*
Y47299D01*
X161635Y47009D01*
X161413Y46861D01*
X160364Y46183D01*
X159314Y46861D01*
X159093Y47009D01*
X157614Y47303D01*
X155114D01*
X153635Y47009D01*
X153413Y46861D01*
X152993Y46589D01*
X151730Y47264D01*
Y49686D01*
X151474Y50975D01*
X150744Y52067D01*
X149806Y53005D01*
X149123Y53722D01*
X148305Y54695D01*
X148036Y55062D01*
X147831Y55377D01*
X147706Y55606D01*
X147692Y55638D01*
X147323Y57495D01*
X146200Y59175D01*
X144520Y60298D01*
X142537Y60692D01*
X140555Y60298D01*
X138875Y59175D01*
X137752Y57495D01*
X137548Y56469D01*
X136170Y56051D01*
X132176Y60046D01*
X131083Y60775D01*
X129795Y61032D01*
X100332D01*
X100259Y61154D01*
X100978Y62424D01*
X101435D01*
X102767Y62689D01*
X103810Y63386D01*
X104853Y62689D01*
X105790Y62503D01*
Y75441D01*
Y88698D01*
X104833Y89483D01*
Y93519D01*
X104508Y95154D01*
X103582Y96541D01*
X84135Y115988D01*
X82748Y116914D01*
X81113Y117239D01*
X51934D01*
X51889Y118858D01*
Y123286D01*
X51564Y124921D01*
X50637Y126308D01*
X43748Y133197D01*
X42361Y134124D01*
X40726Y134449D01*
X29037D01*
Y140497D01*
X2228D01*
Y130176D01*
Y119855D01*
X29037D01*
Y125903D01*
X38956D01*
X43343Y121516D01*
Y117025D01*
X43312Y115668D01*
X42831Y114948D01*
X42436Y112966D01*
X42831Y110984D01*
X43953Y109304D01*
X45634Y108181D01*
X45915Y108125D01*
X45790Y106855D01*
X29218D01*
Y112989D01*
X-8924D01*
Y106126D01*
X-22876D01*
X-29457Y112708D01*
Y142485D01*
X-28187Y143163D01*
X-27168Y142482D01*
X-26456Y142340D01*
Y147267D01*
Y152194D01*
X-27168Y152053D01*
X-28187Y151371D01*
X-29457Y152050D01*
Y195167D01*
X-29434Y196157D01*
X-29324Y197424D01*
X-29255Y197873D01*
X-29176Y198241D01*
X-29104Y198492D01*
X-29091Y198524D01*
X-28039Y200098D01*
X-27645Y202080D01*
X-28039Y204062D01*
X-29162Y205742D01*
X-30842Y206865D01*
X-32824Y207259D01*
X-34806Y206865D01*
X-36487Y205742D01*
X-37609Y204062D01*
X-37745Y203383D01*
X-39014Y203508D01*
X-39014Y250295D01*
X-37745Y250695D01*
X-36292Y249725D01*
X-34310Y249330D01*
X-33040D01*
Y257050D01*
Y264769D01*
X-34310D01*
X-36292Y264375D01*
X-37745Y263405D01*
X-39014Y263805D01*
Y283758D01*
X-37745Y284144D01*
X-37152Y283257D01*
X-35472Y282134D01*
X-33490Y281740D01*
X-28410D01*
X-26428Y282134D01*
X-24747Y283257D01*
X-23718Y284798D01*
X-19037D01*
X-17917Y283678D01*
Y274660D01*
X-18240Y273034D01*
X-17846Y271051D01*
X-16723Y269371D01*
X-15043Y268248D01*
X-13061Y267854D01*
X-11079Y268248D01*
X-9398Y269371D01*
X-8275Y271051D01*
X-7881Y273034D01*
X-8275Y275016D01*
X-8594Y275492D01*
Y285609D01*
X-8948Y287393D01*
X-9959Y288905D01*
X-13810Y292756D01*
X-15322Y293766D01*
X-17106Y294121D01*
X-23718D01*
X-24747Y295662D01*
X-26428Y296785D01*
X-28410Y297179D01*
X-33490D01*
X-35472Y296785D01*
X-37152Y295662D01*
X-37745Y294776D01*
X-39014Y295161D01*
Y313731D01*
X-37745Y314272D01*
X-36462Y313415D01*
X-34480Y313020D01*
X-29400D01*
X-27418Y313415D01*
X-25738Y314538D01*
X-24615Y316218D01*
X-24498Y316806D01*
X-20161D01*
X-19136Y315782D01*
Y312447D01*
X-19168Y311089D01*
X-19649Y310370D01*
X-20043Y308388D01*
X-19649Y306406D01*
X-18526Y304725D01*
X-16845Y303603D01*
X-14863Y303208D01*
X-12881Y303603D01*
X-11201Y304725D01*
X-10078Y306406D01*
X-9684Y308388D01*
X-10078Y310370D01*
X-10498Y310999D01*
X-10590Y314280D01*
Y317552D01*
X-10915Y319187D01*
X-11842Y320573D01*
X-15369Y324101D01*
X-16756Y325027D01*
X-18391Y325353D01*
X-24675D01*
X-25738Y326942D01*
X-27418Y328065D01*
X-29400Y328460D01*
X-34480D01*
X-36462Y328065D01*
X-37745Y327208D01*
X-39014Y327749D01*
Y335474D01*
X-37745Y335859D01*
X-37322Y335228D01*
X-35642Y334105D01*
X-33660Y333711D01*
X-28580D01*
X-26598Y334105D01*
X-24918Y335228D01*
X-23795Y336908D01*
X-23400Y338890D01*
Y343970D01*
X-23795Y345952D01*
X-24918Y347632D01*
X-26458Y348662D01*
Y378582D01*
X-25080Y379959D01*
X-21096D01*
X-20811Y379909D01*
X-20595Y379837D01*
X-20482Y379777D01*
X-20429Y379733D01*
X-20385Y379679D01*
X-20324Y379567D01*
X-20252Y379350D01*
X-20202Y379066D01*
Y368753D01*
X-19847Y366969D01*
X-18836Y365457D01*
X-12748Y359368D01*
X-11861Y358776D01*
X-12129Y357428D01*
X-13352Y357185D01*
X-15033Y356062D01*
X-16155Y354381D01*
X-16550Y352399D01*
X-16155Y350417D01*
X-15033Y348737D01*
X-13352Y347614D01*
X-11370Y347220D01*
X-9388Y347614D01*
X-7814Y348666D01*
X-7782Y348679D01*
X-7531Y348752D01*
X-7163Y348830D01*
X-6737Y348895D01*
X-4742Y349033D01*
X5862D01*
X6348Y347859D01*
X5838Y347349D01*
X5108Y346257D01*
X4852Y344969D01*
Y344339D01*
X4847Y344137D01*
X4805Y343635D01*
X4556Y343469D01*
X3433Y341788D01*
X3039Y339806D01*
X3433Y337824D01*
X4556Y336143D01*
X6236Y335021D01*
X8218Y334627D01*
X10201Y335021D01*
X11881Y336143D01*
X13004Y337824D01*
X13398Y339806D01*
X13004Y341788D01*
X11881Y343469D01*
X11845Y343834D01*
X14938Y346927D01*
X57980D01*
X58738Y345938D01*
X58319Y344668D01*
X31763D01*
X30475Y344412D01*
X29383Y343682D01*
X1960Y316259D01*
X1230Y315167D01*
X973Y313878D01*
Y262742D01*
X950Y261752D01*
X840Y260485D01*
X771Y260036D01*
X692Y259667D01*
X619Y259417D01*
X607Y259385D01*
X-445Y257811D01*
X-839Y255829D01*
X-445Y253847D01*
X678Y252166D01*
X2358Y251043D01*
X4340Y250649D01*
X6322Y251043D01*
X8003Y252166D01*
X9125Y253847D01*
X9520Y255829D01*
X9125Y257811D01*
X8073Y259385D01*
X8061Y259417D01*
X7988Y259667D01*
X7909Y260036D01*
X7844Y260462D01*
X7707Y262456D01*
Y312484D01*
X33158Y337935D01*
X58833D01*
Y337551D01*
X59127Y336073D01*
X59964Y334819D01*
X61218Y333981D01*
X62697Y333687D01*
X74397D01*
X75876Y333981D01*
X77129Y334819D01*
X77967Y336073D01*
X78261Y337551D01*
Y345051D01*
X78141Y345657D01*
X79113Y346927D01*
X88912D01*
X89886Y345657D01*
X89767Y345056D01*
Y337556D01*
X90061Y336077D01*
X90899Y334823D01*
X92152Y333986D01*
X93631Y333692D01*
X105331D01*
X106810Y333986D01*
X108064Y334823D01*
X108901Y336077D01*
X109034Y336744D01*
X110412Y337162D01*
X111597Y335977D01*
Y316618D01*
X111853Y315329D01*
X112583Y314237D01*
X115373Y311447D01*
X116465Y310717D01*
X117754Y310461D01*
X126234D01*
X126858Y309191D01*
X126427Y308634D01*
X126410Y308630D01*
X126091Y308576D01*
X123516Y308403D01*
X110380D01*
X109037Y308491D01*
X108518Y308559D01*
X108068Y308643D01*
X107719Y308734D01*
X107477Y308818D01*
X107380Y308863D01*
X107292Y308995D01*
X105612Y310117D01*
X103630Y310512D01*
X101648Y310117D01*
X99967Y308995D01*
X98845Y307314D01*
X98450Y305332D01*
X98845Y303350D01*
X99967Y301670D01*
X100623Y301232D01*
X100237Y299962D01*
X92283D01*
X91293Y299986D01*
X90026Y300096D01*
X89578Y300165D01*
X89209Y300243D01*
X88959Y300316D01*
X88927Y300329D01*
X87353Y301381D01*
X85370Y301775D01*
X83388Y301381D01*
X81708Y300258D01*
X81660Y300187D01*
X80390Y300572D01*
Y311527D01*
X88103Y319239D01*
X89767D01*
Y318856D01*
X90061Y317377D01*
X90899Y316124D01*
X92152Y315286D01*
X93631Y314992D01*
X105331D01*
X106810Y315286D01*
X108064Y316124D01*
X108901Y317377D01*
X109195Y318856D01*
Y326356D01*
X108901Y327835D01*
X108064Y329088D01*
X106810Y329926D01*
X105331Y330220D01*
X93631D01*
X92152Y329926D01*
X90899Y329088D01*
X90061Y327835D01*
X89767Y326356D01*
Y325973D01*
X86708D01*
X85420Y325716D01*
X84328Y324986D01*
X79434Y320093D01*
X78261Y320579D01*
Y326351D01*
X77967Y327830D01*
X77129Y329084D01*
X75876Y329921D01*
X74397Y330216D01*
X62697D01*
X61218Y329921D01*
X59964Y329084D01*
X59127Y327830D01*
X58833Y326351D01*
Y318851D01*
X59127Y317372D01*
X59964Y316119D01*
X61218Y315281D01*
X62697Y314987D01*
X65163D01*
Y294297D01*
X65419Y293008D01*
X66149Y291916D01*
X75027Y283039D01*
X76119Y282309D01*
X77407Y282053D01*
X90000D01*
X90087Y282070D01*
X94398D01*
X95243Y280800D01*
X94945Y279305D01*
Y264920D01*
X94992Y264686D01*
X94094Y263788D01*
X93860Y263834D01*
X79475D01*
X77379Y263418D01*
X75603Y262231D01*
X74417Y260455D01*
X74000Y258360D01*
X74417Y256265D01*
X75017Y255366D01*
X75537Y254360D01*
X75017Y253353D01*
X74417Y252454D01*
X74000Y250360D01*
X74417Y248265D01*
X75603Y246489D01*
Y246231D01*
X74417Y244455D01*
X74253Y243630D01*
X99082D01*
X98918Y244455D01*
X97731Y246231D01*
Y246489D01*
X98918Y248265D01*
X99334Y250360D01*
X98918Y252454D01*
X98317Y253353D01*
X97798Y254360D01*
X98317Y255366D01*
X98918Y256265D01*
X99334Y258360D01*
X99288Y258594D01*
X100186Y259492D01*
X100420Y259445D01*
X102515Y259862D01*
X103414Y260463D01*
X104420Y260982D01*
X105427Y260463D01*
X106325Y259862D01*
X108420Y259445D01*
X110515Y259862D01*
X111413Y260462D01*
X112420Y260982D01*
X113427Y260462D01*
X114325Y259862D01*
X116420Y259445D01*
X118515Y259862D01*
X119413Y260463D01*
X120420Y260982D01*
X121426Y260463D01*
X122325Y259862D01*
X124420Y259445D01*
X126515Y259862D01*
X127413Y260462D01*
X128420Y260982D01*
X129427Y260462D01*
X130325Y259862D01*
X132420Y259445D01*
X134515Y259862D01*
X135414Y260463D01*
X136420Y260982D01*
X137427Y260463D01*
X138325Y259862D01*
X140420Y259445D01*
X142515Y259862D01*
X143414Y260463D01*
X144420Y260982D01*
X145427Y260463D01*
X146325Y259863D01*
X148420Y259446D01*
X150515Y259863D01*
X151413Y260463D01*
X152421Y260982D01*
X153427Y260463D01*
X154325Y259862D01*
X156420Y259445D01*
X156654Y259492D01*
X157552Y258594D01*
X157506Y258360D01*
X157922Y256265D01*
X158523Y255366D01*
X159042Y254360D01*
X158523Y253353D01*
X157922Y252454D01*
X157506Y250360D01*
X157922Y248265D01*
X159109Y246489D01*
Y246231D01*
X157922Y244455D01*
X157506Y242360D01*
X157922Y240265D01*
X158523Y239366D01*
X159042Y238360D01*
X158523Y237353D01*
X157922Y236455D01*
X157758Y235630D01*
X182587D01*
X182423Y236455D01*
X181823Y237353D01*
X181303Y238360D01*
X181823Y239366D01*
X182423Y240265D01*
X182840Y242360D01*
X182423Y244455D01*
X181236Y246231D01*
Y246489D01*
X182423Y248265D01*
X182840Y250360D01*
X182423Y252454D01*
X181823Y253353D01*
X181303Y254360D01*
X181823Y255366D01*
X182423Y256265D01*
X182840Y258360D01*
X182423Y260455D01*
X181236Y262231D01*
X179461Y263418D01*
X177366Y263834D01*
X162980D01*
X162746Y263788D01*
X161848Y264686D01*
X161894Y264920D01*
Y279305D01*
X161597Y280800D01*
X162441Y282070D01*
X174677D01*
X181040Y275707D01*
X181611Y274561D01*
X180488Y272880D01*
X180094Y270898D01*
X180488Y268916D01*
X181611Y267236D01*
X183291Y266113D01*
X185273Y265719D01*
X187256Y266113D01*
X188936Y267236D01*
X190059Y268916D01*
X190453Y270898D01*
X190059Y272880D01*
X188936Y274561D01*
X188710Y274712D01*
X188640Y275674D01*
Y276235D01*
X188496Y276959D01*
X189137Y278247D01*
X189314Y278417D01*
X190175Y278588D01*
X191856Y279711D01*
X192978Y281391D01*
X193373Y283373D01*
X192978Y285355D01*
X191856Y287036D01*
X191560Y287233D01*
Y287406D01*
X191304Y288694D01*
X190574Y289786D01*
X188478Y291882D01*
X187386Y292612D01*
X186098Y292868D01*
X162946D01*
X162460Y294041D01*
X163690Y295271D01*
X164420Y296364D01*
X164676Y297652D01*
Y321241D01*
X164420Y322529D01*
X163690Y323621D01*
X161187Y326124D01*
X160095Y326854D01*
X158806Y327110D01*
X151442D01*
Y348894D01*
X152712Y349573D01*
X153206Y349244D01*
X155188Y348849D01*
X157170Y349244D01*
X157799Y349664D01*
X161080Y349756D01*
X163014D01*
X168050Y344720D01*
Y341740D01*
X168019Y340382D01*
X167538Y339663D01*
X167143Y337681D01*
X167538Y335698D01*
X167926Y335118D01*
X167958Y332925D01*
Y316395D01*
X167927Y315037D01*
X167446Y314317D01*
X167052Y312335D01*
X167446Y310353D01*
X168569Y308673D01*
X170249Y307550D01*
X172231Y307156D01*
X174213Y307550D01*
X175894Y308673D01*
X177017Y310353D01*
X177411Y312335D01*
X177017Y314317D01*
X176596Y314946D01*
X176504Y318227D01*
Y332878D01*
X176511Y333360D01*
X178215Y333407D01*
X202559D01*
X204194Y333733D01*
X205580Y334659D01*
X211176Y340255D01*
X211176Y340255D01*
X212102Y341641D01*
X212428Y343276D01*
Y358905D01*
X223173Y369650D01*
X297324D01*
X298960Y369976D01*
X300346Y370902D01*
X306413Y376969D01*
X306413Y376970D01*
X307340Y378356D01*
X307665Y379991D01*
Y413772D01*
X307665Y413772D01*
X307340Y415407D01*
X306413Y416793D01*
X306413Y416794D01*
X301923Y421284D01*
X300537Y422210D01*
X298902Y422535D01*
X282737D01*
X277591Y427681D01*
Y513067D01*
X277614Y513172D01*
X277633Y513218D01*
X277677Y513248D01*
X277823Y513311D01*
X278095Y513385D01*
X278398Y513428D01*
X298051D01*
Y508614D01*
X309480D01*
X310730Y508614D01*
X312001Y508614D01*
X323430D01*
Y526394D01*
X321752D01*
Y531559D01*
X321397Y533343D01*
X320387Y534855D01*
X315822Y539420D01*
X314310Y540430D01*
X312526Y540785D01*
X284610D01*
X266224Y559170D01*
Y565463D01*
X266225Y565580D01*
X266557Y570862D01*
X266837Y573078D01*
X267193Y575061D01*
X267617Y576780D01*
X268098Y578229D01*
X268620Y579400D01*
X269159Y580294D01*
X269577Y580796D01*
X269714Y580901D01*
X271546Y583288D01*
X272698Y586069D01*
X273091Y589053D01*
X272698Y592037D01*
X271546Y594817D01*
X269714Y597205D01*
X267327Y599037D01*
X264546Y600188D01*
X261562Y600581D01*
X258578Y600188D01*
X255798Y599037D01*
X253410Y597205D01*
X251578Y594817D01*
X250427Y592037D01*
X250034Y589053D01*
X250427Y586069D01*
X251578Y583288D01*
X253410Y580901D01*
X253547Y580796D01*
X253966Y580294D01*
X254505Y579400D01*
X255026Y578229D01*
X255508Y576780D01*
X255932Y575061D01*
X256278Y573133D01*
X256900Y565555D01*
X256901Y565463D01*
Y557240D01*
X257256Y555456D01*
X258266Y553943D01*
X279382Y532827D01*
X280895Y531817D01*
X282679Y531462D01*
X310595D01*
X312429Y529628D01*
Y527292D01*
X311531Y526394D01*
X310751D01*
X309480Y526394D01*
X298051D01*
Y522752D01*
X257759D01*
X212857Y567653D01*
Y568029D01*
X212861Y568237D01*
X213208Y572814D01*
X213499Y574758D01*
X213871Y576536D01*
X214315Y578115D01*
X214823Y579494D01*
X215387Y580673D01*
X215995Y581657D01*
X216342Y582089D01*
X216348Y582093D01*
X216393Y582153D01*
X216751Y582597D01*
X216785Y582663D01*
X218180Y584481D01*
X219331Y587261D01*
X219724Y590245D01*
X219331Y593229D01*
X218180Y596009D01*
X216348Y598397D01*
X213960Y600229D01*
X211180Y601381D01*
X208196Y601774D01*
X205212Y601381D01*
X202431Y600229D01*
X200044Y598397D01*
X198212Y596009D01*
X197060Y593229D01*
X196667Y590245D01*
X197060Y587261D01*
X198212Y584481D01*
X199606Y582663D01*
X199641Y582597D01*
X199998Y582153D01*
X200044Y582093D01*
X200049Y582089D01*
X200396Y581657D01*
X201004Y580673D01*
X201568Y579494D01*
X202077Y578115D01*
X202521Y576536D01*
X202893Y574758D01*
X203183Y572814D01*
X203531Y568237D01*
X203534Y568029D01*
Y565723D01*
X203541Y565689D01*
X203533Y565671D01*
X202440Y564711D01*
X201083Y564981D01*
X196003D01*
X194021Y564587D01*
X192341Y563464D01*
X191218Y561784D01*
X190824Y559802D01*
Y554722D01*
X191218Y552740D01*
X192208Y551259D01*
X191831Y549989D01*
X189655D01*
X188298Y550020D01*
X187578Y550501D01*
X186073Y550800D01*
X184811Y552062D01*
X183425Y552988D01*
X181789Y553314D01*
X169652D01*
Y555081D01*
X165184D01*
Y564126D01*
X182451D01*
Y584706D01*
X163120D01*
Y583007D01*
X136181D01*
Y573567D01*
Y564127D01*
X156637D01*
Y555081D01*
X151572D01*
Y543651D01*
X151572Y543001D01*
X151572Y541730D01*
Y530951D01*
X151572Y530301D01*
X151572Y529030D01*
Y518251D01*
X151572Y517601D01*
X151572Y516330D01*
Y511271D01*
X150302Y510429D01*
X149262Y510636D01*
X148123D01*
X147444Y511906D01*
X147505Y511996D01*
X147702Y512987D01*
Y546991D01*
X147505Y547982D01*
X146943Y548822D01*
X146103Y549383D01*
X145112Y549580D01*
X121109D01*
X120118Y549383D01*
X119278Y548822D01*
X118717Y547982D01*
X118520Y546991D01*
Y515958D01*
X117538Y515152D01*
X117229Y515213D01*
X115550D01*
X114652Y516111D01*
Y516981D01*
X114652Y518251D01*
Y522371D01*
X96572D01*
Y518251D01*
X96572Y517601D01*
X96572Y516330D01*
Y504901D01*
X114652D01*
Y505678D01*
X115922Y506204D01*
X118785Y503341D01*
X118785Y503341D01*
X120171Y502415D01*
X121807Y502090D01*
X121807Y502090D01*
X147492D01*
X166077Y483505D01*
Y481618D01*
X166046Y480261D01*
X165565Y479541D01*
X165171Y477559D01*
X165565Y475577D01*
X166688Y473896D01*
X168368Y472774D01*
X170350Y472379D01*
X171977Y472703D01*
X185888D01*
X188687Y469904D01*
X188161Y468634D01*
X182204D01*
Y451454D01*
X204274D01*
X204800Y450184D01*
X202660Y448044D01*
X183293D01*
X181657Y447719D01*
X180271Y446793D01*
X180228Y446750D01*
X179242Y447559D01*
X179528Y447989D01*
X179785Y449277D01*
Y462799D01*
X179528Y464087D01*
X178799Y465179D01*
X173946Y470032D01*
X172854Y470761D01*
X171566Y471018D01*
X152395D01*
Y480060D01*
X145005D01*
X137614D01*
Y471466D01*
X136344Y471203D01*
X131941Y475607D01*
Y492658D01*
X131684Y493946D01*
X130955Y495038D01*
X126267Y499726D01*
X125174Y500456D01*
X123886Y500712D01*
X76865D01*
X76480Y501982D01*
X76950Y502296D01*
X77788Y503550D01*
X78082Y505029D01*
Y516729D01*
X77788Y518208D01*
X76950Y519461D01*
X75696Y520299D01*
X74218Y520593D01*
X66718D01*
X65239Y520299D01*
X63985Y519461D01*
X63147Y518208D01*
X62853Y516729D01*
Y505029D01*
X63147Y503550D01*
X63985Y502296D01*
X65239Y501459D01*
X66194Y501269D01*
Y495785D01*
X40993D01*
Y489737D01*
X20179D01*
X20179Y489737D01*
X18544Y489411D01*
X17157Y488485D01*
X17157Y488485D01*
X13761Y485089D01*
X13130Y484145D01*
X11860Y484530D01*
Y500289D01*
X11883Y500394D01*
X11902Y500440D01*
X11946Y500469D01*
X12091Y500533D01*
X12363Y500606D01*
X12667Y500650D01*
X31966D01*
X33749Y501005D01*
X35262Y502015D01*
X36272Y503528D01*
X36627Y505312D01*
Y506628D01*
X36677Y506913D01*
X36750Y507130D01*
X36810Y507242D01*
X36854Y507295D01*
X36908Y507340D01*
X37020Y507400D01*
X37237Y507472D01*
X37521Y507522D01*
X44153D01*
Y505029D01*
X44447Y503550D01*
X45285Y502296D01*
X46539Y501459D01*
X48018Y501165D01*
X55518D01*
X56996Y501459D01*
X58250Y502296D01*
X59088Y503550D01*
X59382Y505029D01*
Y516729D01*
X59088Y518208D01*
X58250Y519461D01*
X56996Y520299D01*
X55518Y520593D01*
X48018D01*
X46539Y520299D01*
X45285Y519461D01*
X44447Y518208D01*
X44176Y516845D01*
X37521D01*
X37236Y516896D01*
X37020Y516968D01*
X36908Y517028D01*
X36854Y517072D01*
X36810Y517126D01*
X36750Y517238D01*
X36677Y517455D01*
X36627Y517739D01*
Y551867D01*
X53701Y568941D01*
X54712Y570453D01*
X55067Y572237D01*
Y574033D01*
X55215Y576356D01*
X55348Y577363D01*
X55513Y578217D01*
X55694Y578878D01*
X55870Y579331D01*
X55992Y579552D01*
X56169Y579625D01*
X58557Y581457D01*
X60389Y583845D01*
X61541Y586625D01*
X61934Y589609D01*
X61541Y592593D01*
X60389Y595373D01*
X58557Y597761D01*
X56169Y599593D01*
X53389Y600745D01*
X50405Y601138D01*
X47421Y600745D01*
X44641Y599593D01*
X42253Y597761D01*
X40421Y595373D01*
X39269Y592593D01*
X38876Y589609D01*
X39269Y586625D01*
X40421Y583845D01*
X42253Y581457D01*
X44641Y579625D01*
X44818Y579552D01*
X44940Y579331D01*
X45116Y578878D01*
X45297Y578217D01*
X45451Y577424D01*
X45726Y574151D01*
X28669Y557094D01*
X27659Y555582D01*
X27304Y553798D01*
Y512184D01*
Y509973D01*
X5974D01*
X3348Y510037D01*
X-137Y510340D01*
X-1530Y510555D01*
X-2733Y510811D01*
X-3709Y511095D01*
X-4445Y511387D01*
X-4932Y511655D01*
X-5090Y511781D01*
X-5095Y511787D01*
X-5203Y511870D01*
X-5398Y512025D01*
X-5417Y512034D01*
X-6992Y513243D01*
X-9201Y514158D01*
X-11571Y514470D01*
X-13941Y514158D01*
X-16150Y513243D01*
X-18047Y511787D01*
X-19502Y509891D01*
X-20417Y507682D01*
X-20729Y505312D01*
X-20417Y502941D01*
X-19502Y500732D01*
X-18047Y498836D01*
X-16150Y497380D01*
X-13941Y496465D01*
X-11571Y496153D01*
X-9201Y496465D01*
X-6992Y497380D01*
X-5417Y498588D01*
X-5398Y498598D01*
X-5202Y498753D01*
X-5095Y498836D01*
X-5090Y498843D01*
X-4932Y498968D01*
X-4445Y499236D01*
X-3709Y499528D01*
X-2733Y499812D01*
X-1530Y500068D01*
X-160Y500279D01*
X2105Y500436D01*
X3314Y499283D01*
Y433207D01*
X3639Y431571D01*
X4565Y430185D01*
X15592Y419159D01*
X15592Y419158D01*
X16978Y418232D01*
X18614Y417907D01*
X102887D01*
X103585Y416637D01*
X103317Y415290D01*
Y412938D01*
X46078D01*
Y415955D01*
X19498D01*
Y413326D01*
X-11102D01*
X-12886Y412972D01*
X-14398Y411961D01*
X-18836Y407523D01*
X-19847Y406010D01*
X-20202Y404226D01*
Y390176D01*
X-20252Y389892D01*
X-20324Y389675D01*
X-20385Y389563D01*
X-20429Y389509D01*
X-20482Y389465D01*
X-20595Y389405D01*
X-20811Y389333D01*
X-21096Y389283D01*
X-27011D01*
X-28795Y388928D01*
X-30308Y387917D01*
X-34416Y383809D01*
X-35427Y382296D01*
X-35782Y380512D01*
Y348662D01*
X-37322Y347632D01*
X-37745Y347001D01*
X-39014Y347386D01*
X-39014Y555900D01*
X-39015Y586476D01*
Y591577D01*
X-39045Y591729D01*
X-38621Y596034D01*
X-37321Y600319D01*
X-35210Y604268D01*
X-32369Y607730D01*
X-28908Y610570D01*
X-24959Y612681D01*
X-20674Y613981D01*
X-17524Y614291D01*
X-17488Y614287D01*
X-16318Y614106D01*
X-16221Y614091D01*
X-16217Y614090D01*
X-15058Y614358D01*
X302Y614143D01*
D02*
G37*
G36*
X54226Y581484D02*
X53851Y581030D01*
X53519Y580432D01*
X53232Y579691D01*
X52989Y578807D01*
X52790Y577779D01*
X52636Y576609D01*
X52459Y573838D01*
X52437Y572237D01*
X48373D01*
X48351Y573838D01*
X48020Y577779D01*
X47821Y578807D01*
X47578Y579691D01*
X47291Y580432D01*
X46959Y581030D01*
X46584Y581484D01*
X46164Y581796D01*
X54646D01*
X54226Y581484D01*
D02*
G37*
G36*
X213876Y583155D02*
X213111Y581916D01*
X212435Y580503D01*
X211849Y578915D01*
X211354Y577152D01*
X210948Y575215D01*
X210633Y573104D01*
X210273Y568357D01*
X210228Y565723D01*
X206164D01*
X206119Y568357D01*
X205758Y573104D01*
X205443Y575215D01*
X205038Y577152D01*
X204542Y578915D01*
X203957Y580503D01*
X203281Y581916D01*
X202515Y583155D01*
X201659Y584220D01*
X214732D01*
X213876Y583155D01*
D02*
G37*
G36*
X267043Y581801D02*
X266320Y580600D01*
X265681Y579166D01*
X265127Y577500D01*
X264659Y575601D01*
X264276Y573469D01*
X263978Y571105D01*
X263637Y565680D01*
X263594Y562618D01*
X259530D01*
X259488Y565680D01*
X258849Y573469D01*
X258466Y575601D01*
X257997Y577500D01*
X257444Y579166D01*
X256805Y580600D01*
X256081Y581801D01*
X255272Y582770D01*
X267852D01*
X267043Y581801D01*
D02*
G37*
G36*
X187469Y547485D02*
X187646Y547460D01*
X187922Y547438D01*
X190775Y547372D01*
X192606Y547366D01*
Y544064D01*
X187391Y543918D01*
Y547513D01*
X187469Y547485D01*
D02*
G37*
G36*
X145112Y512987D02*
X121109D01*
Y546991D01*
X145112D01*
Y512987D01*
D02*
G37*
G36*
X279033Y516058D02*
X278261Y516025D01*
X277570Y515926D01*
X276961Y515761D01*
X276432Y515530D01*
X275985Y515233D01*
X275620Y514869D01*
X275335Y514440D01*
X275132Y513945D01*
X275010Y513383D01*
X274969Y512756D01*
X271667D01*
X271627Y513383D01*
X271505Y513945D01*
X271301Y514440D01*
X271017Y514869D01*
X270651Y515233D01*
X270204Y515530D01*
X269676Y515761D01*
X269066Y515926D01*
X268375Y516025D01*
X267603Y516058D01*
X273318Y520122D01*
X279033Y516058D01*
D02*
G37*
G36*
X252532Y514794D02*
X254044Y513783D01*
X255828Y513428D01*
X268238D01*
X268542Y513385D01*
X268814Y513311D01*
X268959Y513248D01*
X269004Y513218D01*
X269022Y513172D01*
X269045Y513067D01*
Y425911D01*
X269370Y424276D01*
X270297Y422890D01*
X277946Y415241D01*
X277946Y415241D01*
X279332Y414314D01*
X280967Y413989D01*
X297132D01*
X299119Y412002D01*
Y381761D01*
X295554Y378197D01*
X221403D01*
X219768Y377871D01*
X218382Y376945D01*
X207765Y366328D01*
X206592Y366814D01*
Y377101D01*
X184512D01*
Y373927D01*
X164162D01*
X163175Y374611D01*
X163175Y375198D01*
Y391691D01*
X146095D01*
Y386659D01*
X134647D01*
Y390432D01*
X115766D01*
Y376152D01*
X134647D01*
Y379925D01*
X146095D01*
Y374611D01*
X155682D01*
X156068Y373341D01*
X155470Y372942D01*
X145695Y363167D01*
X144965Y362075D01*
X144709Y360787D01*
Y350108D01*
X143439Y349429D01*
X142938Y349764D01*
X141460Y350058D01*
X139943D01*
Y351770D01*
X139943Y351770D01*
X139618Y353405D01*
X138692Y354792D01*
X134062Y359422D01*
X132675Y360348D01*
X131040Y360673D01*
X113630D01*
X111863Y362440D01*
Y398119D01*
X115766D01*
Y395252D01*
X134647D01*
Y409532D01*
X115766D01*
Y406665D01*
X111863D01*
Y408721D01*
X111863Y408721D01*
X111863Y408721D01*
Y413520D01*
X113059Y414716D01*
X133493D01*
X134850Y414685D01*
X135570Y414204D01*
X137552Y413810D01*
X139534Y414204D01*
X141215Y415327D01*
X142337Y417007D01*
X142732Y418989D01*
X142337Y420971D01*
X142019Y421447D01*
X142698Y422717D01*
X176187D01*
X177823Y423042D01*
X179209Y423969D01*
X180934Y425693D01*
X182204Y425167D01*
Y422454D01*
X192574D01*
Y431044D01*
X193844D01*
Y432314D01*
X205483D01*
Y438570D01*
X205745Y439759D01*
X205745Y439759D01*
X206066Y439823D01*
X206543Y440142D01*
X206543Y440142D01*
X206848Y440346D01*
X207452Y440750D01*
X212759Y446057D01*
X213686Y447443D01*
X214011Y449079D01*
Y469961D01*
X213686Y471596D01*
X212759Y472982D01*
X212759Y472983D01*
X198634Y487108D01*
X198955Y487725D01*
X199383Y488155D01*
X200676Y487898D01*
X203159D01*
Y485954D01*
X203415Y484665D01*
X204145Y483573D01*
X207229Y480489D01*
X208321Y479760D01*
X209609Y479503D01*
X209609Y479503D01*
X232225D01*
X233785Y477944D01*
Y463237D01*
X222126D01*
Y448857D01*
X224436D01*
Y446054D01*
X219763D01*
Y430974D01*
X235842D01*
X235842Y430973D01*
X236763D01*
Y430974D01*
X237113Y430974D01*
X252843D01*
Y446054D01*
X248138D01*
X247913Y447187D01*
X247645Y447587D01*
X248324Y448857D01*
X251506D01*
Y463237D01*
X249250D01*
Y491918D01*
X248925Y493554D01*
X247999Y494940D01*
X247999Y494940D01*
X244326Y498613D01*
X242939Y499539D01*
X241304Y499865D01*
X236879D01*
X236689Y500820D01*
X235851Y502074D01*
X234597Y502912D01*
X233118Y503206D01*
X221418D01*
X219940Y502912D01*
X218686Y502074D01*
X217848Y500820D01*
X217554Y499342D01*
Y491842D01*
X217848Y490363D01*
X218686Y489109D01*
X219940Y488271D01*
X221418Y487977D01*
X233118D01*
X234597Y488271D01*
X235851Y489109D01*
X236689Y490363D01*
X236879Y491319D01*
X239534D01*
X240704Y490149D01*
Y482251D01*
X239846Y481862D01*
X239434Y481817D01*
X236001Y485251D01*
X234908Y485980D01*
X233620Y486237D01*
X211825D01*
X211559Y486628D01*
X212232Y487898D01*
X212376D01*
X213854Y488192D01*
X215108Y489030D01*
X215946Y490283D01*
X216240Y491762D01*
Y499262D01*
X215946Y500741D01*
X215108Y501995D01*
X213854Y502832D01*
X212376Y503126D01*
X200676D01*
X199197Y502832D01*
X197943Y501995D01*
X197106Y500741D01*
X196811Y499262D01*
Y491762D01*
X197069Y490470D01*
X196639Y490041D01*
X196021Y489721D01*
X187630Y498112D01*
Y507736D01*
X187661Y509094D01*
X188142Y509813D01*
X188536Y511795D01*
X188142Y513777D01*
X187020Y515458D01*
X185339Y516581D01*
X183357Y516975D01*
X181375Y516581D01*
X180746Y516160D01*
X177465Y516068D01*
X170550D01*
X169652Y516966D01*
X169652Y518469D01*
X170550Y519367D01*
X196090D01*
X196896Y518386D01*
X196811Y517962D01*
Y510462D01*
X197106Y508983D01*
X197943Y507730D01*
X199197Y506892D01*
X200676Y506598D01*
X212376D01*
X213854Y506892D01*
X215108Y507730D01*
X215946Y508983D01*
X216240Y510462D01*
Y517962D01*
X215946Y519441D01*
X215108Y520695D01*
X213854Y521532D01*
X212376Y521826D01*
X210110D01*
X209547Y522668D01*
X205554Y526662D01*
X204167Y527588D01*
X202532Y527913D01*
X170550D01*
X169652Y528811D01*
Y530199D01*
X170550Y531097D01*
X210288D01*
X219133Y522253D01*
X219008Y520989D01*
X218686Y520774D01*
X217848Y519520D01*
X217554Y518042D01*
Y510542D01*
X217848Y509063D01*
X218686Y507809D01*
X219940Y506972D01*
X221418Y506677D01*
X233118D01*
X234597Y506972D01*
X235851Y507809D01*
X236689Y509063D01*
X236983Y510542D01*
Y518042D01*
X236689Y519520D01*
X235851Y520774D01*
X234597Y521612D01*
X233118Y521906D01*
X231143D01*
X230290Y523182D01*
X215080Y538392D01*
X213693Y539318D01*
X212058Y539644D01*
X188650D01*
X188130Y540914D01*
X188586Y541361D01*
X191488Y541442D01*
X196135D01*
X197770Y541768D01*
X199156Y542694D01*
X201565Y545103D01*
X202491Y546489D01*
X202817Y548124D01*
X202817Y548124D01*
Y549887D01*
X203065Y549936D01*
X204746Y551059D01*
X205869Y552740D01*
X206263Y554722D01*
Y559267D01*
X207533Y559793D01*
X252532Y514794D01*
D02*
G37*
G36*
X34038Y517508D02*
X34160Y516817D01*
X34363Y516207D01*
X34648Y515679D01*
X35014Y515232D01*
X35461Y514866D01*
X35989Y514582D01*
X36599Y514378D01*
X37290Y514257D01*
X38062Y514216D01*
Y510152D01*
X37290Y510111D01*
X36599Y509989D01*
X35989Y509786D01*
X35461Y509502D01*
X35014Y509136D01*
X34648Y508689D01*
X34363Y508161D01*
X34160Y507551D01*
X34038Y506860D01*
X33998Y506088D01*
X29934Y512184D01*
X33998Y518280D01*
X34038Y517508D01*
D02*
G37*
G36*
X181562Y510000D02*
X185154D01*
X185126Y509922D01*
X185102Y509745D01*
X185080Y509469D01*
X185014Y506616D01*
X185008Y504785D01*
X181706D01*
X181560Y509999D01*
X181484Y510026D01*
X181307Y510051D01*
X181031Y510073D01*
X178177Y510138D01*
X176347Y510144D01*
Y513446D01*
X181562Y513592D01*
Y510000D01*
D02*
G37*
G36*
X-6371Y509491D02*
X-5552Y509040D01*
X-4550Y508643D01*
X-3365Y508298D01*
X-1998Y508006D01*
X-447Y507768D01*
X3204Y507450D01*
X7587Y507343D01*
X13302Y503279D01*
X12530Y503246D01*
X11839Y503147D01*
X11229Y502982D01*
X10701Y502751D01*
X10254Y502454D01*
X9888Y502091D01*
X9604Y501661D01*
X9401Y501166D01*
X9279Y500605D01*
X9238Y499977D01*
X5936D01*
X5895Y500605D01*
X5773Y501166D01*
X5570Y501661D01*
X5286Y502091D01*
X4920Y502454D01*
X4473Y502751D01*
X3945Y502982D01*
X3425Y503123D01*
X-447Y502855D01*
X-1998Y502617D01*
X-3365Y502325D01*
X-4550Y501980D01*
X-5552Y501583D01*
X-6371Y501132D01*
X-7006Y500628D01*
Y509995D01*
X-6371Y509491D01*
D02*
G37*
G36*
X52148Y484188D02*
X52079Y484023D01*
X52018Y483802D01*
X51965Y483526D01*
X51920Y483194D01*
X51855Y482362D01*
X51819Y480697D01*
X50295D01*
X50291Y481308D01*
X50148Y483526D01*
X50096Y483802D01*
X50035Y484023D01*
X49966Y484188D01*
X49888Y484297D01*
X52225D01*
X52148Y484188D01*
D02*
G37*
G36*
X172147Y479354D02*
X168553D01*
X168581Y479432D01*
X168606Y479609D01*
X168628Y479885D01*
X168693Y482738D01*
X168699Y484569D01*
X172001D01*
X172147Y479354D01*
D02*
G37*
G36*
X108014Y470140D02*
X111131D01*
Y452291D01*
X111457Y450655D01*
X112383Y449269D01*
X117477Y444175D01*
X118864Y443248D01*
X120499Y442923D01*
X132478D01*
Y441165D01*
X107813D01*
X107485Y441702D01*
X107275Y442435D01*
X107823Y443255D01*
X108059Y444441D01*
Y447441D01*
X107823Y448627D01*
X107446Y449191D01*
X107823Y449755D01*
X108059Y450941D01*
Y451171D01*
X87259D01*
Y450941D01*
X87495Y449755D01*
X87872Y449191D01*
X87495Y448627D01*
X87259Y447441D01*
Y444441D01*
X87495Y443255D01*
X88167Y442249D01*
X89173Y441578D01*
X90359Y441342D01*
X94292D01*
Y439728D01*
X94549Y438440D01*
X95278Y437348D01*
X96046Y436580D01*
X95520Y435310D01*
X80793D01*
X80408Y436580D01*
X80611Y436716D01*
X81734Y438396D01*
X81876Y439109D01*
X76949D01*
Y440379D01*
X75679D01*
Y442174D01*
X75152D01*
X75180Y442252D01*
X75205Y442429D01*
X75226Y442704D01*
X75285Y445227D01*
X74967Y445164D01*
X73287Y444041D01*
X72164Y442361D01*
X72048Y441779D01*
X70670Y441361D01*
X63709Y448322D01*
X62617Y449052D01*
X61329Y449308D01*
X51335D01*
X50387Y450578D01*
X50459Y450941D01*
Y453941D01*
X50223Y455127D01*
X49846Y455691D01*
X50223Y456255D01*
X50459Y457441D01*
Y460441D01*
X50387Y460805D01*
X51335Y462075D01*
X86383D01*
X87332Y460805D01*
X87259Y460441D01*
Y460211D01*
X108059D01*
Y460441D01*
X107823Y461628D01*
X107446Y462191D01*
X107823Y462755D01*
X108059Y463941D01*
Y466941D01*
X107823Y468127D01*
X107151Y469133D01*
X106145Y469805D01*
X104959Y470041D01*
X100317D01*
X99791Y471311D01*
X100721Y472241D01*
X101451Y473333D01*
X101707Y474621D01*
Y489572D01*
X102050Y489915D01*
X108014D01*
Y470140D01*
D02*
G37*
G36*
X135757Y417192D02*
X135679Y417220D01*
X135502Y417245D01*
X135226Y417267D01*
X132373Y417332D01*
X130542Y417338D01*
Y420640D01*
X135757Y420787D01*
Y417192D01*
D02*
G37*
G36*
X77498Y386935D02*
X90788D01*
Y385665D01*
X92058D01*
Y366875D01*
X103317D01*
Y360670D01*
X103642Y359035D01*
X104568Y357648D01*
X107383Y354833D01*
X106897Y353660D01*
X98760D01*
X98620Y354048D01*
X98549Y354930D01*
X100029Y355919D01*
X101152Y357599D01*
X101546Y359582D01*
X101152Y361564D01*
X100029Y363244D01*
X98349Y364367D01*
X96367Y364761D01*
X94385Y364367D01*
X93321Y363656D01*
X93145Y363570D01*
X92969Y363437D01*
X92872Y363379D01*
X92719Y363307D01*
X92504Y363228D01*
X92228Y363150D01*
X91890Y363079D01*
X91523Y363023D01*
X90569Y362948D01*
X89971D01*
X88683Y362692D01*
X87591Y361962D01*
X83608Y357979D01*
X46078D01*
Y369954D01*
X19498D01*
Y367326D01*
X-7520D01*
X-10879Y370684D01*
Y384621D01*
Y402296D01*
X-9171Y404003D01*
X19498D01*
Y401375D01*
X46078D01*
Y404392D01*
X77498D01*
Y386935D01*
D02*
G37*
G36*
X-13508Y384621D02*
X-17572Y378525D01*
X-17613Y379297D01*
X-17735Y379988D01*
X-17938Y380598D01*
X-18223Y381126D01*
X-18588Y381573D01*
X-19035Y381939D01*
X-19564Y382223D01*
X-20173Y382426D01*
X-20864Y382548D01*
X-21636Y382589D01*
Y386653D01*
X-20864Y386694D01*
X-20173Y386816D01*
X-19564Y387019D01*
X-19035Y387303D01*
X-18588Y387669D01*
X-18223Y388116D01*
X-17938Y388644D01*
X-17735Y389254D01*
X-17613Y389945D01*
X-17572Y390717D01*
X-13508Y384621D01*
D02*
G37*
G36*
X94711Y357655D02*
X94420Y357876D01*
X94088Y358074D01*
X93716Y358249D01*
X93302Y358400D01*
X92849Y358529D01*
X92354Y358633D01*
X91820Y358715D01*
X90628Y358808D01*
X89971Y358820D01*
Y360344D01*
X90628Y360355D01*
X91820Y360448D01*
X92354Y360530D01*
X92849Y360635D01*
X93302Y360763D01*
X93716Y360914D01*
X94088Y361089D01*
X94420Y361287D01*
X94711Y361508D01*
Y357655D01*
D02*
G37*
G36*
X157061Y355798D02*
X157238Y355773D01*
X157514Y355751D01*
X160367Y355686D01*
X162198Y355680D01*
Y352378D01*
X156983Y352232D01*
Y355826D01*
X157061Y355798D01*
D02*
G37*
G36*
X-9331Y354000D02*
X-9015Y353824D01*
X-8626Y353669D01*
X-8164Y353534D01*
X-7630Y353420D01*
X-7023Y353327D01*
X-5590Y353203D01*
X-3867Y353161D01*
Y351637D01*
X-4765Y351627D01*
X-7023Y351472D01*
X-7630Y351379D01*
X-8164Y351265D01*
X-8626Y351130D01*
X-9015Y350975D01*
X-9331Y350799D01*
X-9575Y350602D01*
Y354197D01*
X-9331Y354000D01*
D02*
G37*
G36*
X8986Y344461D02*
X9068Y343216D01*
X9118Y342894D01*
X9178Y342618D01*
X9250Y342389D01*
X9332Y342207D01*
X9425Y342071D01*
X9530Y341981D01*
X6907D01*
X7011Y342071D01*
X7105Y342207D01*
X7187Y342389D01*
X7259Y342618D01*
X7319Y342894D01*
X7369Y343216D01*
X7434Y343999D01*
X7456Y344969D01*
X8980D01*
X8986Y344461D01*
D02*
G37*
G36*
X174120Y339477D02*
X174196Y339450D01*
X174373Y339425D01*
X174649Y339403D01*
X177503Y339337D01*
X179333Y339332D01*
Y336030D01*
X174118Y335883D01*
Y339476D01*
X170526D01*
X170554Y339554D01*
X170578Y339731D01*
X170600Y340006D01*
X170666Y342860D01*
X170672Y344691D01*
X173974D01*
X174120Y339477D01*
D02*
G37*
G36*
X174099Y335864D02*
X174058Y335774D01*
X174021Y335586D01*
X173988Y335301D01*
X173936Y334441D01*
X173882Y330596D01*
X170580Y330753D01*
X170504Y335908D01*
X174099Y335864D01*
D02*
G37*
G36*
X148853Y325740D02*
X148899Y325481D01*
X148975Y325252D01*
X149082Y325054D01*
X149219Y324887D01*
X149387Y324749D01*
X149585Y324643D01*
X149813Y324566D01*
X150072Y324521D01*
X150362Y324506D01*
X148076Y322982D01*
X145790Y324506D01*
X146079Y324521D01*
X146339Y324566D01*
X146567Y324643D01*
X146765Y324749D01*
X146933Y324887D01*
X147070Y325054D01*
X147177Y325252D01*
X147253Y325481D01*
X147299Y325740D01*
X147314Y326030D01*
X148838D01*
X148853Y325740D01*
D02*
G37*
G36*
X174028Y314130D02*
X170434D01*
X170462Y314209D01*
X170487Y314386D01*
X170509Y314661D01*
X170574Y317515D01*
X170580Y319346D01*
X173882D01*
X174028Y314130D01*
D02*
G37*
G36*
X152402Y312031D02*
X152159Y312227D01*
X151842Y312403D01*
X151453Y312558D01*
X150992Y312693D01*
X150457Y312807D01*
X149850Y312900D01*
X148418Y313024D01*
X146694Y313066D01*
Y314590D01*
X147592Y314600D01*
X149850Y314755D01*
X150457Y314848D01*
X150992Y314962D01*
X151453Y315097D01*
X151842Y315252D01*
X152159Y315428D01*
X152402Y315625D01*
Y312031D01*
D02*
G37*
G36*
X-13066Y310183D02*
X-16660D01*
X-16633Y310261D01*
X-16608Y310438D01*
X-16586Y310714D01*
X-16520Y313567D01*
X-16514Y315398D01*
X-13212D01*
X-13066Y310183D01*
D02*
G37*
G36*
X142977Y303778D02*
X142903Y303841D01*
X142782Y303897D01*
X142616Y303947D01*
X142403Y303990D01*
X142144Y304027D01*
X141489Y304080D01*
X140160Y304109D01*
Y305633D01*
X140591Y305638D01*
X141629Y305703D01*
X141890Y305742D01*
X142108Y305790D01*
X142284Y305846D01*
X142417Y305911D01*
X142507Y305985D01*
X142554Y306067D01*
X142977Y303778D01*
D02*
G37*
G36*
X105760Y306820D02*
X106095Y306606D01*
X106498Y306417D01*
X106968Y306253D01*
X107506Y306114D01*
X108111Y306000D01*
X108784Y305912D01*
X110331Y305811D01*
X111207Y305799D01*
X111019Y304275D01*
X110101Y304267D01*
X107208Y304072D01*
X106680Y303983D01*
X106231Y303878D01*
X105860Y303757D01*
X105567Y303619D01*
X105352Y303465D01*
X105492Y307060D01*
X105760Y306820D01*
D02*
G37*
G36*
X128110Y303014D02*
X127842Y303253D01*
X127507Y303468D01*
X127104Y303657D01*
X126634Y303821D01*
X126096Y303960D01*
X125491Y304073D01*
X124818Y304161D01*
X123270Y304262D01*
X122395Y304275D01*
X122582Y305799D01*
X123501Y305807D01*
X126394Y306001D01*
X126922Y306090D01*
X127371Y306195D01*
X127742Y306317D01*
X128035Y306454D01*
X128250Y306608D01*
X128110Y303014D01*
D02*
G37*
G36*
X87409Y298196D02*
X87725Y298020D01*
X88114Y297864D01*
X88576Y297730D01*
X89111Y297616D01*
X89718Y297523D01*
X91150Y297399D01*
X92873Y297357D01*
Y295833D01*
X91975Y295823D01*
X89718Y295668D01*
X89111Y295574D01*
X88576Y295461D01*
X88114Y295326D01*
X87725Y295171D01*
X87409Y294995D01*
X87165Y294798D01*
Y298393D01*
X87409Y298196D01*
D02*
G37*
G36*
X186042Y275700D02*
X186137Y274378D01*
X186194Y274033D01*
X186265Y273735D01*
X186347Y273484D01*
X186443Y273282D01*
X186551Y273127D01*
X186672Y273019D01*
X183875D01*
X183996Y273127D01*
X184104Y273282D01*
X184200Y273484D01*
X184282Y273735D01*
X184352Y274033D01*
X184410Y274378D01*
X184486Y275212D01*
X184511Y276235D01*
X186035D01*
X186042Y275700D01*
D02*
G37*
G36*
X5113Y262434D02*
X5268Y260176D01*
X5361Y259569D01*
X5475Y259035D01*
X5609Y258573D01*
X5765Y258184D01*
X5941Y257867D01*
X6137Y257624D01*
X2543D01*
X2740Y257867D01*
X2916Y258184D01*
X3071Y258573D01*
X3205Y259035D01*
X3319Y259569D01*
X3413Y260176D01*
X3537Y261609D01*
X3578Y263332D01*
X5102D01*
X5113Y262434D01*
D02*
G37*
G36*
X-31224Y200041D02*
X-31400Y199725D01*
X-31555Y199336D01*
X-31690Y198874D01*
X-31803Y198340D01*
X-31897Y197733D01*
X-32021Y196300D01*
X-32062Y194577D01*
X-33586D01*
X-33596Y195475D01*
X-33752Y197733D01*
X-33845Y198340D01*
X-33959Y198874D01*
X-34093Y199336D01*
X-34249Y199725D01*
X-34425Y200041D01*
X-34621Y200285D01*
X-31027D01*
X-31224Y200041D01*
D02*
G37*
G36*
X49413Y114762D02*
X49489Y114735D01*
X49666Y114711D01*
X49942Y114689D01*
X52796Y114623D01*
X54626Y114617D01*
Y111315D01*
X49411Y111169D01*
Y114761D01*
X45819D01*
X45847Y114839D01*
X45871Y115016D01*
X45893Y115292D01*
X45959Y118146D01*
X45965Y119976D01*
X49267D01*
X49413Y114762D01*
D02*
G37*
G36*
X50543Y99796D02*
X50628Y98640D01*
X50704Y98128D01*
X50800Y97661D01*
X50918Y97238D01*
X51057Y96860D01*
X51218Y96525D01*
X51400Y96235D01*
X51604Y95989D01*
X47936D01*
X48140Y96235D01*
X48322Y96525D01*
X48483Y96860D01*
X48622Y97238D01*
X48740Y97661D01*
X48836Y98128D01*
X48912Y98640D01*
X48997Y99796D01*
X49008Y100440D01*
X50532D01*
X50543Y99796D01*
D02*
G37*
G36*
X70073Y69251D02*
X70229Y66993D01*
X70322Y66386D01*
X70436Y65852D01*
X70570Y65390D01*
X70725Y65001D01*
X70901Y64685D01*
X71098Y64441D01*
X67504D01*
X67700Y64685D01*
X67876Y65001D01*
X68032Y65390D01*
X68166Y65852D01*
X68280Y66386D01*
X68373Y66993D01*
X68497Y68426D01*
X68539Y70149D01*
X70063D01*
X70073Y69251D01*
D02*
G37*
G36*
X145111Y55203D02*
X145210Y54855D01*
X145375Y54470D01*
X145606Y54048D01*
X145904Y53590D01*
X146267Y53094D01*
X147192Y51994D01*
X148382Y50746D01*
X147304Y49668D01*
X146662Y50296D01*
X144956Y51782D01*
X144460Y52146D01*
X144002Y52443D01*
X143580Y52675D01*
X143195Y52840D01*
X142847Y52939D01*
X142536Y52972D01*
X145077Y55514D01*
X145111Y55203D01*
D02*
G37*
G36*
X133556Y33109D02*
X133466Y32938D01*
X133386Y32743D01*
X133317Y32523D01*
X133259Y32279D01*
X133211Y32010D01*
X133147Y31399D01*
X133131Y31056D01*
X133126Y30689D01*
X131602D01*
X131596Y31056D01*
X131517Y32010D01*
X131469Y32279D01*
X131410Y32523D01*
X131341Y32743D01*
X131262Y32938D01*
X131171Y33109D01*
X131070Y33256D01*
X133657D01*
X133556Y33109D01*
D02*
G37*
G36*
X161413Y-13189D02*
X161500Y-14464D01*
X161553Y-14796D01*
X161617Y-15080D01*
X161693Y-15317D01*
X161780Y-15507D01*
X161879Y-15650D01*
X161990Y-15747D01*
X159299D01*
X159410Y-15650D01*
X159509Y-15507D01*
X159597Y-15317D01*
X159673Y-15080D01*
X159737Y-14796D01*
X159789Y-14464D01*
X159860Y-13661D01*
X159883Y-12670D01*
X161407D01*
X161413Y-13189D01*
D02*
G37*
%LPC*%
G36*
X81354Y601503D02*
Y591412D01*
X91445D01*
X91220Y593126D01*
X90068Y595906D01*
X88236Y598294D01*
X85848Y600126D01*
X83068Y601278D01*
X81354Y601503D01*
D02*
G37*
G36*
X78814D02*
X77100Y601278D01*
X74319Y600126D01*
X71932Y598294D01*
X70100Y595906D01*
X68948Y593126D01*
X68722Y591412D01*
X78814D01*
Y601503D01*
D02*
G37*
G36*
X235465Y601022D02*
Y590931D01*
X245556D01*
X245330Y592645D01*
X244179Y595425D01*
X242347Y597813D01*
X239959Y599645D01*
X237178Y600797D01*
X235465Y601022D01*
D02*
G37*
G36*
X232925D02*
X231211Y600797D01*
X228430Y599645D01*
X226043Y597813D01*
X224210Y595425D01*
X223059Y592645D01*
X222833Y590931D01*
X232925D01*
Y601022D01*
D02*
G37*
G36*
X1090Y612591D02*
Y581320D01*
X32361D01*
X32059Y585156D01*
X30863Y590136D01*
X28903Y594869D01*
X26227Y599236D01*
X22900Y603130D01*
X19006Y606457D01*
X14639Y609133D01*
X9906Y611093D01*
X4926Y612289D01*
X1090Y612591D01*
D02*
G37*
G36*
X-1450D02*
X-5286Y612289D01*
X-10266Y611093D01*
X-14999Y609133D01*
X-19366Y606457D01*
X-23260Y603130D01*
X-26587Y599236D01*
X-29263Y594869D01*
X-31223Y590136D01*
X-32419Y585156D01*
X-32721Y581320D01*
X-1450D01*
Y612591D01*
D02*
G37*
G36*
X91445Y588872D02*
X81354D01*
Y583860D01*
X86374D01*
X85565Y582891D01*
X84841Y581689D01*
X84202Y580255D01*
X83902Y579352D01*
X85848Y580158D01*
X88236Y581990D01*
X90068Y584378D01*
X91220Y587158D01*
X91445Y588872D01*
D02*
G37*
G36*
X78814D02*
X68722D01*
X68948Y587158D01*
X70100Y584378D01*
X71932Y581990D01*
X74319Y580158D01*
X76265Y579352D01*
X75965Y580255D01*
X75326Y581689D01*
X74603Y582891D01*
X73794Y583860D01*
X78814D01*
Y588872D01*
D02*
G37*
G36*
X245556Y588391D02*
X235465D01*
Y578300D01*
X237178Y578525D01*
X239959Y579677D01*
X242347Y581509D01*
X244179Y583897D01*
X245330Y586677D01*
X245556Y588391D01*
D02*
G37*
G36*
X232925D02*
X222833D01*
X223059Y586677D01*
X224210Y583897D01*
X226043Y581509D01*
X228430Y579677D01*
X231211Y578525D01*
X232925Y578300D01*
Y588391D01*
D02*
G37*
G36*
X132701Y584706D02*
X113371D01*
Y564126D01*
X132701D01*
Y564127D01*
X133641D01*
Y573567D01*
Y583007D01*
X132701D01*
Y584706D01*
D02*
G37*
G36*
X114652Y555081D02*
X106882D01*
Y550311D01*
X114652D01*
Y555081D01*
D02*
G37*
G36*
X104342D02*
X96572D01*
Y550311D01*
X104342D01*
Y555081D01*
D02*
G37*
G36*
X32361Y578780D02*
X1090D01*
Y547509D01*
X4926Y547811D01*
X9906Y549007D01*
X14639Y550967D01*
X19006Y553643D01*
X22900Y556970D01*
X26227Y560864D01*
X28903Y565232D01*
X30863Y569963D01*
X32059Y574944D01*
X32361Y578780D01*
D02*
G37*
G36*
X-1450D02*
X-32721D01*
X-32419Y574944D01*
X-31223Y569963D01*
X-29263Y565232D01*
X-26587Y560864D01*
X-23260Y556970D01*
X-19366Y553643D01*
X-14999Y550967D01*
X-10266Y549007D01*
X-5286Y547811D01*
X-1450Y547509D01*
Y578780D01*
D02*
G37*
G36*
X338615Y578675D02*
X307344D01*
Y547404D01*
X311180Y547706D01*
X316161Y548902D01*
X320893Y550862D01*
X325260Y553538D01*
X329155Y556864D01*
X332481Y560759D01*
X335157Y565126D01*
X337117Y569858D01*
X338313Y574839D01*
X338615Y578675D01*
D02*
G37*
G36*
X304804D02*
X273534D01*
X273836Y574839D01*
X275031Y569858D01*
X276991Y565126D01*
X279667Y560759D01*
X282994Y556864D01*
X286889Y553538D01*
X291256Y550862D01*
X295988Y548902D01*
X300968Y547706D01*
X304804Y547404D01*
Y578675D01*
D02*
G37*
G36*
X114652Y547771D02*
X96572D01*
Y543651D01*
X96572Y543001D01*
X96572Y541511D01*
X95674Y540613D01*
X83788D01*
Y545030D01*
X69008D01*
Y522650D01*
X83788D01*
Y532067D01*
X95674D01*
X96572Y531169D01*
Y530301D01*
X96572Y529030D01*
Y524911D01*
X114652D01*
Y529030D01*
X114652Y529681D01*
X114652Y530951D01*
Y541730D01*
X114652Y542381D01*
X114652Y543651D01*
Y547771D01*
D02*
G37*
G36*
X54188Y545030D02*
X48068D01*
Y535110D01*
X54188D01*
Y545030D01*
D02*
G37*
G36*
X45528D02*
X39408D01*
Y535110D01*
X45528D01*
Y545030D01*
D02*
G37*
G36*
X54188Y532570D02*
X48068D01*
Y522650D01*
X54188D01*
Y532570D01*
D02*
G37*
G36*
X45528D02*
X39408D01*
Y522650D01*
X45528D01*
Y532570D01*
D02*
G37*
G36*
X-11571Y536438D02*
X-14192Y536093D01*
X-16634Y535081D01*
X-18732Y533472D01*
X-20341Y531375D01*
X-21353Y528932D01*
X-21698Y526311D01*
X-21353Y523690D01*
X-20341Y521248D01*
X-18732Y519151D01*
X-16634Y517542D01*
X-14192Y516530D01*
X-11571Y516185D01*
X-8950Y516530D01*
X-6508Y517542D01*
X-4410Y519151D01*
X-2801Y521248D01*
X-1789Y523690D01*
X-1444Y526311D01*
X-1789Y528932D01*
X-2801Y531375D01*
X-4410Y533472D01*
X-6508Y535081D01*
X-8950Y536093D01*
X-11571Y536438D01*
D02*
G37*
G36*
X152395Y492520D02*
X146274D01*
Y482600D01*
X152395D01*
Y492520D01*
D02*
G37*
G36*
X143735D02*
X137614D01*
Y482600D01*
X143735D01*
Y492520D01*
D02*
G37*
G36*
X-11571Y494470D02*
X-13941Y494158D01*
X-16150Y493243D01*
X-18047Y491787D01*
X-19502Y489891D01*
X-20417Y487682D01*
X-20729Y485312D01*
X-20417Y482941D01*
X-19502Y480732D01*
X-18047Y478836D01*
X-16150Y477380D01*
X-13941Y476465D01*
X-11571Y476153D01*
X-9201Y476465D01*
X-6992Y477380D01*
X-5095Y478836D01*
X-3640Y480732D01*
X-2725Y482941D01*
X-2413Y485312D01*
X-2725Y487682D01*
X-3640Y489891D01*
X-5095Y491787D01*
X-6992Y493243D01*
X-9201Y494158D01*
X-11571Y494470D01*
D02*
G37*
G36*
X-2491Y474392D02*
X-20651D01*
Y456231D01*
X-2491D01*
Y474392D01*
D02*
G37*
G36*
X-11571Y454438D02*
X-14192Y454093D01*
X-16634Y453081D01*
X-18732Y451472D01*
X-20341Y449375D01*
X-21353Y446932D01*
X-21698Y444311D01*
X-21353Y441690D01*
X-20341Y439248D01*
X-18732Y437151D01*
X-16634Y435542D01*
X-14192Y434530D01*
X-11571Y434185D01*
X-8950Y434530D01*
X-6508Y435542D01*
X-4410Y437151D01*
X-2801Y439248D01*
X-1789Y441690D01*
X-1444Y444311D01*
X-1789Y446932D01*
X-2801Y449375D01*
X-4410Y451472D01*
X-6508Y453081D01*
X-8950Y454093D01*
X-11571Y454438D01*
D02*
G37*
G36*
X304391Y485557D02*
X302408Y485163D01*
X302270Y485070D01*
X302229Y485062D01*
X300717Y484051D01*
X299706Y482539D01*
X299698Y482498D01*
X299605Y482360D01*
X299211Y480378D01*
X299605Y478395D01*
X299729Y478210D01*
Y450494D01*
X298051D01*
Y432714D01*
X309480D01*
X310730Y432714D01*
X312001Y432714D01*
X323430D01*
Y450494D01*
X321752D01*
Y465307D01*
X321876Y465492D01*
X322270Y467474D01*
X321876Y469456D01*
X320753Y471137D01*
X319073Y472260D01*
X317091Y472654D01*
X315108Y472260D01*
X313428Y471137D01*
X312305Y469456D01*
X311911Y467474D01*
X312305Y465492D01*
X312429Y465307D01*
Y451392D01*
X311531Y450494D01*
X309950D01*
X309052Y451392D01*
Y478210D01*
X309176Y478395D01*
X309570Y480378D01*
X309176Y482360D01*
X308053Y484040D01*
X306373Y485163D01*
X304391Y485557D01*
D02*
G37*
G36*
X253698Y366048D02*
X251665Y365781D01*
X249770Y364996D01*
X248143Y363747D01*
X246894Y362120D01*
X246109Y360225D01*
X245841Y358191D01*
X246109Y356158D01*
X246894Y354263D01*
X248143Y352635D01*
X249770Y351387D01*
X251665Y350602D01*
X253698Y350334D01*
X255732Y350602D01*
X257627Y351387D01*
X259254Y352635D01*
X260503Y354263D01*
X261288Y356158D01*
X261556Y358191D01*
X261288Y360225D01*
X260503Y362120D01*
X259254Y363747D01*
X257627Y364996D01*
X255732Y365781D01*
X253698Y366048D01*
D02*
G37*
G36*
X242242Y351936D02*
Y348279D01*
X245898D01*
X245757Y348991D01*
X244634Y350671D01*
X242954Y351794D01*
X242242Y351936D01*
D02*
G37*
G36*
X239702D02*
X238990Y351794D01*
X237309Y350671D01*
X236186Y348991D01*
X236045Y348279D01*
X239702D01*
Y351936D01*
D02*
G37*
G36*
X245898Y345739D02*
X242242D01*
Y342082D01*
X242954Y342224D01*
X244634Y343346D01*
X245757Y345027D01*
X245898Y345739D01*
D02*
G37*
G36*
X239702D02*
X236045D01*
X236186Y345027D01*
X237309Y343346D01*
X238990Y342224D01*
X239702Y342082D01*
Y345739D01*
D02*
G37*
G36*
X321646Y341976D02*
Y338319D01*
X325303D01*
X325161Y339031D01*
X324038Y340711D01*
X322358Y341834D01*
X321646Y341976D01*
D02*
G37*
G36*
X319106D02*
X318394Y341834D01*
X316713Y340711D01*
X315590Y339031D01*
X315449Y338319D01*
X319106D01*
Y341976D01*
D02*
G37*
G36*
X325303Y335779D02*
X321646D01*
Y332122D01*
X322358Y332263D01*
X324038Y333386D01*
X325161Y335066D01*
X325303Y335779D01*
D02*
G37*
G36*
X319106D02*
X315449D01*
X315590Y335066D01*
X316713Y333386D01*
X318394Y332263D01*
X319106Y332122D01*
Y335779D01*
D02*
G37*
G36*
X20628Y314585D02*
Y310928D01*
X24285D01*
X24143Y311640D01*
X23021Y313321D01*
X21340Y314443D01*
X20628Y314585D01*
D02*
G37*
G36*
X18088D02*
X17376Y314443D01*
X15696Y313321D01*
X14573Y311640D01*
X14431Y310928D01*
X18088D01*
Y314585D01*
D02*
G37*
G36*
X237538Y316248D02*
X228745D01*
Y307197D01*
X237538D01*
Y316248D01*
D02*
G37*
G36*
X24285Y308388D02*
X20628D01*
Y304731D01*
X21340Y304873D01*
X23021Y305996D01*
X24143Y307676D01*
X24285Y308388D01*
D02*
G37*
G36*
X18088D02*
X14431D01*
X14573Y307676D01*
X15696Y305996D01*
X17376Y304873D01*
X18088Y304731D01*
Y308388D01*
D02*
G37*
G36*
X89065Y314660D02*
X87083Y314266D01*
X85403Y313143D01*
X84280Y311463D01*
X83886Y309481D01*
X84280Y307499D01*
X85403Y305818D01*
X87083Y304695D01*
X89065Y304301D01*
X91047Y304695D01*
X92728Y305818D01*
X93851Y307499D01*
X94245Y309481D01*
X93851Y311463D01*
X92728Y313143D01*
X91047Y314266D01*
X89065Y314660D01*
D02*
G37*
G36*
X237538Y304657D02*
X228745D01*
Y295606D01*
X237538D01*
Y304657D01*
D02*
G37*
G36*
X68751Y283101D02*
Y279445D01*
X72408D01*
X72267Y280157D01*
X71144Y281837D01*
X69463Y282960D01*
X68751Y283101D01*
D02*
G37*
G36*
X66211D02*
X65499Y282960D01*
X63819Y281837D01*
X62696Y280157D01*
X62554Y279445D01*
X66211D01*
Y283101D01*
D02*
G37*
G36*
X237579Y288854D02*
X227809D01*
Y278584D01*
X237579D01*
Y288854D01*
D02*
G37*
G36*
X225269D02*
X215499D01*
Y278584D01*
X225269D01*
Y288854D01*
D02*
G37*
G36*
X72408Y276905D02*
X68751D01*
Y276397D01*
X69303Y276404D01*
X69290Y276341D01*
X69279Y276177D01*
X69242Y273854D01*
X69241Y273345D01*
X69463Y273389D01*
X71144Y274512D01*
X72267Y276192D01*
X72408Y276905D01*
D02*
G37*
G36*
X66211D02*
X62554D01*
X62696Y276192D01*
X63819Y274512D01*
X65499Y273389D01*
X65838Y273322D01*
X65708Y276355D01*
X66211Y276362D01*
Y276905D01*
D02*
G37*
G36*
X237579Y276044D02*
X227809D01*
Y265774D01*
X237579D01*
Y276044D01*
D02*
G37*
G36*
X225269D02*
X215499D01*
Y265774D01*
X225269D01*
Y276044D01*
D02*
G37*
G36*
X-29230Y264769D02*
X-30500D01*
Y258320D01*
X-24050D01*
Y259590D01*
X-24445Y261572D01*
X-25567Y263252D01*
X-27248Y264375D01*
X-29230Y264769D01*
D02*
G37*
G36*
X238133Y262556D02*
X228363D01*
Y252286D01*
X238133D01*
Y262556D01*
D02*
G37*
G36*
X225823D02*
X216053D01*
Y252286D01*
X225823D01*
Y262556D01*
D02*
G37*
G36*
X-24050Y255780D02*
X-30500D01*
Y249330D01*
X-29230D01*
X-27248Y249725D01*
X-25567Y250847D01*
X-24445Y252528D01*
X-24050Y254510D01*
Y255780D01*
D02*
G37*
G36*
X255071Y341253D02*
X253088Y340858D01*
X251408Y339735D01*
X250285Y338055D01*
X249891Y336073D01*
X250285Y334091D01*
X250706Y333462D01*
X250798Y330181D01*
Y316248D01*
X240078D01*
Y305927D01*
Y295606D01*
X252551D01*
Y288854D01*
X246000D01*
Y265774D01*
X252766D01*
Y262556D01*
X246553D01*
Y239476D01*
X268633D01*
Y262556D01*
X261313D01*
Y265774D01*
X268079D01*
Y288854D01*
X261097D01*
Y295606D01*
X266887D01*
Y316248D01*
X259344D01*
Y332014D01*
X259375Y333371D01*
X259856Y334091D01*
X260250Y336073D01*
X259856Y338055D01*
X258733Y339735D01*
X257053Y340858D01*
X255071Y341253D01*
D02*
G37*
G36*
X238133Y249746D02*
X228363D01*
Y239476D01*
X238133D01*
Y249746D01*
D02*
G37*
G36*
X225823D02*
X216053D01*
Y239476D01*
X225823D01*
Y249746D01*
D02*
G37*
G36*
X261840Y233078D02*
X253047D01*
Y224028D01*
X261840D01*
Y233078D01*
D02*
G37*
G36*
X18773Y301663D02*
X16739Y301395D01*
X14844Y300610D01*
X13217Y299361D01*
X11968Y297734D01*
X11184Y295839D01*
X10916Y293806D01*
X11184Y291772D01*
X11968Y289877D01*
X13217Y288250D01*
X14844Y287001D01*
X16739Y286216D01*
X18773Y285948D01*
X20807Y286216D01*
X22702Y287001D01*
X24078Y288057D01*
X24102Y288069D01*
X24279Y288212D01*
X24329Y288250D01*
X24332Y288254D01*
X24414Y288319D01*
X24710Y288481D01*
X25234Y288685D01*
X25974Y288894D01*
X26911Y289088D01*
X27989Y289247D01*
X32300Y289533D01*
X32913D01*
X44336Y278110D01*
Y213864D01*
X44305Y212507D01*
X43824Y211787D01*
X43430Y209805D01*
X43824Y207823D01*
X44947Y206143D01*
X46627Y205020D01*
X48609Y204626D01*
X50591Y205020D01*
X52165Y206072D01*
X52197Y206085D01*
X52448Y206157D01*
X52816Y206236D01*
X53242Y206301D01*
X55237Y206439D01*
X74215D01*
X74894Y205169D01*
X74417Y204455D01*
X74000Y202360D01*
X74417Y200265D01*
X75603Y198489D01*
X77379Y197303D01*
X79475Y196886D01*
X83301D01*
Y194480D01*
X81964Y193144D01*
X28836D01*
Y200098D01*
X23046D01*
Y230894D01*
X23094Y232961D01*
X23328Y235768D01*
X23491Y236868D01*
X23684Y237805D01*
X23893Y238544D01*
X24098Y239069D01*
X24259Y239365D01*
X24325Y239446D01*
X24329Y239450D01*
X24367Y239499D01*
X24509Y239677D01*
X24522Y239701D01*
X25578Y241077D01*
X26363Y242972D01*
X26630Y245006D01*
X26363Y247039D01*
X25578Y248934D01*
X24329Y250562D01*
X22702Y251810D01*
X20807Y252595D01*
X18773Y252863D01*
X16739Y252595D01*
X14844Y251810D01*
X13217Y250562D01*
X11968Y248934D01*
X11184Y247039D01*
X10916Y245006D01*
X11184Y242972D01*
X11968Y241077D01*
X13024Y239701D01*
X13037Y239677D01*
X13179Y239499D01*
X13217Y239450D01*
X13221Y239446D01*
X13287Y239365D01*
X13448Y239069D01*
X13653Y238544D01*
X13862Y237805D01*
X14055Y236868D01*
X14215Y235790D01*
X14500Y231479D01*
Y200098D01*
X2027D01*
Y189777D01*
Y179456D01*
X28836D01*
Y186410D01*
X64246D01*
X64631Y185140D01*
X63579Y184438D01*
X62456Y182757D01*
X62062Y180775D01*
X62456Y178793D01*
X63579Y177113D01*
X63971Y176851D01*
X64131Y176045D01*
X64258Y175856D01*
X63579Y174586D01*
X61182D01*
X60188Y174610D01*
X58924Y174721D01*
X58476Y174790D01*
X58109Y174869D01*
X57859Y174943D01*
X57835Y174952D01*
X56240Y176018D01*
X54258Y176412D01*
X52276Y176018D01*
X50595Y174895D01*
X49473Y173215D01*
X49078Y171233D01*
X49473Y169251D01*
X50595Y167570D01*
X52276Y166448D01*
X54258Y166053D01*
X56240Y166448D01*
X57794Y167486D01*
X57833Y167501D01*
X58085Y167574D01*
X58453Y167652D01*
X58881Y167717D01*
X60605Y167834D01*
X60733Y167672D01*
X60992Y167154D01*
X61087Y166582D01*
X44847Y150343D01*
X44117Y149250D01*
X43861Y147962D01*
Y145870D01*
X43837Y144880D01*
X43727Y143612D01*
X43658Y143164D01*
X43580Y142795D01*
X43507Y142545D01*
X43494Y142513D01*
X42442Y140939D01*
X42048Y138957D01*
X42442Y136975D01*
X43565Y135294D01*
X45245Y134171D01*
X47228Y133777D01*
X49210Y134171D01*
X50890Y135294D01*
X52013Y136975D01*
X52407Y138957D01*
X52013Y140939D01*
X50961Y142513D01*
X50948Y142545D01*
X50875Y142795D01*
X50797Y143164D01*
X50731Y143590D01*
X50594Y145584D01*
Y146568D01*
X64301Y160275D01*
X64340Y160267D01*
X64758Y158889D01*
X62739Y156871D01*
X62010Y155778D01*
X61753Y154490D01*
Y153689D01*
X61730Y153184D01*
X61615Y152081D01*
X61546Y151703D01*
X61467Y151381D01*
X61391Y151149D01*
X61331Y151011D01*
X61306Y150968D01*
X61206Y150839D01*
X61157Y150743D01*
X60335Y149512D01*
X59941Y147530D01*
X60335Y145548D01*
X61458Y143868D01*
X63138Y142745D01*
X65120Y142351D01*
X67102Y142745D01*
X68783Y143868D01*
X69905Y145548D01*
X70300Y147530D01*
X69905Y149512D01*
X69083Y150743D01*
X69035Y150839D01*
X68934Y150968D01*
X68909Y151011D01*
X68849Y151149D01*
X68773Y151381D01*
X68694Y151703D01*
X68630Y152054D01*
X68539Y153148D01*
X72445Y157053D01*
X83328D01*
X84007Y155783D01*
X83519Y155053D01*
X83186Y153379D01*
Y136060D01*
X83519Y134386D01*
X84467Y132967D01*
X85886Y132019D01*
X87560Y131686D01*
X89234Y132019D01*
X90653Y132967D01*
X90967D01*
X92386Y132019D01*
X94060Y131686D01*
X95734Y132019D01*
X97153Y132967D01*
X97467D01*
X98886Y132019D01*
X100560Y131686D01*
X102234Y132019D01*
X103653Y132967D01*
X103968D01*
X105386Y132019D01*
X107060Y131686D01*
X108734Y132019D01*
X110153Y132967D01*
X110467D01*
X111886Y132019D01*
X113560Y131686D01*
X115234Y132019D01*
X116653Y132967D01*
X116967D01*
X118386Y132019D01*
X120060Y131686D01*
X121734Y132019D01*
X123153Y132967D01*
X123467D01*
X124886Y132019D01*
X126560Y131686D01*
X128234Y132019D01*
X129387Y132790D01*
X129723Y132723D01*
X130853Y131968D01*
X131790Y131782D01*
Y144720D01*
X134330D01*
Y131782D01*
X135268Y131968D01*
X136310Y132665D01*
X137353Y131968D01*
X138685Y131703D01*
X140435D01*
X141768Y131968D01*
X142810Y132665D01*
X143853Y131968D01*
X145185Y131703D01*
X146935D01*
X147017Y131720D01*
X148287Y130677D01*
Y118118D01*
X148260Y117964D01*
X148234Y117888D01*
X148158Y117862D01*
X148004Y117835D01*
X128242D01*
X126607Y117510D01*
X125221Y116584D01*
X117039Y108401D01*
X116112Y107015D01*
X115787Y105380D01*
Y89483D01*
X114517Y88441D01*
X114435Y88457D01*
X112685D01*
X111353Y88192D01*
X110310Y87496D01*
X109268Y88192D01*
X108330Y88379D01*
Y75441D01*
Y62503D01*
X109268Y62689D01*
X110310Y63386D01*
X111353Y62689D01*
X112685Y62424D01*
X114435D01*
X115768Y62689D01*
X116810Y63386D01*
X117853Y62689D01*
X119185Y62424D01*
X120935D01*
X122268Y62689D01*
X123310Y63386D01*
X124353Y62689D01*
X125290Y62503D01*
Y75441D01*
Y88698D01*
X124333Y89483D01*
Y103610D01*
X130012Y109289D01*
X140320D01*
X140705Y108019D01*
X140399Y107814D01*
X130859Y98275D01*
X130130Y97183D01*
X129873Y95894D01*
Y88981D01*
X128996Y88356D01*
X128603Y88225D01*
X127830Y88379D01*
Y75441D01*
Y62503D01*
X128767Y62689D01*
X129810Y63386D01*
X130853Y62689D01*
X132185Y62424D01*
X133935D01*
X135268Y62689D01*
X136310Y63386D01*
X137353Y62689D01*
X138685Y62424D01*
X140435D01*
X141768Y62689D01*
X142810Y63386D01*
X143853Y62689D01*
X145185Y62424D01*
X146935D01*
X148267Y62689D01*
X149310Y63386D01*
X150352Y62689D01*
X151290Y62503D01*
Y75441D01*
X153830D01*
Y62503D01*
X154767Y62689D01*
X155810Y63386D01*
X156853Y62689D01*
X158185Y62424D01*
X159935D01*
X161268Y62689D01*
X162310Y63386D01*
X163353Y62689D01*
X164685Y62424D01*
X166435D01*
X167768Y62689D01*
X168810Y63386D01*
X169853Y62689D01*
X171185Y62424D01*
X172935D01*
X174268Y62689D01*
X175397Y63444D01*
X176152Y64574D01*
X176417Y65906D01*
Y84975D01*
X176152Y86308D01*
X176141Y86323D01*
X176820Y87593D01*
X217654D01*
Y77225D01*
X231934D01*
Y96104D01*
X217654D01*
Y94327D01*
X142310D01*
X141022Y94070D01*
X139929Y93341D01*
X137877Y91288D01*
X136607Y91814D01*
Y94500D01*
X144174Y102067D01*
X218527D01*
Y98293D01*
X232807D01*
Y105458D01*
X233981Y105944D01*
X234572Y105353D01*
X235664Y104623D01*
X236953Y104367D01*
X237627D01*
Y98293D01*
X251907D01*
Y117173D01*
X237627D01*
X237512Y118396D01*
Y121156D01*
X253195D01*
Y124809D01*
X280350D01*
X282134Y125164D01*
X283647Y126174D01*
X285857Y128385D01*
X286868Y129897D01*
X287222Y131681D01*
Y134919D01*
X287346Y135104D01*
X287740Y137086D01*
X287346Y139068D01*
X287222Y139253D01*
Y142612D01*
X286868Y144396D01*
X285857Y145909D01*
X279889Y151876D01*
X278377Y152887D01*
X276593Y153242D01*
X253282D01*
Y156458D01*
X240894D01*
Y159309D01*
X235814D01*
Y156458D01*
X235702D01*
Y149965D01*
X234529Y149479D01*
X233210Y150798D01*
X232118Y151528D01*
X230829Y151784D01*
X229782D01*
Y156458D01*
X212202D01*
Y140378D01*
X229782D01*
X230779Y139718D01*
Y137684D01*
X229694Y137236D01*
X229509Y137236D01*
X212115D01*
Y132889D01*
X203069D01*
X202079Y132913D01*
X200812Y133023D01*
X200363Y133092D01*
X199994Y133170D01*
X199744Y133243D01*
X199712Y133256D01*
X198138Y134308D01*
X196156Y134702D01*
X194174Y134308D01*
X192493Y133185D01*
X191371Y131505D01*
X190976Y129522D01*
X191371Y127540D01*
X192493Y125860D01*
X194174Y124737D01*
X196156Y124343D01*
X198138Y124737D01*
X199712Y125789D01*
X199744Y125802D01*
X199994Y125875D01*
X200363Y125953D01*
X200789Y126019D01*
X202783Y126156D01*
X212115D01*
Y121156D01*
X229509D01*
X229694Y121156D01*
X230779Y120708D01*
Y117173D01*
X218527D01*
Y108800D01*
X205750D01*
X205397Y110070D01*
X206406Y111580D01*
X206801Y113562D01*
X206406Y115544D01*
X205284Y117225D01*
X203603Y118347D01*
X201621Y118742D01*
X199639Y118347D01*
X199010Y117927D01*
X195729Y117835D01*
X157116D01*
X156962Y117862D01*
X156886Y117888D01*
X156860Y117964D01*
X156833Y118118D01*
Y130677D01*
X158103Y131720D01*
X158185Y131703D01*
X159935D01*
X161268Y131968D01*
X162310Y132665D01*
X163353Y131968D01*
X164685Y131703D01*
X166435D01*
X167768Y131968D01*
X168810Y132665D01*
X169853Y131968D01*
X171185Y131703D01*
X172935D01*
X174268Y131968D01*
X175397Y132723D01*
X176152Y133853D01*
X176417Y135185D01*
Y154254D01*
X176152Y155587D01*
X175820Y156083D01*
X176499Y157353D01*
X187777D01*
X188767Y157330D01*
X190034Y157220D01*
X190483Y157151D01*
X190851Y157072D01*
X191102Y156999D01*
X191134Y156987D01*
X192708Y155935D01*
X194690Y155541D01*
X196672Y155935D01*
X198353Y157058D01*
X199475Y158738D01*
X199869Y160720D01*
X199475Y162702D01*
X198353Y164382D01*
X197929Y164665D01*
X197948Y165326D01*
X198116Y166068D01*
X199058Y166697D01*
X202911Y170550D01*
X203640Y171642D01*
X203897Y172930D01*
Y175137D01*
X203920Y176127D01*
X204030Y177394D01*
X204099Y177843D01*
X204178Y178211D01*
X204251Y178462D01*
X204263Y178494D01*
X205315Y180068D01*
X205709Y182050D01*
X205315Y184032D01*
X204193Y185713D01*
X203484Y186186D01*
X203869Y187456D01*
X229476D01*
Y181383D01*
X243756D01*
Y200263D01*
X229476D01*
Y194189D01*
X200792D01*
X200480Y194570D01*
X200085Y196552D01*
X198962Y198232D01*
X198700Y198408D01*
X198667Y198891D01*
Y199420D01*
X198410Y200708D01*
X197681Y201801D01*
X194741Y204741D01*
X194627Y204816D01*
X195012Y206087D01*
X262120D01*
X263644Y204562D01*
Y204203D01*
X263621Y202664D01*
X263584Y202087D01*
X263132Y201411D01*
X263131Y201406D01*
X262856Y200263D01*
X262856Y200263D01*
X248576D01*
Y181383D01*
X252350D01*
Y177705D01*
X248858D01*
Y164625D01*
X261938D01*
Y177705D01*
X259083D01*
Y181383D01*
X262856D01*
Y195573D01*
X264126Y195958D01*
X264255Y195766D01*
X265935Y194643D01*
X267917Y194249D01*
X269900Y194643D01*
X271580Y195766D01*
X272703Y197446D01*
X273097Y199428D01*
X272703Y201411D01*
X272353Y201934D01*
X272190Y205649D01*
Y206332D01*
X271865Y207968D01*
X270939Y209354D01*
X266912Y213381D01*
X265525Y214307D01*
X263890Y214633D01*
X261840D01*
Y221488D01*
X251777D01*
Y222757D01*
X250507D01*
Y233078D01*
X223698D01*
Y226225D01*
X221399D01*
X218883Y228741D01*
X217791Y229471D01*
X216502Y229727D01*
X182208D01*
X181576Y230997D01*
X182423Y232265D01*
X182587Y233090D01*
X157758D01*
X157922Y232265D01*
X159109Y230489D01*
Y230231D01*
X157922Y228455D01*
X157506Y226360D01*
X157922Y224265D01*
X158523Y223366D01*
X159042Y222360D01*
X158523Y221353D01*
X157922Y220455D01*
X157506Y218360D01*
X157917Y216291D01*
X157961Y216061D01*
X157240Y215021D01*
X148451D01*
X133856Y229616D01*
X132344Y230627D01*
X130560Y230982D01*
X112934D01*
X112627Y232524D01*
X111616Y234036D01*
X107997Y237656D01*
X106484Y238666D01*
X104700Y239021D01*
X99599D01*
X98878Y240061D01*
X98923Y240291D01*
X99082Y241090D01*
X74253D01*
X74417Y240265D01*
X75017Y239366D01*
X75537Y238360D01*
X75017Y237353D01*
X74417Y236455D01*
X74000Y234360D01*
X74417Y232265D01*
X75603Y230489D01*
Y230231D01*
X74417Y228455D01*
X74253Y227630D01*
X86667D01*
Y225090D01*
X74253D01*
X74351Y224596D01*
X73723Y223484D01*
X72458Y223386D01*
X60966Y234878D01*
Y281332D01*
X61090Y281517D01*
X61484Y283500D01*
X61090Y285482D01*
X59967Y287162D01*
X58287Y288285D01*
X56305Y288679D01*
X54323Y288285D01*
X52642Y287162D01*
X51519Y285482D01*
X51408Y284921D01*
X50030Y284503D01*
X37705Y296827D01*
X36319Y297754D01*
X34683Y298079D01*
X32884D01*
X30817Y298126D01*
X28011Y298361D01*
X26911Y298524D01*
X25973Y298717D01*
X25235Y298926D01*
X24710Y299130D01*
X24414Y299292D01*
X24332Y299357D01*
X24329Y299361D01*
X24279Y299400D01*
X24102Y299542D01*
X24078Y299554D01*
X22702Y300610D01*
X20807Y301395D01*
X18773Y301663D01*
D02*
G37*
G36*
X-513Y200098D02*
X-9306D01*
Y191047D01*
X-513D01*
Y200098D01*
D02*
G37*
G36*
Y188507D02*
X-9306D01*
Y179456D01*
X-1000D01*
X-927Y179873D01*
X-894Y180500D01*
X-513Y179929D01*
Y188507D01*
D02*
G37*
G36*
X245438Y177705D02*
X240168D01*
Y172435D01*
X245438D01*
Y177705D01*
D02*
G37*
G36*
X237628D02*
X232358D01*
Y172435D01*
X237628D01*
Y177705D01*
D02*
G37*
G36*
X245438Y169895D02*
X240168D01*
Y164625D01*
X245438D01*
Y169895D01*
D02*
G37*
G36*
X237628D02*
X232358D01*
Y164625D01*
X237628D01*
Y169895D01*
D02*
G37*
G36*
X287588Y166896D02*
Y163239D01*
X291245D01*
X291103Y163952D01*
X289980Y165632D01*
X288300Y166755D01*
X287588Y166896D01*
D02*
G37*
G36*
X285048D02*
X284336Y166755D01*
X282656Y165632D01*
X281533Y163952D01*
X281479Y163681D01*
X284523Y163767D01*
Y163239D01*
X285048D01*
Y166896D01*
D02*
G37*
G36*
X-1003Y171654D02*
X-9655D01*
Y162603D01*
X-862D01*
Y170641D01*
X-894Y170594D01*
X-927Y171222D01*
X-1003Y171654D01*
D02*
G37*
G36*
X285048Y160699D02*
X284523D01*
Y160172D01*
X284445Y160200D01*
X284268Y160225D01*
X283992Y160247D01*
X281469Y160305D01*
X281533Y159987D01*
X282656Y158307D01*
X284336Y157184D01*
X285048Y157043D01*
Y160699D01*
D02*
G37*
G36*
X291245D02*
X287588D01*
Y157043D01*
X288300Y157184D01*
X289980Y158307D01*
X291103Y159987D01*
X291245Y160699D01*
D02*
G37*
G36*
X28487Y171654D02*
X1678D01*
Y161333D01*
Y151012D01*
X28487D01*
Y157967D01*
X35563D01*
X36554Y157943D01*
X37821Y157833D01*
X38269Y157765D01*
X38638Y157686D01*
X38888Y157613D01*
X38920Y157600D01*
X40494Y156548D01*
X42476Y156154D01*
X44458Y156548D01*
X46139Y157671D01*
X47262Y159352D01*
X47656Y161334D01*
X47262Y163316D01*
X46139Y164996D01*
X44458Y166119D01*
X42476Y166513D01*
X40494Y166119D01*
X38920Y165067D01*
X38888Y165054D01*
X38638Y164981D01*
X38269Y164903D01*
X37844Y164838D01*
X35849Y164700D01*
X28487D01*
Y171654D01*
D02*
G37*
G36*
X-862Y160063D02*
X-9655D01*
Y151012D01*
X-862D01*
Y160063D01*
D02*
G37*
G36*
X-23916Y152194D02*
Y148537D01*
X-23391D01*
Y149065D01*
X-23312Y149037D01*
X-23135Y149012D01*
X-22860Y148990D01*
X-20337Y148932D01*
X-20400Y149249D01*
X-21523Y150930D01*
X-23203Y152053D01*
X-23916Y152194D01*
D02*
G37*
G36*
X-23391Y145997D02*
X-23916D01*
Y142340D01*
X-23203Y142482D01*
X-21523Y143605D01*
X-20400Y145285D01*
X-20347Y145556D01*
X-23391Y145470D01*
Y145997D01*
D02*
G37*
G36*
X64113Y135209D02*
Y131552D01*
X67770D01*
X67628Y132264D01*
X66505Y133944D01*
X64825Y135067D01*
X64113Y135209D01*
D02*
G37*
G36*
X61573D02*
X60861Y135067D01*
X59180Y133944D01*
X58058Y132264D01*
X57916Y131552D01*
X61573D01*
Y135209D01*
D02*
G37*
G36*
X-312Y140497D02*
X-9105D01*
Y131446D01*
X-312D01*
Y140497D01*
D02*
G37*
G36*
X67770Y129012D02*
X64113D01*
Y125355D01*
X64825Y125497D01*
X66505Y126620D01*
X67628Y128300D01*
X67770Y129012D01*
D02*
G37*
G36*
X61573D02*
X57916D01*
X58058Y128300D01*
X59180Y126620D01*
X60861Y125497D01*
X61573Y125355D01*
Y129012D01*
D02*
G37*
G36*
X-312Y128906D02*
X-9105D01*
Y119855D01*
X-312D01*
Y128906D01*
D02*
G37*
G36*
X279947Y108853D02*
X277965Y108459D01*
X276284Y107336D01*
X275162Y105656D01*
X274767Y103674D01*
X275162Y101692D01*
X276213Y100117D01*
X276226Y100085D01*
X276299Y99835D01*
X276378Y99466D01*
X276443Y99041D01*
X276580Y97046D01*
Y93740D01*
X272871Y90031D01*
X251034D01*
Y96104D01*
X236754D01*
Y77225D01*
X251034D01*
Y83298D01*
X274266D01*
X275554Y83554D01*
X276647Y84284D01*
X282327Y89965D01*
X283057Y91057D01*
X283314Y92345D01*
Y96761D01*
X283337Y97751D01*
X283447Y99018D01*
X283516Y99467D01*
X283595Y99835D01*
X283668Y100085D01*
X283680Y100117D01*
X284732Y101692D01*
X285126Y103674D01*
X284732Y105656D01*
X283609Y107336D01*
X281929Y108459D01*
X279947Y108853D01*
D02*
G37*
G36*
X36121Y88231D02*
X26351D01*
Y77961D01*
X36121D01*
Y88231D01*
D02*
G37*
G36*
X23811D02*
X14041D01*
Y77961D01*
X23811D01*
Y88231D01*
D02*
G37*
G36*
X272524Y72740D02*
Y69083D01*
X276181D01*
X276040Y69795D01*
X274917Y71475D01*
X273237Y72598D01*
X272524Y72740D01*
D02*
G37*
G36*
X269984D02*
X269272Y72598D01*
X267592Y71475D01*
X266469Y69795D01*
X266327Y69083D01*
X269984D01*
Y72740D01*
D02*
G37*
G36*
X267512Y66543D02*
X266327D01*
X266469Y65830D01*
X266622Y65601D01*
X267512Y66543D01*
D02*
G37*
G36*
X36121Y75421D02*
X26351D01*
Y65151D01*
X36121D01*
Y75421D01*
D02*
G37*
G36*
X23811D02*
X14041D01*
Y65151D01*
X23811D01*
Y75421D01*
D02*
G37*
G36*
X276181Y66543D02*
X272524D01*
Y62886D01*
X273237Y63027D01*
X274917Y64150D01*
X276040Y65830D01*
X276181Y66543D01*
D02*
G37*
G36*
X269984Y64145D02*
X269003Y63207D01*
X269272Y63027D01*
X269984Y62886D01*
Y64145D01*
D02*
G37*
G36*
X49394Y65714D02*
X49479Y62670D01*
X48952D01*
Y62145D01*
X52609D01*
X52467Y62857D01*
X51345Y64538D01*
X49664Y65660D01*
X49394Y65714D01*
D02*
G37*
G36*
X46018Y65724D02*
X45700Y65660D01*
X44020Y64538D01*
X42897Y62857D01*
X42755Y62145D01*
X46412D01*
Y62670D01*
X45885D01*
X45913Y62749D01*
X45938Y62926D01*
X45960Y63201D01*
X46018Y65724D01*
D02*
G37*
G36*
X46412Y59605D02*
X42755D01*
X42897Y58893D01*
X44020Y57213D01*
X45700Y56090D01*
X45939Y56042D01*
X45768Y59205D01*
X46412D01*
Y59605D01*
D02*
G37*
G36*
X52609D02*
X48952D01*
Y59205D01*
X49596D01*
X49546Y59103D01*
X49502Y58914D01*
X49462Y58641D01*
X49399Y57839D01*
X49355Y56028D01*
X49664Y56090D01*
X51345Y57213D01*
X52467Y58893D01*
X52609Y59605D01*
D02*
G37*
G36*
X28364Y60961D02*
X19571D01*
Y51910D01*
X28364D01*
Y60961D01*
D02*
G37*
G36*
X241076Y54927D02*
X227775D01*
Y35765D01*
X241076D01*
Y40942D01*
X274389D01*
X274574Y40818D01*
X276556Y40424D01*
X278538Y40818D01*
X280218Y41941D01*
X281341Y43621D01*
X281735Y45603D01*
X281341Y47586D01*
X280218Y49266D01*
X278538Y50389D01*
X276556Y50783D01*
X274574Y50389D01*
X274389Y50265D01*
X241076D01*
Y54927D01*
D02*
G37*
G36*
X202739Y51046D02*
X198884D01*
Y32209D01*
X210470D01*
Y43314D01*
X210207Y45315D01*
X209434Y47180D01*
X208206Y48781D01*
X206604Y50010D01*
X204740Y50782D01*
X202739Y51046D01*
D02*
G37*
G36*
X196344D02*
X192489D01*
X190488Y50782D01*
X188623Y50010D01*
X187022Y48781D01*
X185793Y47180D01*
X185021Y45315D01*
X184758Y43314D01*
Y32209D01*
X196344D01*
Y51046D01*
D02*
G37*
G36*
X165634Y47299D02*
Y31959D01*
X169478D01*
Y43439D01*
X169184Y44918D01*
X168346Y46171D01*
X167092Y47009D01*
X165634Y47299D01*
D02*
G37*
G36*
X59634Y16199D02*
Y12543D01*
X60159D01*
Y13070D01*
X60237Y13042D01*
X60414Y13017D01*
X60689Y12995D01*
X63212Y12937D01*
X63149Y13255D01*
X62026Y14935D01*
X60346Y16058D01*
X59634Y16199D01*
D02*
G37*
G36*
X57094D02*
X56382Y16058D01*
X54701Y14935D01*
X53578Y13255D01*
X53437Y12543D01*
X57094D01*
Y16199D01*
D02*
G37*
G36*
X60159Y10002D02*
X59634D01*
Y6346D01*
X60346Y6487D01*
X62026Y7610D01*
X63149Y9290D01*
X63203Y9561D01*
X60159Y9475D01*
Y10002D01*
D02*
G37*
G36*
X57094D02*
X53437D01*
X53578Y9290D01*
X54701Y7610D01*
X56382Y6487D01*
X57094Y6346D01*
Y10002D01*
D02*
G37*
G36*
X307261Y32866D02*
Y1595D01*
X338531D01*
X338229Y5431D01*
X337034Y10411D01*
X335074Y15143D01*
X332398Y19511D01*
X329071Y23405D01*
X325176Y26732D01*
X320809Y29408D01*
X316077Y31368D01*
X311097Y32564D01*
X307261Y32866D01*
D02*
G37*
G36*
X304721D02*
X300885Y32564D01*
X295904Y31368D01*
X291172Y29408D01*
X286805Y26732D01*
X282910Y23405D01*
X279584Y19511D01*
X276908Y15143D01*
X274948Y10411D01*
X273752Y5431D01*
X273450Y1595D01*
X304721D01*
Y32866D01*
D02*
G37*
G36*
X169478Y29419D02*
X165634D01*
Y13601D01*
X165725Y13443D01*
X165831Y12835D01*
X165343Y12460D01*
X164214Y10990D01*
X163505Y9277D01*
X163263Y7439D01*
X163505Y5602D01*
X164214Y3889D01*
X165343Y2418D01*
X166813Y1290D01*
X168526Y581D01*
X170364Y339D01*
X172201Y581D01*
X173914Y1290D01*
X175385Y2418D01*
X176513Y3889D01*
X177222Y5602D01*
X177464Y7439D01*
X177222Y9277D01*
X176513Y10990D01*
X175385Y12460D01*
X173914Y13589D01*
X172201Y14298D01*
X170364Y14540D01*
X169239Y14392D01*
X168602Y15589D01*
X169184Y16460D01*
X169478Y17939D01*
Y29419D01*
D02*
G37*
G36*
X210470Y29669D02*
X197614D01*
X184758D01*
Y18564D01*
X185021Y16564D01*
X185793Y14699D01*
X187022Y13098D01*
X188623Y11869D01*
X189209Y11627D01*
Y10252D01*
X188623Y10009D01*
X187022Y8781D01*
X185793Y7180D01*
X185021Y5315D01*
X184758Y3314D01*
Y-10291D01*
X197614D01*
X210470D01*
Y3314D01*
X210207Y5315D01*
X209434Y7180D01*
X208206Y8781D01*
X206604Y10009D01*
X206019Y10252D01*
Y11627D01*
X206604Y11869D01*
X208206Y13098D01*
X209434Y14699D01*
X210207Y16564D01*
X210470Y18564D01*
Y29669D01*
D02*
G37*
G36*
X111970D02*
X99114D01*
X86257D01*
Y18564D01*
X86521Y16564D01*
X87293Y14699D01*
X88522Y13098D01*
X90123Y11869D01*
X90708Y11627D01*
Y10252D01*
X90123Y10009D01*
X88522Y8781D01*
X87293Y7180D01*
X86521Y5315D01*
X86257Y3314D01*
Y-10291D01*
X99114D01*
X111970D01*
Y3314D01*
X111706Y5315D01*
X110934Y7180D01*
X109705Y8781D01*
X108104Y10009D01*
X107519Y10252D01*
Y11627D01*
X108104Y11869D01*
X109705Y13098D01*
X110934Y14699D01*
X111706Y16564D01*
X111970Y18564D01*
Y29669D01*
D02*
G37*
G36*
X234425Y19385D02*
X232689Y19156D01*
X231071Y18486D01*
X229682Y17420D01*
X228616Y16031D01*
X227946Y14413D01*
X227717Y12677D01*
Y6816D01*
X227946Y5080D01*
X228616Y3462D01*
X229682Y2073D01*
X230580Y1383D01*
Y-13868D01*
X230549Y-15225D01*
X230068Y-15945D01*
X229674Y-17927D01*
X230068Y-19909D01*
X231191Y-21589D01*
X232871Y-22712D01*
X234853Y-23106D01*
X236836Y-22712D01*
X238516Y-21589D01*
X239639Y-19909D01*
X240033Y-17927D01*
X239639Y-15945D01*
X239219Y-15316D01*
X239127Y-12035D01*
Y2040D01*
X239169Y2073D01*
X240235Y3462D01*
X240905Y5080D01*
X241133Y6816D01*
Y12677D01*
X240905Y14413D01*
X240235Y16031D01*
X239169Y17420D01*
X237779Y18486D01*
X236162Y19156D01*
X234425Y19385D01*
D02*
G37*
G36*
X338531Y-945D02*
X307261D01*
Y-32216D01*
X311097Y-31914D01*
X316077Y-30718D01*
X320809Y-28758D01*
X325176Y-26082D01*
X329071Y-22755D01*
X332398Y-18861D01*
X335074Y-14494D01*
X337034Y-9762D01*
X338229Y-4781D01*
X338531Y-945D01*
D02*
G37*
G36*
X304721D02*
X273450D01*
X273752Y-4781D01*
X274948Y-9762D01*
X276908Y-14494D01*
X279584Y-18861D01*
X282910Y-22755D01*
X286805Y-26082D01*
X291172Y-28758D01*
X295904Y-30718D01*
X300885Y-31914D01*
X304721Y-32216D01*
Y-945D01*
D02*
G37*
%LPD*%
G36*
X256840Y334200D02*
X256815Y334023D01*
X256793Y333747D01*
X256728Y330893D01*
X256722Y329063D01*
X253420D01*
X253273Y334278D01*
X256868D01*
X256840Y334200D01*
D02*
G37*
G36*
X22973Y297128D02*
X23615Y296777D01*
X24411Y296468D01*
X25359Y296199D01*
X26460Y295972D01*
X27713Y295787D01*
X30679Y295539D01*
X34257Y295457D01*
Y292155D01*
X32392Y292134D01*
X27713Y291824D01*
X26460Y291639D01*
X25359Y291412D01*
X24411Y291143D01*
X23615Y290834D01*
X22973Y290483D01*
X22483Y290091D01*
Y297520D01*
X22973Y297128D01*
D02*
G37*
G36*
X22096Y240806D02*
X21745Y240163D01*
X21435Y239368D01*
X21167Y238420D01*
X20940Y237319D01*
X20754Y236065D01*
X20507Y233099D01*
X20424Y229522D01*
X17122D01*
X17101Y231387D01*
X16792Y236065D01*
X16606Y237319D01*
X16379Y238420D01*
X16111Y239368D01*
X15801Y240163D01*
X15451Y240806D01*
X15058Y241296D01*
X22488D01*
X22096Y240806D01*
D02*
G37*
G36*
X77941Y220672D02*
X77296Y216651D01*
X77255Y216648D01*
X77132Y216645D01*
X73208Y216633D01*
X73859Y220697D01*
X77941Y220672D01*
D02*
G37*
G36*
X50406Y211601D02*
X50648Y211406D01*
X50964Y211230D01*
X51353Y211075D01*
X51815Y210940D01*
X52349Y210826D01*
X52957Y210733D01*
X54389Y210609D01*
X56112Y210567D01*
Y209043D01*
X55214Y209033D01*
X52957Y208878D01*
X52349Y208785D01*
X51815Y208671D01*
X51353Y208536D01*
X50964Y208381D01*
X50648Y208205D01*
X50404Y208008D01*
Y208870D01*
X50271Y208844D01*
X50050Y208783D01*
X49885Y208714D01*
X49776Y208637D01*
Y210973D01*
X49885Y210896D01*
X50050Y210827D01*
X50271Y210766D01*
X50404Y210741D01*
Y211600D01*
X46812D01*
X46840Y211679D01*
X46865Y211856D01*
X46887Y212131D01*
X46952Y214985D01*
X46958Y216815D01*
X50260D01*
X50406Y211601D01*
D02*
G37*
G36*
X76709Y210563D02*
X77018Y209055D01*
X77003Y209053D01*
X76957Y209051D01*
X75466Y209043D01*
X75155Y210567D01*
X76709Y210563D01*
D02*
G37*
G36*
X269796Y201138D02*
X266039D01*
X266082Y201235D01*
X266121Y201426D01*
X266155Y201711D01*
X266210Y202562D01*
X266266Y206332D01*
X269568D01*
X269796Y201138D01*
D02*
G37*
G36*
X196066Y198964D02*
X196160Y197579D01*
X196203Y197343D01*
X196255Y197149D01*
X196313Y197000D01*
X196380Y196894D01*
X196455Y196832D01*
X194145D01*
X194220Y196894D01*
X194286Y197000D01*
X194345Y197149D01*
X194396Y197343D01*
X194440Y197579D01*
X194475Y197860D01*
X194522Y198553D01*
X194538Y199420D01*
X196062D01*
X196066Y198964D01*
D02*
G37*
G36*
X20049Y190868D02*
X20214Y190799D01*
X20435Y190738D01*
X20711Y190685D01*
X21043Y190641D01*
X21874Y190576D01*
X23540Y190539D01*
Y189015D01*
X22929Y189011D01*
X20711Y188869D01*
X20435Y188816D01*
X20214Y188755D01*
X20049Y188686D01*
X19940Y188609D01*
Y190945D01*
X20049Y190868D01*
D02*
G37*
G36*
X202131Y180011D02*
X201954Y179695D01*
X201799Y179306D01*
X201665Y178844D01*
X201551Y178310D01*
X201458Y177703D01*
X201333Y176270D01*
X201292Y174547D01*
X199768D01*
X199758Y175445D01*
X199602Y177703D01*
X199509Y178310D01*
X199395Y178844D01*
X199261Y179306D01*
X199105Y179695D01*
X198930Y180011D01*
X198733Y180255D01*
X202327D01*
X202131Y180011D01*
D02*
G37*
G36*
X183245Y174393D02*
X183001Y174590D01*
X182685Y174765D01*
X182296Y174921D01*
X181834Y175055D01*
X181300Y175169D01*
X180693Y175262D01*
X179260Y175387D01*
X177537Y175428D01*
Y176952D01*
X178435Y176962D01*
X180693Y177118D01*
X181300Y177211D01*
X181834Y177325D01*
X182296Y177459D01*
X182685Y177614D01*
X183001Y177791D01*
X183245Y177987D01*
Y174393D01*
D02*
G37*
G36*
X56301Y172828D02*
X56618Y172650D01*
X57008Y172493D01*
X57470Y172358D01*
X58005Y172243D01*
X58612Y172148D01*
X60044Y172023D01*
X61765Y171981D01*
X61757Y170457D01*
X60858Y170447D01*
X58598Y170293D01*
X57991Y170201D01*
X57457Y170088D01*
X56996Y169955D01*
X56607Y169801D01*
X56292Y169627D01*
X56050Y169432D01*
X56056Y173027D01*
X56301Y172828D01*
D02*
G37*
G36*
X192895Y158923D02*
X192651Y159120D01*
X192335Y159296D01*
X191946Y159451D01*
X191484Y159585D01*
X190950Y159699D01*
X190343Y159792D01*
X188910Y159917D01*
X187187Y159958D01*
Y161482D01*
X188085Y161492D01*
X190343Y161648D01*
X190950Y161741D01*
X191484Y161855D01*
X191946Y161989D01*
X192335Y162145D01*
X192651Y162320D01*
X192895Y162517D01*
Y158923D01*
D02*
G37*
G36*
X65893Y153712D02*
X66060Y151715D01*
X66160Y151163D01*
X66282Y150667D01*
X66426Y150227D01*
X66593Y149844D01*
X66782Y149517D01*
X66992Y149246D01*
X63248D01*
X63459Y149517D01*
X63647Y149844D01*
X63814Y150227D01*
X63958Y150667D01*
X64080Y151163D01*
X64180Y151715D01*
X64314Y152990D01*
X64347Y153712D01*
X64358Y154490D01*
X65882D01*
X65893Y153712D01*
D02*
G37*
G36*
X48000Y145562D02*
X48155Y143304D01*
X48248Y142697D01*
X48362Y142163D01*
X48497Y141701D01*
X48652Y141312D01*
X48828Y140995D01*
X49025Y140752D01*
X45430D01*
X45627Y140995D01*
X45803Y141312D01*
X45958Y141701D01*
X46093Y142163D01*
X46207Y142697D01*
X46300Y143304D01*
X46424Y144737D01*
X46466Y146460D01*
X47990D01*
X48000Y145562D01*
D02*
G37*
G36*
X198194Y131123D02*
X198511Y130947D01*
X198900Y130792D01*
X199362Y130657D01*
X199896Y130543D01*
X200503Y130450D01*
X201936Y130326D01*
X203659Y130285D01*
Y128760D01*
X202761Y128750D01*
X200503Y128595D01*
X199896Y128502D01*
X199362Y128388D01*
X198900Y128253D01*
X198511Y128098D01*
X198194Y127922D01*
X197951Y127725D01*
Y131320D01*
X198194Y131123D01*
D02*
G37*
G36*
X154244Y117888D02*
X154343Y117326D01*
X154508Y116831D01*
X154739Y116402D01*
X155036Y116039D01*
X155400Y115741D01*
X155829Y115510D01*
X156324Y115345D01*
X156885Y115246D01*
X157513Y115213D01*
X152560Y111911D01*
X147607Y115213D01*
X148234Y115246D01*
X148796Y115345D01*
X149291Y115510D01*
X149720Y115741D01*
X150083Y116039D01*
X150381Y116402D01*
X150612Y116831D01*
X150777Y117326D01*
X150876Y117888D01*
X150909Y118515D01*
X154211D01*
X154244Y117888D01*
D02*
G37*
G36*
X199826Y111765D02*
X199748Y111793D01*
X199571Y111818D01*
X199295Y111840D01*
X196442Y111905D01*
X194611Y111911D01*
Y115213D01*
X199826Y115359D01*
Y111765D01*
D02*
G37*
G36*
X40682Y159537D02*
X40438Y159733D01*
X40121Y159909D01*
X39732Y160064D01*
X39271Y160199D01*
X38736Y160313D01*
X38129Y160406D01*
X36697Y160530D01*
X34973Y160572D01*
Y162096D01*
X35871Y162106D01*
X38129Y162261D01*
X38736Y162355D01*
X39271Y162468D01*
X39732Y162603D01*
X40121Y162758D01*
X40438Y162934D01*
X40682Y163131D01*
Y159537D01*
D02*
G37*
G36*
X281547Y101635D02*
X281371Y101319D01*
X281216Y100930D01*
X281082Y100468D01*
X280968Y99934D01*
X280875Y99326D01*
X280750Y97894D01*
X280709Y96171D01*
X279185D01*
X279174Y97069D01*
X279019Y99326D01*
X278926Y99934D01*
X278812Y100468D01*
X278678Y100930D01*
X278522Y101319D01*
X278346Y101635D01*
X278150Y101879D01*
X281744D01*
X281547Y101635D01*
D02*
G37*
G36*
X236651Y-16132D02*
X233056D01*
X233084Y-16053D01*
X233109Y-15876D01*
X233131Y-15601D01*
X233197Y-12747D01*
X233202Y-10917D01*
X236504D01*
X236651Y-16132D01*
D02*
G37*
%LPC*%
G36*
X217838Y426259D02*
Y422602D01*
X221495D01*
X221353Y423314D01*
X220231Y424994D01*
X218550Y426117D01*
X217838Y426259D01*
D02*
G37*
G36*
X215298D02*
X214586Y426117D01*
X212906Y424994D01*
X211783Y423314D01*
X211641Y422602D01*
X215298D01*
Y426259D01*
D02*
G37*
G36*
X205483Y429774D02*
X195114D01*
Y422454D01*
X205483D01*
Y429774D01*
D02*
G37*
G36*
X215298Y420062D02*
X211641D01*
X211783Y419350D01*
X212906Y417669D01*
X214586Y416547D01*
X214856Y416493D01*
X214771Y419537D01*
X215298D01*
Y420062D01*
D02*
G37*
G36*
X221495D02*
X217838D01*
Y419537D01*
X218365D01*
X218337Y419459D01*
X218313Y419282D01*
X218291Y419006D01*
X218232Y416483D01*
X218550Y416547D01*
X220231Y417669D01*
X221353Y419350D01*
X221495Y420062D01*
D02*
G37*
G36*
X206592Y411101D02*
X196822D01*
Y405831D01*
X206592D01*
Y411101D01*
D02*
G37*
G36*
X194282D02*
X184512D01*
Y405831D01*
X194282D01*
Y411101D01*
D02*
G37*
G36*
X163175Y412691D02*
X155905D01*
Y405421D01*
X163175D01*
Y412691D01*
D02*
G37*
G36*
X153365D02*
X146095D01*
Y405421D01*
X153365D01*
Y412691D01*
D02*
G37*
G36*
X253698Y414848D02*
X251665Y414581D01*
X249770Y413796D01*
X248143Y412547D01*
X246894Y410920D01*
X246109Y409025D01*
X245841Y406991D01*
X246109Y404958D01*
X246894Y403063D01*
X248143Y401435D01*
X248154Y401426D01*
X247723Y400156D01*
X206592D01*
Y403291D01*
X195552D01*
X184512D01*
Y400156D01*
X174608D01*
X173646Y400348D01*
X171664Y399953D01*
X169984Y398831D01*
X168861Y397150D01*
X168467Y395168D01*
X168861Y393186D01*
X169984Y391506D01*
X171664Y390383D01*
X173646Y389989D01*
X175628Y390383D01*
X177176Y391417D01*
X179884Y391610D01*
X189345D01*
X189944Y390490D01*
X189627Y390015D01*
X189139Y387561D01*
X189627Y385107D01*
X191017Y383026D01*
X193098Y381636D01*
X195552Y381148D01*
X198006Y381636D01*
X200087Y383026D01*
X201477Y385107D01*
X201965Y387561D01*
X201477Y390015D01*
X201160Y390490D01*
X201758Y391610D01*
X284915D01*
X286273Y391579D01*
X286992Y391098D01*
X288974Y390704D01*
X290957Y391098D01*
X292637Y392221D01*
X293760Y393901D01*
X294154Y395883D01*
X293760Y397865D01*
X292637Y399546D01*
X290957Y400668D01*
X288974Y401063D01*
X286992Y400668D01*
X286364Y400248D01*
X283083Y400156D01*
X259674D01*
X259242Y401426D01*
X259254Y401435D01*
X260503Y403063D01*
X261288Y404958D01*
X261556Y406991D01*
X261288Y409025D01*
X260503Y410920D01*
X259254Y412547D01*
X257627Y413796D01*
X255732Y414581D01*
X253698Y414848D01*
D02*
G37*
G36*
X163175Y402881D02*
X155905D01*
Y395611D01*
X163175D01*
Y402881D01*
D02*
G37*
G36*
X153365D02*
X146095D01*
Y395611D01*
X153365D01*
Y402881D01*
D02*
G37*
%LPD*%
G36*
X287180Y394086D02*
X287101Y394114D01*
X286924Y394138D01*
X286649Y394160D01*
X283795Y394226D01*
X281964Y394232D01*
Y397534D01*
X287180Y397680D01*
Y394086D01*
D02*
G37*
G36*
X181087Y394232D02*
X180148Y394225D01*
X176752Y393983D01*
X176333Y393893D01*
X176000Y393789D01*
X175755Y393671D01*
X175595Y393540D01*
X175254Y397135D01*
X179650Y397534D01*
X181087Y394232D01*
D02*
G37*
%LPC*%
G36*
X108059Y457671D02*
X87259D01*
Y457441D01*
X87495Y456255D01*
X87872Y455691D01*
X87495Y455127D01*
X87259Y453941D01*
Y453711D01*
X108059D01*
Y453941D01*
X107823Y455127D01*
X107446Y455691D01*
X107823Y456255D01*
X108059Y457441D01*
Y457671D01*
D02*
G37*
G36*
X78661Y445218D02*
X78746Y442174D01*
X78219D01*
Y441649D01*
X81876D01*
X81734Y442361D01*
X80611Y444041D01*
X78931Y445164D01*
X78661Y445218D01*
D02*
G37*
G36*
X7734Y390617D02*
Y386960D01*
X11391D01*
X11249Y387672D01*
X10126Y389352D01*
X8446Y390475D01*
X7734Y390617D01*
D02*
G37*
G36*
X5193D02*
X4481Y390475D01*
X2801Y389352D01*
X1678Y387672D01*
X1537Y386960D01*
X5193D01*
Y390617D01*
D02*
G37*
G36*
X46078Y392955D02*
X34058D01*
Y386935D01*
X46078D01*
Y392955D01*
D02*
G37*
G36*
X31518D02*
X19498D01*
Y386935D01*
X31518D01*
Y392955D01*
D02*
G37*
G36*
X11391Y384420D02*
X7734D01*
Y380763D01*
X8446Y380905D01*
X10126Y382027D01*
X11249Y383708D01*
X11391Y384420D01*
D02*
G37*
G36*
X5193D02*
X1537D01*
X1678Y383708D01*
X2801Y382027D01*
X4481Y380905D01*
X5193Y380763D01*
Y384420D01*
D02*
G37*
G36*
X46078Y384395D02*
X34058D01*
Y378375D01*
X46078D01*
Y384395D01*
D02*
G37*
G36*
X31518D02*
X19498D01*
Y378375D01*
X31518D01*
Y384395D01*
D02*
G37*
G36*
X89518D02*
X77498D01*
Y366875D01*
X89518D01*
Y384395D01*
D02*
G37*
%LPD*%
D15*
X143533Y285437D02*
X176071D01*
X140420Y282324D02*
X143533Y285437D01*
X140420Y272113D02*
Y282324D01*
X86468Y521888D02*
X103860D01*
X86468Y506547D02*
Y521888D01*
X103860D02*
X105612Y523640D01*
X64738Y521888D02*
X86468D01*
X62087Y524539D02*
X64738Y521888D01*
X73084Y75441D02*
X87560D01*
X69301Y71658D02*
X73084Y75441D01*
X69301Y62646D02*
Y71658D01*
X148364Y30689D02*
Y49686D01*
X142537Y55512D02*
X148364Y49686D01*
X107060Y64007D02*
Y75441D01*
Y64007D02*
X109338Y61729D01*
X125429D02*
X126560Y62860D01*
X109338Y61729D02*
X125429D01*
X94240Y61277D02*
X97852Y57665D01*
X129795D01*
X140364Y47097D01*
X126560Y62860D02*
Y75441D01*
X140364Y30689D02*
Y47097D01*
X233660Y222859D02*
X233761Y222757D01*
X220004Y222859D02*
X233660D01*
X255398Y171164D02*
X255716Y171483D01*
Y190823D01*
X195300Y191647D02*
X196125Y190823D01*
X236616D01*
X170173Y202360D02*
X192360D01*
X195300Y199420D01*
Y194570D02*
Y199420D01*
X132364Y30689D02*
Y34282D01*
X132460Y15514D02*
X160645Y-12670D01*
Y-17901D02*
Y-12670D01*
X132460Y15514D02*
Y30592D01*
X132364Y30689D02*
X132460Y30592D01*
X173646Y395168D02*
X174361Y395883D01*
X157850Y370561D02*
X195552D01*
X150210Y434544D02*
Y454124D01*
X147609Y431943D02*
X150210Y434544D01*
X75326Y431943D02*
X147609D01*
X147740Y456594D02*
X150210Y454124D01*
X61329Y445941D02*
X75326Y431943D01*
X139019Y456594D02*
X147740D01*
X124280Y471886D02*
X133718Y462449D01*
X166959D01*
X167975Y461433D01*
Y456594D02*
Y461433D01*
X171566Y467651D02*
X176418Y462799D01*
Y449277D02*
Y462799D01*
X174337Y447196D02*
X176418Y449277D01*
X135135Y467651D02*
X171566D01*
X167975Y447196D02*
X174337D01*
X86240Y452441D02*
X97659D01*
X84987Y453694D02*
X86240Y452441D01*
X84987Y453694D02*
Y458941D01*
X209609Y482870D02*
X233620D01*
X206526Y485954D02*
X209609Y482870D01*
X206526Y485954D02*
Y495512D01*
X40059Y445941D02*
X61329D01*
X91605Y501410D02*
X141206D01*
X86468Y506547D02*
X91605Y501410D01*
X145005Y481330D02*
Y497612D01*
X141206Y501410D02*
X145005Y497612D01*
X70468Y496892D02*
X70921Y497346D01*
X123886D01*
X128574Y492658D01*
Y474212D02*
Y492658D01*
Y474212D02*
X135135Y467651D01*
X100656Y493282D02*
X122203D01*
X98341Y490967D02*
X100656Y493282D01*
X98341Y474621D02*
Y490967D01*
X124280Y471886D02*
Y491204D01*
X122203Y493282D02*
X124280Y491204D01*
X51057Y477287D02*
X55140Y473204D01*
X51057Y477287D02*
Y485464D01*
X62087Y524539D02*
Y533840D01*
X46798D02*
X46978Y534021D01*
X55140Y473204D02*
X96923D01*
X98341Y474621D01*
X99589Y437798D02*
X139019D01*
X97659Y439728D02*
X99589Y437798D01*
X97659Y439728D02*
Y445941D01*
X40059Y465441D02*
X97659D01*
X16782Y459015D02*
X16856Y458941D01*
X40059D01*
X238904Y447396D02*
X243305D01*
X237151Y449149D02*
X238904Y447396D01*
X237151Y449149D02*
Y479339D01*
X244803Y438513D02*
Y445898D01*
X243305Y447396D02*
X244803Y445898D01*
X233620Y482870D02*
X237151Y479339D01*
X227803Y455134D02*
X228716Y456047D01*
X227803Y438513D02*
Y455134D01*
X85002Y354613D02*
X89971Y359582D01*
X12115Y354613D02*
X85002D01*
X9902Y352399D02*
X12115Y354613D01*
X-11370Y352399D02*
X9902D01*
X161309Y297652D02*
Y321241D01*
X157967Y294310D02*
X161309Y297652D01*
X158806Y323744D02*
X161309Y321241D01*
X117754Y313828D02*
X154197D01*
X176071Y285437D02*
X185273Y276235D01*
Y270898D02*
Y276235D01*
X188193Y283373D02*
Y287406D01*
X186098Y289501D02*
X188193Y287406D01*
X148076Y323744D02*
X158806D01*
X135610D02*
X148076D01*
X-24270Y102760D02*
X1139D01*
X148076Y323744D02*
Y360787D01*
X157850Y370561D01*
X136437Y294310D02*
X157967D01*
X124420Y282293D02*
X136437Y294310D01*
X138325Y289501D02*
X186098D01*
X132420Y283596D02*
X138325Y289501D01*
X108350Y263133D02*
Y283330D01*
X68530Y294297D02*
Y322601D01*
X77402Y285424D02*
X77407Y285419D01*
X31763Y341301D02*
X68547D01*
X116350Y263133D02*
Y284454D01*
X86708Y322606D02*
X99481D01*
X77024Y312921D02*
X86708Y322606D01*
X77024Y293200D02*
Y312921D01*
X99481Y341306D02*
X111029D01*
X114618Y350293D02*
X120032Y344879D01*
X13543Y350293D02*
X114618D01*
X8218Y344969D02*
X13543Y350293D01*
X120032Y327816D02*
Y344879D01*
X124104Y323744D02*
X135610D01*
X120032Y327816D02*
X124104Y323744D01*
X114964Y316618D02*
X117754Y313828D01*
X114964Y316618D02*
Y337371D01*
X111029Y341306D02*
X114964Y337371D01*
X131884Y296595D02*
X140160Y304871D01*
X85370Y296595D02*
X131884D01*
X140160Y304871D02*
X144525D01*
X144986Y305332D01*
X124420Y272113D02*
Y282293D01*
X129676Y305037D02*
X129972Y304741D01*
X103925Y305037D02*
X129676D01*
X103630Y305332D02*
X103925Y305037D01*
X154494Y383292D02*
X154635Y383151D01*
X125206Y383292D02*
X154494D01*
X132420Y272113D02*
Y283596D01*
X88334Y289501D02*
X111303D01*
X106243Y285437D02*
X108350Y283330D01*
X90017Y285437D02*
X106243D01*
X111303Y289501D02*
X116350Y284454D01*
X90000Y285419D02*
X90017Y285437D01*
X77407Y285419D02*
X90000D01*
X8218Y339806D02*
Y344969D01*
X80741Y289483D02*
X88316D01*
X77024Y293200D02*
X80741Y289483D01*
X77390Y285437D02*
X77402Y285424D01*
X68530Y294297D02*
X77390Y285437D01*
X4340Y255829D02*
Y313878D01*
X31763Y341301D01*
X89971Y359582D02*
X96367D01*
X216502Y226360D02*
X220004Y222859D01*
X170173Y226360D02*
X216502D01*
X195300Y191647D02*
Y194570D01*
X133240Y73410D02*
Y95894D01*
X142779Y105433D02*
X223367D01*
X133240Y95894D02*
X142779Y105433D01*
X242498Y86664D02*
X274266D01*
X196156Y129522D02*
X220905D01*
X230829Y148418D02*
X234146Y145101D01*
Y110541D02*
Y145101D01*
Y110541D02*
X236953Y107733D01*
X220992Y148418D02*
X230829D01*
X236953Y107733D02*
X244767D01*
X223367Y105433D02*
X225667Y107733D01*
X279947Y92345D02*
Y103674D01*
X274266Y86664D02*
X279947Y92345D01*
X142310Y90960D02*
X220498D01*
X139740Y88390D02*
X142310Y90960D01*
X220498D02*
X224794Y86664D01*
X200530Y172930D02*
Y182050D01*
X196678Y169078D02*
X200530Y172930D01*
X155678Y169078D02*
X196678D01*
X148457Y176299D02*
X155678Y169078D01*
X148457Y176299D02*
Y188570D01*
X132420Y177325D02*
Y188607D01*
X130378Y175283D02*
X132420Y177325D01*
X69292Y175283D02*
X130378D01*
X140420Y174414D02*
Y188607D01*
X137225Y171219D02*
X140420Y174414D01*
X54272Y171219D02*
X137225D01*
X48609Y209805D02*
X86112D01*
X86667Y210360D01*
X18773Y189777D02*
X83359D01*
X86667Y193086D02*
Y202360D01*
X83359Y189777D02*
X86667Y193086D01*
X67241Y177334D02*
X69292Y175283D01*
X67241Y177334D02*
Y180775D01*
X54258Y171233D02*
X54272Y171219D01*
X19155Y103488D02*
X46722D01*
X63749Y164484D02*
X158520D01*
X47228Y147962D02*
X63749Y164484D01*
X47228Y138957D02*
Y147962D01*
X49770Y94232D02*
Y100440D01*
X46722Y103488D02*
X49770Y100440D01*
X18424Y161334D02*
X42476D01*
X18424Y161333D02*
X18424Y161334D01*
X-32824Y111314D02*
X-24270Y102760D01*
X-32824Y111314D02*
Y202080D01*
X165560Y144720D02*
Y157444D01*
X158520Y164484D02*
X165560Y157444D01*
X94240Y61277D02*
Y73410D01*
X231128Y437070D02*
X231308Y436890D01*
X153685Y382201D02*
X154635Y383151D01*
X174150Y160720D02*
X194690D01*
X172060Y158630D02*
X174150Y160720D01*
X172060Y144720D02*
Y158630D01*
X65120Y147530D02*
Y154490D01*
X71050Y160420D01*
X144550D01*
X146060Y158910D01*
Y144720D02*
Y158910D01*
X148420Y188607D02*
X148457Y188570D01*
X157580Y176190D02*
X185040D01*
X156420Y177350D02*
X157580Y176190D01*
X156420Y177350D02*
Y188607D01*
X139740Y81024D02*
Y88390D01*
D19*
X160612Y536341D02*
D03*
Y549041D02*
D03*
Y523641D02*
D03*
Y510941D02*
D03*
X105612Y536341D02*
D03*
Y549041D02*
D03*
Y523641D02*
D03*
Y510941D02*
D03*
D20*
X167975Y456594D02*
D03*
Y447196D02*
D03*
Y437798D02*
D03*
X139019D02*
D03*
Y447196D02*
D03*
Y456594D02*
D03*
D21*
X198543Y557262D02*
D03*
D22*
X97659Y465441D02*
D03*
Y458941D02*
D03*
Y452441D02*
D03*
Y445941D02*
D03*
X40059D02*
D03*
Y452441D02*
D03*
Y458941D02*
D03*
Y465441D02*
D03*
D23*
X46798Y533840D02*
D03*
X76398D02*
D03*
X115405Y481330D02*
D03*
X145005D02*
D03*
D24*
X227803Y438513D02*
D03*
X244803D02*
D03*
D25*
X244916Y456047D02*
D03*
X228716D02*
D03*
D26*
X206526Y514212D02*
D03*
Y495512D02*
D03*
X227269Y514292D02*
D03*
Y495592D02*
D03*
X135610Y323744D02*
D03*
Y342444D02*
D03*
X68547Y341301D02*
D03*
Y322601D02*
D03*
X99481Y341306D02*
D03*
Y322606D02*
D03*
D27*
X51768Y510879D02*
D03*
X70468D02*
D03*
D28*
X243894Y86664D02*
D03*
X224794D02*
D03*
X244767Y107733D02*
D03*
X225667D02*
D03*
X236616Y190823D02*
D03*
X255716D02*
D03*
D29*
X125206Y383292D02*
D03*
Y402392D02*
D03*
D30*
X51057Y485464D02*
D03*
X69072D02*
D03*
X18773Y189777D02*
D03*
X757D02*
D03*
X18424Y161333D02*
D03*
X408D02*
D03*
X233761Y222757D02*
D03*
X251777D02*
D03*
X256824Y305927D02*
D03*
X238808D02*
D03*
X18974Y130176D02*
D03*
X958D02*
D03*
X19155Y102668D02*
D03*
X1139D02*
D03*
X18301Y50640D02*
D03*
X285D02*
D03*
D31*
X32788Y408665D02*
D03*
Y385665D02*
D03*
Y362664D02*
D03*
D32*
X90788Y385665D02*
D03*
D33*
X304391Y517504D02*
D03*
X317091D02*
D03*
Y441604D02*
D03*
X304391D02*
D03*
D34*
X193844Y460044D02*
D03*
Y431044D02*
D03*
D35*
X181661Y600166D02*
D03*
X114161D02*
D03*
D36*
X159411D02*
D03*
D37*
X132411D02*
D03*
D38*
X172785Y574416D02*
D03*
X123036D02*
D03*
D39*
X160910Y573567D02*
D03*
X154411D02*
D03*
X147911D02*
D03*
X141410D02*
D03*
X134911D02*
D03*
D40*
X-31120Y341430D02*
D03*
X-31770Y257050D02*
D03*
X-30950Y289460D02*
D03*
X-31940Y320740D02*
D03*
D41*
X154635Y404151D02*
D03*
Y383151D02*
D03*
D42*
X238899Y171164D02*
D03*
X255398D02*
D03*
D43*
X220992Y148418D02*
D03*
X244492D02*
D03*
X244405Y129196D02*
D03*
X220905D02*
D03*
D44*
X227093Y251016D02*
D03*
X257593D02*
D03*
X226539Y277314D02*
D03*
X257040D02*
D03*
X-5420Y76691D02*
D03*
X25081D02*
D03*
D45*
X172060Y144720D02*
D03*
X165560D02*
D03*
X159060D02*
D03*
X152560D02*
D03*
X146060D02*
D03*
X139560D02*
D03*
X133060D02*
D03*
X87560Y75441D02*
D03*
X94060D02*
D03*
X100560D02*
D03*
X107060D02*
D03*
X113560D02*
D03*
X120060D02*
D03*
X126560D02*
D03*
X133060D02*
D03*
X139560D02*
D03*
X146060D02*
D03*
X152560D02*
D03*
X159060D02*
D03*
X165560D02*
D03*
X172060D02*
D03*
D46*
X126560Y144720D02*
D03*
X120060D02*
D03*
X113560D02*
D03*
X107060D02*
D03*
X100560D02*
D03*
X94060D02*
D03*
X87560D02*
D03*
D47*
X234425Y45346D02*
D03*
D48*
Y9746D02*
D03*
D49*
X195552Y404561D02*
D03*
Y370561D02*
D03*
D50*
X148364Y30689D02*
D03*
X164364D02*
D03*
X156364D02*
D03*
X132364D02*
D03*
X140364D02*
D03*
D51*
X197614Y30940D02*
D03*
D52*
Y-11561D02*
D03*
X99114D02*
D03*
D53*
Y30940D02*
D03*
D54*
X100420Y272113D02*
D03*
X108420D02*
D03*
X116420D02*
D03*
X124420D02*
D03*
X132420D02*
D03*
X140420D02*
D03*
X148420Y272113D02*
D03*
X156420Y272113D02*
D03*
Y188607D02*
D03*
X148420D02*
D03*
X140420D02*
D03*
X132420D02*
D03*
X124420D02*
D03*
X116420D02*
D03*
X108420D02*
D03*
X100420D02*
D03*
D55*
X170173Y258360D02*
D03*
Y250360D02*
D03*
Y242360D02*
D03*
Y234360D02*
D03*
Y226360D02*
D03*
Y218360D02*
D03*
X170173Y210360D02*
D03*
X170173Y202360D02*
D03*
X86667D02*
D03*
X86667Y210360D02*
D03*
X86667Y218360D02*
D03*
Y226360D02*
D03*
Y234360D02*
D03*
Y242360D02*
D03*
Y250360D02*
D03*
D56*
Y258360D02*
D03*
D79*
X195552Y387561D02*
D03*
D83*
X304391Y480378D02*
G03*
X304013Y480755I-378J0D01*
G01*
X240972Y308091D02*
Y347009D01*
X238808Y305927D02*
X240972Y308091D01*
X227093Y251016D02*
Y276760D01*
X229783Y235813D02*
X249405D01*
X227093Y238503D02*
X229783Y235813D01*
X227093Y238503D02*
Y251016D01*
X249405Y235813D02*
X251786Y233432D01*
Y222766D02*
Y233432D01*
X251777Y222757D02*
X251786Y222766D01*
X261562Y557240D02*
Y589053D01*
Y557240D02*
X282679Y536123D01*
X31966Y553798D02*
X50405Y572237D01*
Y589609D01*
X66387Y549041D02*
X105612D01*
X62087Y544740D02*
X66387Y549041D01*
X62087Y533840D02*
Y544740D01*
X80084Y549500D02*
Y590142D01*
X255828Y518090D02*
X273318D01*
X208196Y565723D02*
X255828Y518090D01*
X208196Y565723D02*
Y590245D01*
X282679Y536123D02*
X312526D01*
X99114Y-11561D02*
Y30940D01*
X234799Y45603D02*
X276556D01*
X234425Y45230D02*
X234799Y45603D01*
X304013Y480755D02*
X304391Y480378D01*
Y441604D02*
Y480378D01*
X31966Y512184D02*
X51768D01*
X317091Y441604D02*
Y467474D01*
Y517504D02*
Y531559D01*
X312526Y536123D02*
X317091Y531559D01*
X273318Y518090D02*
X304391D01*
X108320Y221760D02*
Y230740D01*
X56305Y232947D02*
Y283500D01*
Y232947D02*
X70587Y218665D01*
X86362D01*
X-15540Y384621D02*
Y404226D01*
Y368753D02*
Y384621D01*
X-27011D02*
X-15540D01*
X-31120Y380512D02*
X-27011Y384621D01*
X-31120Y341430D02*
Y380512D01*
X-15540Y404226D02*
X-11102Y408665D01*
X-15540Y368753D02*
X-9451Y362664D01*
X32788D01*
X-11102Y408665D02*
X32788D01*
X6605Y385548D02*
X32672D01*
X6464Y385690D02*
X6605Y385548D01*
X32672D02*
X32788Y385665D01*
X-13255Y273228D02*
X-13061Y273034D01*
X-13255Y273228D02*
Y285609D01*
X-17106Y289460D02*
X-13255Y285609D01*
X-30950Y289460D02*
X-17106D01*
X31966Y512184D02*
Y553798D01*
X7587Y505312D02*
X31966D01*
X-11571D02*
X7587D01*
X187818Y477365D02*
X193844Y471339D01*
X170545Y477365D02*
X187818D01*
X193844Y460044D02*
Y471339D01*
X170350Y477559D02*
X170545Y477365D01*
X46798Y533840D02*
X62087D01*
X31966Y505312D02*
Y512184D01*
X282561Y131681D02*
Y137086D01*
X280350Y129470D02*
X282561Y131681D01*
X244405Y129470D02*
X280350D01*
X282561Y137086D02*
Y142612D01*
X276593Y148580D02*
X282561Y142612D01*
X244492Y148580D02*
X276593D01*
X86362Y218665D02*
X86667Y218360D01*
X32788Y385665D02*
X90788D01*
X146520Y210360D02*
X170173D01*
X130560Y226320D02*
X146520Y210360D01*
X108450Y226320D02*
X130560D01*
X104700Y234360D02*
X108320Y230740D01*
X104920Y218360D02*
X108320Y221760D01*
X86667Y218360D02*
X104920D01*
X86667Y234360D02*
X104700D01*
D84*
X241530Y161969D02*
X286318D01*
X238899Y164601D02*
X241530Y161969D01*
X238899Y164601D02*
Y171164D01*
X285Y50640D02*
Y70986D01*
X-5420Y76691D02*
X285Y70986D01*
X263014Y59572D02*
X271254Y67813D01*
X197650Y59572D02*
X263014D01*
X164364D02*
X197650D01*
Y30976D02*
Y59572D01*
X197614Y30940D02*
X197650Y30976D01*
X197614Y-11561D02*
Y30940D01*
X152560Y61306D02*
Y75441D01*
Y61306D02*
X154293Y59572D01*
X164364D01*
Y30689D02*
Y59572D01*
X61382Y52712D02*
X127743D01*
X132364Y48092D01*
X57763Y49093D02*
X61382Y52712D01*
X132364Y34282D02*
Y48092D01*
X57763Y38180D02*
Y49093D01*
X203551Y240980D02*
Y277314D01*
X196931Y234360D02*
X203551Y240980D01*
X170173Y234360D02*
X196931D01*
X203551Y277314D02*
X226539D01*
X203551Y277722D02*
Y299664D01*
X209814Y305927D02*
X238808D01*
X203551Y299664D02*
X209814Y305927D01*
X255071Y307726D02*
Y336073D01*
Y307726D02*
X256847Y305950D01*
X257040Y251569D02*
X257593Y251016D01*
X257040Y251569D02*
Y277314D01*
X256824Y277529D02*
X257040Y277314D01*
X256824Y277529D02*
Y305927D01*
X256847Y305950D01*
X267917Y199428D02*
Y206332D01*
X263890Y210360D02*
X267917Y206332D01*
X170173Y210360D02*
X263890D01*
X108584Y558965D02*
X132333D01*
X105612Y555994D02*
X108584Y558965D01*
X105612Y549041D02*
Y555994D01*
X132333Y558965D02*
X134911Y561543D01*
Y573567D01*
X160910Y549041D02*
Y573567D01*
Y549041D02*
X181789D01*
X198543Y548124D02*
Y557262D01*
X196135Y545715D02*
X198543Y548124D01*
X185596Y545715D02*
X196135D01*
X181789Y549041D02*
X185115Y545715D01*
X185596D01*
X58364Y11272D02*
X99244D01*
X234853Y-17927D02*
Y9318D01*
X234425Y9746D02*
X234853Y9318D01*
X221403Y373924D02*
X297324D01*
X208155Y360675D02*
X221403Y373924D01*
X208155Y343276D02*
Y360675D01*
X303392Y379991D02*
Y413772D01*
X297324Y373924D02*
X303392Y379991D01*
X298902Y418262D02*
X303392Y413772D01*
X280967Y418262D02*
X298902D01*
X273318Y425911D02*
X280967Y418262D01*
X273318Y425911D02*
Y518090D01*
X202559Y337681D02*
X208155Y343276D01*
X172323Y337681D02*
X202559D01*
X174361Y395883D02*
X288974D01*
X155045Y404561D02*
X194552D01*
X193844Y406269D02*
Y431044D01*
Y406269D02*
X195552Y404561D01*
X194552D02*
X194607Y404506D01*
X154991D02*
X155045Y404561D01*
X160675Y535371D02*
X212058D01*
X227269Y520160D01*
Y514292D02*
Y520160D01*
X176187Y426990D02*
X178816Y429619D01*
X110393Y426990D02*
X176187D01*
X107590Y415290D02*
X111289Y418989D01*
X137552D01*
X105583Y422180D02*
X110393Y426990D01*
X107590Y360670D02*
Y408721D01*
Y415290D01*
X178816Y429619D02*
Y439294D01*
X79242Y458941D02*
X84987D01*
X76949Y456649D02*
X79242Y458941D01*
X76949Y440379D02*
Y456649D01*
X85359Y458941D02*
X97659D01*
X172323Y337681D02*
Y346490D01*
X34683Y293806D02*
X48609Y279880D01*
X18773Y293806D02*
X34683D01*
X48609Y209805D02*
Y279880D01*
X-14863Y308388D02*
Y317552D01*
X-18391Y321079D02*
X-14863Y317552D01*
X-31249Y321079D02*
X-18391D01*
X183357Y496342D02*
X209738Y469961D01*
X183357Y496342D02*
Y511795D01*
X209738Y449079D02*
Y469961D01*
X204430Y443771D02*
X209738Y449079D01*
X183293Y443771D02*
X204430D01*
X178816Y439294D02*
X183293Y443771D01*
X18614Y422180D02*
X105583D01*
X149262Y506363D02*
X170350Y485275D01*
Y477559D02*
Y485275D01*
X7587Y433207D02*
X18614Y422180D01*
X7587Y433207D02*
Y505312D01*
X121807Y506363D02*
X149262D01*
X161467Y511795D02*
X183357D01*
X160612Y510940D02*
X161467Y511795D01*
X120499Y447196D02*
X139019D01*
X115405Y452291D02*
X120499Y447196D01*
X115405Y452291D02*
Y481330D01*
X117229Y510940D02*
X121807Y506363D01*
X70468Y496892D02*
Y510879D01*
Y486859D02*
Y496892D01*
X78898Y536340D02*
X105612D01*
X76398Y533840D02*
X78898Y536340D01*
X160675Y522671D02*
X161644Y523640D01*
X206526Y514212D02*
Y519647D01*
X202532Y523640D02*
X206526Y519647D01*
X161644Y523640D02*
X202532D01*
X105612Y510940D02*
X117229D01*
X69072Y485464D02*
X70468Y486859D01*
X16782Y459015D02*
Y482067D01*
Y452543D02*
Y459015D01*
Y452543D02*
X16884Y452441D01*
X40059D01*
X16782Y482067D02*
X20179Y485464D01*
X51057D01*
X244977Y456108D02*
Y491918D01*
X241304Y495592D02*
X244977Y491918D01*
X227269Y495592D02*
X241304D01*
X244916Y456047D02*
X244977Y456108D01*
X216568Y408364D02*
Y421332D01*
X212765Y404561D02*
X216568Y408364D01*
X195552Y404561D02*
X212765D01*
X67585Y230467D02*
Y278174D01*
X164784Y354029D02*
X172323Y346490D01*
X155188Y354029D02*
X164784D01*
X172231Y312335D02*
Y336201D01*
X107534Y408665D02*
X107590Y408721D01*
X32788Y408665D02*
X107534D01*
X107732Y402392D02*
X125206D01*
X135670Y339350D02*
Y351770D01*
X131040Y356400D02*
X135670Y351770D01*
X111860Y356400D02*
X131040D01*
X120060Y75441D02*
Y105380D01*
X128242Y113562D01*
X201621D01*
X152560Y113514D02*
Y144720D01*
X67793Y242360D02*
X86667D01*
X67585Y230467D02*
X71692Y226360D01*
X16385Y243285D02*
X18439Y245339D01*
X18773Y245006D01*
Y189777D02*
Y245006D01*
X-20243Y179611D02*
Y253433D01*
X-23860Y257050D02*
X-20243Y253433D01*
X-31770Y257050D02*
X-23860D01*
X-16179Y175547D02*
X757D01*
X-20243Y179611D02*
X-16179Y175547D01*
X757D02*
Y189777D01*
Y161683D02*
Y175547D01*
X408Y161333D02*
X757Y161683D01*
X62843Y125176D02*
X66848Y121170D01*
X62843Y125176D02*
Y130282D01*
X958Y147646D02*
Y160783D01*
Y130176D02*
Y147646D01*
X580Y147267D02*
X958Y147646D01*
X-25186Y147267D02*
X580D01*
X408Y161333D02*
X958Y160783D01*
X100560Y75441D02*
Y93519D01*
X81113Y112966D02*
X100560Y93519D01*
X47616Y112966D02*
X81113D01*
X47682Y60875D02*
Y72587D01*
X43579Y76691D02*
X47682Y72587D01*
X25081Y76691D02*
X43579D01*
X47682Y54343D02*
Y60875D01*
X43980Y50640D02*
X47682Y54343D01*
X18301Y50640D02*
X43980D01*
X2881Y35700D02*
X55283D01*
X285Y38296D02*
X2881Y35700D01*
X285Y38296D02*
Y50640D01*
X55283Y35700D02*
X57763Y38180D01*
X-31425Y321255D02*
X-31249Y321079D01*
X47616Y112966D02*
Y123286D01*
X40726Y130176D02*
X47616Y123286D01*
X18974Y130176D02*
X40726D01*
X107590Y360670D02*
X111860Y356400D01*
X133060Y126850D02*
Y144720D01*
X127380Y121170D02*
X133060Y126850D01*
X66848Y121170D02*
X127380D01*
X107060Y75441D02*
Y120831D01*
X71692Y226360D02*
X86667D01*
D85*
X-180Y580050D02*
D03*
X306074Y579945D02*
D03*
X305991Y325D02*
D03*
X0Y0D02*
D03*
D86*
X-11571Y465312D02*
D03*
D87*
Y485312D02*
D03*
Y505312D02*
D03*
D88*
Y444311D02*
D03*
Y526311D02*
D03*
D89*
X253698Y406991D02*
D03*
Y358191D02*
D03*
X18773Y245006D02*
D03*
Y293806D02*
D03*
D90*
X170364Y7439D02*
D03*
X126364D02*
D03*
D91*
X286318Y161969D02*
D03*
X142537Y55512D02*
D03*
X69301Y62646D02*
D03*
X255071Y336073D02*
D03*
X267917Y199428D02*
D03*
X185596Y545715D02*
D03*
X58364Y11272D02*
D03*
X234853Y-17927D02*
D03*
X271254Y67813D02*
D03*
X160645Y-17901D02*
D03*
X276556Y45603D02*
D03*
X317091Y467474D02*
D03*
X320376Y337049D02*
D03*
X288974Y395883D02*
D03*
X173646Y395168D02*
D03*
X304391Y480378D02*
D03*
X137552Y418989D02*
D03*
X240972Y347009D02*
D03*
X172323Y337681D02*
D03*
X56305Y283500D02*
D03*
X6464Y385690D02*
D03*
X-14863Y308388D02*
D03*
X-13061Y273034D02*
D03*
X76949Y440379D02*
D03*
X170350Y477559D02*
D03*
X183357Y511795D02*
D03*
X216568Y421332D02*
D03*
X19358Y309658D02*
D03*
X172231Y312335D02*
D03*
X154197Y313828D02*
D03*
X188193Y283373D02*
D03*
X185273Y270898D02*
D03*
X89065Y309481D02*
D03*
X129972Y304741D02*
D03*
X103630Y305332D02*
D03*
X144986Y305332D02*
D03*
X155188Y354029D02*
D03*
X8218Y339806D02*
D03*
X85370Y296595D02*
D03*
X4340Y255829D02*
D03*
X96367Y359582D02*
D03*
X201621Y113562D02*
D03*
X282561Y137086D02*
D03*
X196156Y129522D02*
D03*
X279947Y103674D02*
D03*
X67481Y278174D02*
D03*
X48609Y209805D02*
D03*
X67241Y180775D02*
D03*
X54258Y171233D02*
D03*
X62843Y130282D02*
D03*
X47228Y138957D02*
D03*
X42476Y161334D02*
D03*
X-32824Y202080D02*
D03*
X49770Y94232D02*
D03*
X47682Y60875D02*
D03*
X-25186Y147267D02*
D03*
X-11370Y352399D02*
D03*
X47616Y112966D02*
D03*
X194690Y160720D02*
D03*
X65120Y147530D02*
D03*
X195300Y194570D02*
D03*
X185040Y176190D02*
D03*
X200530Y182050D02*
D03*
D92*
X261562Y589053D02*
D03*
X50405Y589609D02*
D03*
X80084Y590142D02*
D03*
X208196Y590245D02*
D03*
X234195Y589661D02*
D03*
M02*
