G04*
G04 #@! TF.GenerationSoftware,Altium Limited,Altium Designer,19.0.15 (446)*
G04*
G04 Layer_Color=16711935*
%FSLAX44Y44*%
%MOMM*%
G71*
G01*
G75*
%ADD30R,1.5046X1.5562*%
G04:AMPARAMS|DCode=59|XSize=1.2192mm|YSize=1.2192mm|CornerRadius=0.3556mm|HoleSize=0mm|Usage=FLASHONLY|Rotation=90.000|XOffset=0mm|YOffset=0mm|HoleType=Round|Shape=RoundedRectangle|*
%AMROUNDEDRECTD59*
21,1,1.2192,0.5080,0,0,90.0*
21,1,0.5080,1.2192,0,0,90.0*
1,1,0.7112,0.2540,0.2540*
1,1,0.7112,0.2540,-0.2540*
1,1,0.7112,-0.2540,-0.2540*
1,1,0.7112,-0.2540,0.2540*
%
%ADD59ROUNDEDRECTD59*%
G04:AMPARAMS|DCode=64|XSize=1.2032mm|YSize=1.6232mm|CornerRadius=0.2266mm|HoleSize=0mm|Usage=FLASHONLY|Rotation=90.000|XOffset=0mm|YOffset=0mm|HoleType=Round|Shape=RoundedRectangle|*
%AMROUNDEDRECTD64*
21,1,1.2032,1.1700,0,0,90.0*
21,1,0.7500,1.6232,0,0,90.0*
1,1,0.4532,0.5850,0.3750*
1,1,0.4532,0.5850,-0.3750*
1,1,0.4532,-0.5850,-0.3750*
1,1,0.4532,-0.5850,0.3750*
%
%ADD64ROUNDEDRECTD64*%
G04:AMPARAMS|DCode=65|XSize=1.2032mm|YSize=1.6232mm|CornerRadius=0.2266mm|HoleSize=0mm|Usage=FLASHONLY|Rotation=0.000|XOffset=0mm|YOffset=0mm|HoleType=Round|Shape=RoundedRectangle|*
%AMROUNDEDRECTD65*
21,1,1.2032,1.1700,0,0,0.0*
21,1,0.7500,1.6232,0,0,0.0*
1,1,0.4532,0.3750,-0.5850*
1,1,0.4532,-0.3750,-0.5850*
1,1,0.4532,-0.3750,0.5850*
1,1,0.4532,0.3750,0.5850*
%
%ADD65ROUNDEDRECTD65*%
%ADD67R,1.5832X1.1232*%
G04:AMPARAMS|DCode=69|XSize=1.2192mm|YSize=1.2192mm|CornerRadius=0.3556mm|HoleSize=0mm|Usage=FLASHONLY|Rotation=0.000|XOffset=0mm|YOffset=0mm|HoleType=Round|Shape=RoundedRectangle|*
%AMROUNDEDRECTD69*
21,1,1.2192,0.5080,0,0,0.0*
21,1,0.5080,1.2192,0,0,0.0*
1,1,0.7112,0.2540,-0.2540*
1,1,0.7112,-0.2540,-0.2540*
1,1,0.7112,-0.2540,0.2540*
1,1,0.7112,0.2540,0.2540*
%
%ADD69ROUNDEDRECTD69*%
%ADD74C,6.2032*%
%ADD75R,1.5112X1.5112*%
%ADD76C,1.5112*%
%ADD77C,1.7032*%
%ADD78C,1.2532*%
%ADD79C,0.7500*%
%ADD80C,1.1032*%
%ADD81C,0.7112*%
%ADD82C,1.9812*%
%ADD107R,1.5562X1.5046*%
%ADD108R,1.8582X1.5055*%
%ADD111R,0.4000X0.3000*%
%ADD112R,1.7800X1.0200*%
%ADD114R,2.4130X3.4290*%
%ADD115R,1.2000X0.6000*%
G04:AMPARAMS|DCode=117|XSize=0.6937mm|YSize=0.2393mm|CornerRadius=0.0598mm|HoleSize=0mm|Usage=FLASHONLY|Rotation=90.000|XOffset=0mm|YOffset=0mm|HoleType=Round|Shape=RoundedRectangle|*
%AMROUNDEDRECTD117*
21,1,0.6937,0.1196,0,0,90.0*
21,1,0.5741,0.2393,0,0,90.0*
1,1,0.1196,0.0598,0.2870*
1,1,0.1196,0.0598,-0.2870*
1,1,0.1196,-0.0598,-0.2870*
1,1,0.1196,-0.0598,0.2870*
%
%ADD117ROUNDEDRECTD117*%
G04:AMPARAMS|DCode=118|XSize=0.2393mm|YSize=0.6937mm|CornerRadius=0.0598mm|HoleSize=0mm|Usage=FLASHONLY|Rotation=90.000|XOffset=0mm|YOffset=0mm|HoleType=Round|Shape=RoundedRectangle|*
%AMROUNDEDRECTD118*
21,1,0.2393,0.5741,0,0,90.0*
21,1,0.1196,0.6937,0,0,90.0*
1,1,0.1196,0.2870,0.0598*
1,1,0.1196,0.2870,-0.0598*
1,1,0.1196,-0.2870,-0.0598*
1,1,0.1196,-0.2870,0.0598*
%
%ADD118ROUNDEDRECTD118*%
%ADD119O,0.6937X0.2393*%
%ADD120R,0.6937X0.2393*%
%ADD121R,2.6000X2.6000*%
%ADD124R,0.6725X0.7653*%
%ADD125R,1.2192X1.7272*%
%ADD126R,3.3832X2.4532*%
%ADD127R,1.3632X1.6732*%
%ADD128R,1.3532X1.6732*%
%ADD129R,1.7032X1.5032*%
G04:AMPARAMS|DCode=130|XSize=0.9932mm|YSize=0.4632mm|CornerRadius=0.1666mm|HoleSize=0mm|Usage=FLASHONLY|Rotation=180.000|XOffset=0mm|YOffset=0mm|HoleType=Round|Shape=RoundedRectangle|*
%AMROUNDEDRECTD130*
21,1,0.9932,0.1300,0,0,180.0*
21,1,0.6600,0.4632,0,0,180.0*
1,1,0.3332,-0.3300,0.0650*
1,1,0.3332,0.3300,0.0650*
1,1,0.3332,0.3300,-0.0650*
1,1,0.3332,-0.3300,-0.0650*
%
%ADD130ROUNDEDRECTD130*%
G04:AMPARAMS|DCode=131|XSize=0.9932mm|YSize=0.4632mm|CornerRadius=0.1666mm|HoleSize=0mm|Usage=FLASHONLY|Rotation=90.000|XOffset=0mm|YOffset=0mm|HoleType=Round|Shape=RoundedRectangle|*
%AMROUNDEDRECTD131*
21,1,0.9932,0.1300,0,0,90.0*
21,1,0.6600,0.4632,0,0,90.0*
1,1,0.3332,0.0650,0.3300*
1,1,0.3332,0.0650,-0.3300*
1,1,0.3332,-0.0650,-0.3300*
1,1,0.3332,-0.0650,0.3300*
%
%ADD131ROUNDEDRECTD131*%
D30*
X66676Y307591D02*
D03*
X48661D02*
D03*
X48663Y356029D02*
D03*
X66679D02*
D03*
D59*
X245840Y282380D02*
D03*
D64*
X72617Y496298D02*
D03*
Y477598D02*
D03*
D65*
X66959Y331415D02*
D03*
X48259D02*
D03*
X207465Y364545D02*
D03*
X188765D02*
D03*
D67*
X96720Y477615D02*
D03*
Y496715D02*
D03*
D69*
X323440Y525318D02*
D03*
X245590Y304380D02*
D03*
X291470Y56487D02*
D03*
X294771Y85415D02*
D03*
D74*
X-180Y580050D02*
D03*
X306074Y579945D02*
D03*
X305991Y325D02*
D03*
X0Y0D02*
D03*
D75*
X-11571Y465312D02*
D03*
D76*
Y485312D02*
D03*
Y505312D02*
D03*
D77*
Y444311D02*
D03*
Y526311D02*
D03*
D78*
X253698Y406991D02*
D03*
Y358191D02*
D03*
X18773Y245006D02*
D03*
Y293806D02*
D03*
D79*
X195552Y387561D02*
D03*
D80*
X170364Y7439D02*
D03*
X126364D02*
D03*
D81*
X286318Y161969D02*
D03*
X142537Y55512D02*
D03*
X69301Y62646D02*
D03*
X255071Y336073D02*
D03*
X267917Y199428D02*
D03*
X185596Y545715D02*
D03*
X58364Y11272D02*
D03*
X234853Y-17927D02*
D03*
X271254Y67813D02*
D03*
X160645Y-17901D02*
D03*
X276556Y45603D02*
D03*
X317091Y467474D02*
D03*
X320376Y337049D02*
D03*
X288974Y395883D02*
D03*
X173646Y395168D02*
D03*
X304391Y480378D02*
D03*
X137552Y418989D02*
D03*
X240972Y347009D02*
D03*
X172323Y337681D02*
D03*
X56305Y283500D02*
D03*
X6464Y385690D02*
D03*
X-14863Y308388D02*
D03*
X-13061Y273034D02*
D03*
X76949Y440379D02*
D03*
X170350Y477559D02*
D03*
X183357Y511795D02*
D03*
X216568Y421332D02*
D03*
X19358Y309658D02*
D03*
X172231Y312335D02*
D03*
X154197Y313828D02*
D03*
X188193Y283373D02*
D03*
X185273Y270898D02*
D03*
X89065Y309481D02*
D03*
X129972Y304741D02*
D03*
X103630Y305332D02*
D03*
X144986Y305332D02*
D03*
X155188Y354029D02*
D03*
X8218Y339806D02*
D03*
X85370Y296595D02*
D03*
X4340Y255829D02*
D03*
X96367Y359582D02*
D03*
X201621Y113562D02*
D03*
X282561Y137086D02*
D03*
X196156Y129522D02*
D03*
X279947Y103674D02*
D03*
X67481Y278174D02*
D03*
X48609Y209805D02*
D03*
X67241Y180775D02*
D03*
X54258Y171233D02*
D03*
X62843Y130282D02*
D03*
X47228Y138957D02*
D03*
X42476Y161334D02*
D03*
X-32824Y202080D02*
D03*
X49770Y94232D02*
D03*
X47682Y60875D02*
D03*
X-25186Y147267D02*
D03*
X-11370Y352399D02*
D03*
X47616Y112966D02*
D03*
X194690Y160720D02*
D03*
X65120Y147530D02*
D03*
X195300Y194570D02*
D03*
X185040Y176190D02*
D03*
X200530Y182050D02*
D03*
D82*
X261562Y589053D02*
D03*
X50405Y589609D02*
D03*
X80084Y590142D02*
D03*
X208196Y590245D02*
D03*
X234195Y589661D02*
D03*
D107*
X320871Y288271D02*
D03*
Y270255D02*
D03*
X46245Y379064D02*
D03*
Y397079D02*
D03*
D108*
X288514Y270059D02*
D03*
Y299586D02*
D03*
D111*
X133203Y379633D02*
D03*
Y386633D02*
D03*
X90802Y385493D02*
D03*
Y378493D02*
D03*
D112*
X113315Y373539D02*
D03*
Y391339D02*
D03*
D114*
X268284Y507512D02*
D03*
X209863D02*
D03*
D115*
X91573Y548701D02*
D03*
Y539201D02*
D03*
Y529701D02*
D03*
X65573D02*
D03*
Y539201D02*
D03*
Y548701D02*
D03*
D117*
X131380Y315830D02*
D03*
X126380D02*
D03*
X121380D02*
D03*
X116380D02*
D03*
X111380D02*
D03*
Y353600D02*
D03*
X116380D02*
D03*
X121380D02*
D03*
X126380D02*
D03*
X131380D02*
D03*
D118*
X102495Y324715D02*
D03*
Y329715D02*
D03*
Y334715D02*
D03*
Y339715D02*
D03*
Y344715D02*
D03*
X140265D02*
D03*
Y339715D02*
D03*
Y324715D02*
D03*
D119*
Y334715D02*
D03*
D120*
Y329715D02*
D03*
D121*
X121380Y334715D02*
D03*
D124*
X74310Y377448D02*
D03*
Y386519D02*
D03*
D125*
X330123Y156170D02*
D03*
D126*
X160797Y565529D02*
D03*
Y496429D02*
D03*
D127*
X147529Y148749D02*
D03*
X129929D02*
D03*
X207062Y302915D02*
D03*
X189461D02*
D03*
X189466Y343112D02*
D03*
X207066D02*
D03*
X189764Y322548D02*
D03*
X207363D02*
D03*
X107420Y88138D02*
D03*
X89820D02*
D03*
D128*
X107156Y109050D02*
D03*
X89556D02*
D03*
X163600Y54090D02*
D03*
X181200D02*
D03*
D129*
X48948Y477595D02*
D03*
Y497595D02*
D03*
X119091Y496948D02*
D03*
Y476948D02*
D03*
D130*
X169737Y103693D02*
D03*
Y98693D02*
D03*
Y93693D02*
D03*
Y88693D02*
D03*
Y83693D02*
D03*
Y78693D02*
D03*
X130337D02*
D03*
Y83693D02*
D03*
Y88693D02*
D03*
Y93693D02*
D03*
Y98693D02*
D03*
Y103693D02*
D03*
D131*
X162537Y71493D02*
D03*
X157537D02*
D03*
X152537D02*
D03*
X147537D02*
D03*
X142537D02*
D03*
X137537D02*
D03*
Y110893D02*
D03*
X142537D02*
D03*
X147537D02*
D03*
X152537D02*
D03*
X157537D02*
D03*
X162537D02*
D03*
M02*
