G04*
G04 #@! TF.GenerationSoftware,Altium Limited,Altium Designer,19.0.15 (446)*
G04*
G04 Layer_Color=16711935*
%FSLAX44Y44*%
%MOMM*%
G71*
G01*
G75*
%ADD13C,0.1270*%
%ADD133C,0.1270*%
D13*
X319694Y616141D02*
G03*
X319689Y616141I-6J-635D01*
G01*
X319694Y616141D02*
G03*
X319689Y616141I-6J-26035D01*
G01*
X345724Y590111D02*
G03*
X319694Y616141I-26035J-6D01*
G01*
X345724Y590106D02*
G03*
X345724Y590111I-26035J-0D01*
G01*
X345727Y580298D02*
G03*
X345727Y580299I-635J0D01*
G01*
Y580298D02*
G03*
X345727Y580299I-635J0D01*
G01*
X345724Y590106D02*
G03*
X345724Y590111I-635J-0D01*
G01*
X298777Y616141D02*
G03*
X298759Y616140I0J-635D01*
G01*
X298761Y616140D02*
G03*
X298758Y616140I16J-635D01*
G01*
X298777Y616141D02*
G03*
X298761Y616140I0J-635D01*
G01*
X345727Y-256D02*
G03*
X345727Y-248I-635J8D01*
G01*
X345727Y-256D02*
G03*
X345727Y-248I-635J8D01*
G01*
X345584Y-11514D02*
G03*
X345584Y-11510I-26035J4D01*
G01*
X319549Y-37545D02*
G03*
X345584Y-11514I0J26035D01*
G01*
X305995Y-37545D02*
G03*
X305998Y-37545I3J635D01*
G01*
X305990Y-37545D02*
G03*
X305995Y-37545I8J635D01*
G01*
X305993Y-37545D02*
G03*
X305998Y-37545I5J635D01*
G01*
X-16208Y617612D02*
G03*
X-16217Y617612I-9J-635D01*
G01*
X-16208Y617612D02*
G03*
X-16217Y617612I-9J-635D01*
G01*
X-16217D02*
G03*
X-42252Y591577I-1J-26035D01*
G01*
X-42460Y-8911D02*
G03*
X-16595Y-34945I26034J0D01*
G01*
X-42460Y-8910D02*
G03*
X-42460Y-8911I26034J-1D01*
G01*
X335Y-35055D02*
G03*
X336Y-35055I4J635D01*
G01*
X331Y-35055D02*
G03*
X334Y-35055I8J635D01*
G01*
X-16595Y-34945D02*
G03*
X-16592Y-34945I4J635D01*
G01*
X-42460Y5832D02*
G03*
X-42460Y5829I635J-3D01*
G01*
Y5832D02*
G03*
X-42460Y5829I635J-3D01*
G01*
X298777Y616141D02*
X319689D01*
X345724Y590106D02*
X345727Y580299D01*
X343Y617380D02*
X279883Y615608D01*
X298759Y616140D02*
X298761Y616140D01*
X298758Y616140D02*
X298759Y616140D01*
X279883Y615608D02*
X298758Y616140D01*
X345727Y580298D02*
X345727Y-248D01*
X345584Y-11514D02*
X345727Y-256D01*
X345584Y-11518D02*
X345584Y-11514D01*
X305998Y-37545D02*
X319549D01*
X-16208Y617612D02*
X348Y617380D01*
X-42252Y591577D02*
Y591577D01*
Y586476D02*
Y591577D01*
X-42252Y555900D02*
X-42252Y46134D01*
Y46130D02*
Y46134D01*
X-42252Y586476D02*
X-42252Y555900D01*
X305993Y-37545D02*
X305995Y-37545D01*
X305990Y-37545D02*
X305993Y-37545D01*
X336Y-35055D02*
X305990Y-37545D01*
X334Y-35055D02*
X336Y-35055D01*
X331Y-35055D02*
X335Y-35055D01*
X-16592Y-34945D02*
X331Y-35055D01*
X-16595Y-34945D02*
X-16592Y-34945D01*
X-42460Y5832D02*
X-42252Y46134D01*
X-42460Y-8910D02*
Y5829D01*
Y-8911D02*
Y-8910D01*
D133*
X-42252Y591577D02*
D03*
M02*
