M48
;Layer_Color=9474304
;FILE_FORMAT=4:4
METRIC,LZ
;TYPE=PLATED
T1F00S00C0.2540
T2F00S00C0.6500
T3F00S00C0.8000
T4F00S00C1.0160
%
T01
X00058364Y00011272
X00047682Y00060875
X00069301Y00062646
X0004977Y00094232
X00047616Y00112966
X00142537Y00055512
X00160645Y-00017901
X00234853Y-00017927
X00276556Y00045603
X00271254Y00067813
X00279947Y00103674
X00201621Y00113562
X00282561Y00137086
X00286318Y00161969
X00267917Y00199428
X00255071Y00336073
X00240972Y00347009
X00320376Y00337049
X00288974Y00395883
X00216568Y00421332
X00317091Y00467474
X00304391Y00480378
X0017035Y00477559
X00183357Y00511795
X00173646Y00395168
X00172323Y00337681
X00172231Y00312335
X00154197Y00313828
X00144986Y00305332
X00129972Y00304741
X0010363Y00305332
X00089065Y00309481
X0008537Y00296595
X00067481Y00278174
X00056305Y002835
X00019358Y00309658
X-00014863Y00308388
X-00013061Y00273034
X0000434Y00255829
X00008218Y00339806
X-0001137Y00352399
X00006464Y0038569
X00096367Y00359582
X00155188Y00354029
X00137552Y00418989
X00076949Y00440379
X00048609Y00209805
X00054258Y00171233
X00042476Y00161334
X00047228Y00138957
X00062843Y00130282
X0006512Y0014753
X00067241Y00180775
X-00032824Y0020208
X-00025186Y00147267
X0019469Y0016072
X0018504Y0017619
X0020053Y0018205
X001953Y0019457
X00196156Y00129522
X00185273Y00270898
X00188193Y00283373
X00185596Y00545715
T02
X00253698Y00358191
Y00406991
X00018773Y00293806
Y00245006
T03
X-00011571Y00465312
Y00485312
Y00505312
T04
X00050405Y00589609
X00080084Y00590142
X00208196Y00590245
X00234195Y00589661
X00261562Y00589053
M30
